<svg version="1.1" xmlns="http://www.w3.org/2000/svg" viewBox="0 0 1880 1735" width="1880" height="1735">
  <!-- svg-source:excalidraw -->
  
  <defs>
    <style>
      @font-face {
        font-family: "Virgil";
        src: url("https://excalidraw.com/Virgil.woff2");
      }
      @font-face {
        font-family: "Cascadia";
        src: url("https://excalidraw.com/Cascadia.woff2");
      }
    </style>
  </defs>
  <rect x="0" y="0" width="1880" height="1735" fill="#ffffff"></rect><g stroke-opacity="0.3" fill-opacity="0.3" stroke-linecap="round" transform="translate(770 10) rotate(0 550 107.5)"><path d="M-3.13 2.8 L1098.12 -3.62 L1103.45 217.47 L1.69 211.01" stroke="none" stroke-width="0" fill="#e9ecef"></path><path d="M0.55 -1.34 C428.37 -5.84, 857.45 -4.52, 1099.01 -1.56 M1098.13 -0.45 C1098.82 48.29, 1101.83 101.06, 1102.04 217.02 M1100.59 215.22 C864.45 205.84, 632.47 205.73, 0.87 215.08 M2.38 213.49 C1.45 146.49, 5.79 78.47, 2.23 0.93" stroke="#868e96" stroke-width="2.5" fill="none" stroke-dasharray="8 10"></path></g><g transform="translate(770 20) rotate(0 5 10)"><text x="0" y="20" font-family="Virgil, Segoe UI Emoji" font-size="16px" fill="#868e96" text-anchor="start" style="white-space: pre;" direction="ltr">Config &amp; Input</text></g><g stroke-opacity="0.3" fill-opacity="0.3" stroke-linecap="round" transform="translate(390 260) rotate(0 360 107.5)"><path d="M3.8 -3.55 L721.26 0.77 L722.94 212.15 L0.22 211.02" stroke="none" stroke-width="0" fill="#f3f0ff"></path><path d="M0.46 0.24 C217.18 0.35, 432.3 -1.69, 719.51 0.06 M720.54 0.31 C720.62 73.21, 725.72 142.41, 722.38 215.89 M719.07 216.04 C490.83 219.39, 260.01 220.14, 1.32 213.47 M-1.93 215.12 C1.66 138.82, 5.15 71.43, -1.2 -1.9" stroke="#7048e8" stroke-width="2.5" fill="none" stroke-dasharray="8 10"></path></g><g transform="translate(390 270) rotate(0 5 10)"><text x="0" y="20" font-family="Virgil, Segoe UI Emoji" font-size="16px" fill="#7048e8" text-anchor="start" style="white-space: pre;" direction="ltr">Prompt Generation</text></g><g stroke-opacity="0.3" fill-opacity="0.3" stroke-linecap="round" transform="translate(10 260) rotate(0 455 482.5)"><path d="M0.33 -1.28 L913.14 2.73 L913.57 968.88 L-1.73 968.9" stroke="none" stroke-width="0" fill="#e7f5ff"></path><path d="M-0.45 0.73 C298.72 8.25, 596.4 7.56, 910.89 1.23 M908.46 -0.03 C906.77 335.59, 908.43 668.67, 911.33 965.98 M909.37 965.81 C632.42 964.67, 351.49 966.99, 0.33 965.39 M0.13 963.92 C-1.32 626.61, -0.69 284.87, 1.14 -0.12" stroke="#1971c2" stroke-width="2.5" fill="none" stroke-dasharray="8 10"></path></g><g transform="translate(10 270) rotate(0 5 10)"><text x="0" y="20" font-family="Virgil, Segoe UI Emoji" font-size="16px" fill="#1971c2" text-anchor="start" style="white-space: pre;" direction="ltr">ComfyUI Pipeline</text></g><g stroke-opacity="0.3" fill-opacity="0.3" stroke-linecap="round" transform="translate(390 1260) rotate(0 170 232.5)"><path d="M-0.3 2.84 L338.53 -0.8 L337.37 463.9 L3.47 461.1" stroke="none" stroke-width="0" fill="#ebfbee"></path><path d="M-2.1 -2.52 C102.28 3.23, 207.43 6.41, 342.54 -0.94 M338.51 0.66 C335.89 149.74, 336.04 298.72, 339.98 463.7 M339.06 464.16 C262.86 466.47, 190.78 466.8, -1.31 462.36 M-0.16 465.46 C-2.36 359.23, -4.62 255.54, 0.48 -0.28" stroke="#2f9e44" stroke-width="2.5" fill="none" stroke-dasharray="8 10"></path></g><g transform="translate(390 1270) rotate(0 5 10)"><text x="0" y="20" font-family="Virgil, Segoe UI Emoji" font-size="16px" fill="#2f9e44" text-anchor="start" style="white-space: pre;" direction="ltr">Scheduling &amp; Output</text></g><g stroke-linecap="round" transform="translate(820 65) rotate(0 115 50)"><path d="M-0.36 -3.49 L231.82 -0.82 L228.63 101.72 L-0.03 100.38" stroke="none" stroke-width="0" fill="#a5d8ff"></path><path d="M1.33 2.97 C92.2 0.99, 180.15 4.05, 229.94 0.88 M1.03 0.08 C89.63 4.47, 183.52 4.69, 231.01 0.43 M233.79 3.32 C233.2 28.13, 229.94 63.94, 228.88 103.51 M228.6 -0.14 C231.25 21.96, 228.95 45.68, 231.73 99.3 M232.33 98 C160.05 100.54, 80.92 100.54, 1.76 99.93 M230.06 99.21 C183.32 99.2, 133.73 98.39, -0.24 98.65 M2.38 103.5 C-2.99 70.73, -4.38 44.36, -3.1 -3.49 M-1.2 99.62 C-0.57 70.17, -1.46 40.87, -0.09 -1.69" stroke="#1971c2" stroke-width="2" fill="none"></path></g><g transform="translate(825 103.75) rotate(0 110 11.25)"><text x="110" y="23" font-family="Virgil, Segoe UI Emoji" font-size="18px" fill="#1971c2" text-anchor="middle" style="white-space: pre;" direction="ltr">Gap Scanner</text></g><g stroke-linecap="round" transform="translate(1200 65) rotate(0 115 50)"><path d="M1.71 1.69 L230.5 -2.17 L230.22 102.45 L-3.01 96.03" stroke="none" stroke-width="0" fill="#d0bfff"></path><path d="M-0.24 -1.65 C81.5 1.11, 161.61 -5.36, 232.56 0.25 M-0.06 -0.05 C74.16 4.29, 149.46 2.09, 231.35 -1.68 M230.07 2.45 C228.82 27.11, 231.67 47.75, 228.87 98.48 M230.58 -0.91 C231.69 24.28, 229.1 53.83, 228.81 99.94 M230.26 97.51 C161.54 100.49, 93.24 98.49, -1 100.49 M229.55 98.98 C164.39 98.64, 101.58 100.11, -1.07 101.66 M-1.14 102.62 C-1.73 58.09, 2.73 24.77, 3.29 2.42 M0.42 99.91 C0.52 64.26, 3.27 31.21, -0.62 1.17" stroke="#7048e8" stroke-width="2" fill="none"></path></g><g transform="translate(1205 103.75) rotate(0 110 11.25)"><text x="110" y="23" font-family="Virgil, Segoe UI Emoji" font-size="18px" fill="#7048e8" text-anchor="middle" style="white-space: pre;" direction="ltr">LLM Config</text></g><g stroke-linecap="round" transform="translate(1580 65) rotate(0 115 50)"><path d="M0.3 -3.41 L232.38 -0.39 L233.52 98.48 L-0.8 101.32" stroke="none" stroke-width="0" fill="#fcc2d7"></path><path d="M2.71 2.04 C61.14 1.64, 128.35 4.25, 227.3 0.75 M-0.06 -1.34 C69.48 0.76, 139.07 -0.35, 231.18 1.06 M231.05 -3.59 C229.9 33.26, 232.33 58.33, 227.96 103.62 M228.01 0.84 C229.71 33.78, 232.42 65.24, 228.13 98.69 M226.77 102.94 C165.99 103.57, 101.57 106.05, 0.88 100.22 M229.03 98.69 C174.76 98.87, 117.67 96.94, 1.43 101.49 M-0.69 96.1 C1.8 71.28, 2.72 39.61, 3.41 -2.11 M0.28 101.58 C-2.94 63.55, -0.38 30.85, -0.64 -1.44" stroke="#c2255c" stroke-width="2" fill="none"></path></g><g transform="translate(1585 105) rotate(0 110 10)"><text x="110" y="20" font-family="Virgil, Segoe UI Emoji" font-size="16px" fill="#c2255c" text-anchor="middle" style="white-space: pre;" direction="ltr">Bulk Prompter</text></g><g stroke-linecap="round" transform="translate(440 315) rotate(0 115 50)"><path d="M2.1 3.64 L232.55 -3.59 L228.05 101.76 L-0.75 97.38" stroke="none" stroke-width="0" fill="#a5d8ff"></path><path d="M2.82 -0.79 C64.83 -1.49, 121.91 -1.36, 226.77 2.5 M0.63 0.1 C79.81 -5.34, 162.49 -2.87, 229.22 -1.17 M233.07 0.37 C229.79 37.02, 230.03 75.56, 232.98 101.61 M228.4 0.35 C228.16 38.45, 229.29 76.17, 230.9 98.76 M233.17 101.34 C178.86 99.21, 132.9 101.8, -3.25 103.34 M228.5 101.03 C151.53 100.91, 77.02 102.89, 0.96 101.57 M-1.57 98.48 C-2.99 77.47, 0.61 45.58, -2.86 -1.27 M0.45 101.73 C2.35 64.64, 3.12 25.6, 0.73 1.54" stroke="#1971c2" stroke-width="2" fill="none"></path></g><g transform="translate(445 353.75) rotate(0 110 11.25)"><text x="110" y="23" font-family="Virgil, Segoe UI Emoji" font-size="18px" fill="#1971c2" text-anchor="middle" style="white-space: pre;" direction="ltr">Prompt Generator</text></g><g stroke-linecap="round" transform="translate(820 315) rotate(0 115 50)"><path d="M-1.98 1.26 L231.38 -0.23 L228.28 96.72 L0.93 101.72" stroke="none" stroke-width="0" fill="#d0bfff"></path><path d="M-2.96 -2.26 C60.25 3.65, 113.28 1.58, 233.04 -0.31 M-1.35 -1.33 C80.2 3.9, 161.78 1.73, 230.08 -0.65 M226.65 -3.17 C234.34 31.68, 232.49 57.11, 231.09 102.87 M228.19 -1.66 C229.29 34.1, 230.22 70.45, 229.39 100.18 M228.89 100.24 C176.29 94.09, 127.51 93.69, -0.45 97.54 M230.99 101.23 C142.31 98.98, 55.62 100.14, 1.47 101.62 M1.03 96.35 C-3.74 65.66, -4.19 34.68, 2.63 -3.73 M1.59 101.51 C0.56 75.42, -0.02 52.23, -1.45 1.07" stroke="#7048e8" stroke-width="2" fill="none"></path></g><g transform="translate(825 353.75) rotate(0 110 11.25)"><text x="110" y="23" font-family="Virgil, Segoe UI Emoji" font-size="18px" fill="#7048e8" text-anchor="middle" style="white-space: pre;" direction="ltr">API Call</text></g><g stroke-linecap="round" transform="translate(250 565) rotate(0 115 50)"><path d="M0.58 2.15 L227.13 -3.71 L232.93 100.35 L3.75 100.14" stroke="none" stroke-width="0" fill="#e9ecef"></path><path d="M0.36 -2.65 C58.61 1.29, 111.48 2.34, 231.38 -1.03 M1.46 -1.7 C57.83 0.84, 114.25 0.96, 231.4 -0.93 M233.42 1.66 C226.89 24.63, 229.37 53.76, 226.93 101.74 M229.59 -0.72 C230.85 22.44, 231.51 40.37, 229.73 101.92 M229.38 100.07 C184.23 97.14, 138.09 96.4, -2.52 99.65 M230.87 100.41 C155.27 102.57, 81.19 100.64, 0.5 100.29 M1.36 103.01 C-2.32 58.38, -3.49 23.4, -0.25 0.64 M1.45 100.11 C-0.36 66.61, -1.3 36.77, -1.25 -0.39" stroke="#1e1e1e" stroke-width="2" fill="none"></path></g><g transform="translate(255 605) rotate(0 110 10)"><text x="110" y="20" font-family="Virgil, Segoe UI Emoji" font-size="16px" fill="#1e1e1e" text-anchor="middle" style="white-space: pre;" direction="ltr">CLIP Encode (+)</text></g><g stroke-linecap="round" transform="translate(630 565) rotate(0 115 50)"><path d="M2.02 0.2 L230.89 -3.46 L233.69 99.22 L0.6 101.8" stroke="none" stroke-width="0" fill="#e9ecef"></path><path d="M-2.98 3.31 C77.64 3.13, 158.13 -0.14, 232.97 -1 M1.3 0.25 C82.89 -5.48, 164.27 -5.57, 230.29 1.54 M232.62 -3.16 C235.1 33.12, 234.4 70.93, 229.56 100.64 M228.23 -1.22 C230.96 29.55, 229.81 60.38, 231.4 101.33 M228.99 97.64 C153.77 100.19, 78.52 103.43, -2.27 96.94 M230.84 100.83 C173.42 101.67, 115.93 103.31, -0.44 100.59 M-2.35 103.29 C1.22 63.94, 2.02 29.12, -3.68 -1.35 M-0.43 98.35 C-2.49 75.29, -1.5 51.21, -0.22 1.38" stroke="#1e1e1e" stroke-width="2" fill="none"></path></g><g transform="translate(635 605) rotate(0 110 10)"><text x="110" y="20" font-family="Virgil, Segoe UI Emoji" font-size="16px" fill="#1e1e1e" text-anchor="middle" style="white-space: pre;" direction="ltr">CLIP Encode (-)</text></g><g stroke-linecap="round" transform="translate(60 315) rotate(0 115 50)"><path d="M-1.58 -1.11 L227.36 -1.53 L227.58 102.88 L0.58 103.6" stroke="none" stroke-width="0" fill="#e9ecef"></path><path d="M1.89 -2.96 C75.09 2.47, 150.34 1.09, 231.79 0.92 M-1.16 1.58 C49.58 -0.33, 99.34 -0.48, 228.95 1.22 M229.73 3.76 C231.57 24.31, 226.21 51.83, 229.26 96.18 M230.66 -0.45 C230.43 38.53, 229.16 78.58, 230.1 99.07 M229.46 101.41 C177.33 101.83, 117.28 97.97, -1.88 97.62 M230.56 98.33 C146.32 100.85, 60.54 100.54, 1.3 99.34 M0.99 96.89 C-3.04 65.1, 1.42 37.46, 0.16 1.2 M0.65 101.5 C-2.11 79.08, -2.55 56.13, 0.45 0.78" stroke="#1e1e1e" stroke-width="2" fill="none"></path></g><g transform="translate(65 355) rotate(0 110 10)"><text x="110" y="20" font-family="Virgil, Segoe UI Emoji" font-size="16px" fill="#1e1e1e" text-anchor="middle" style="white-space: pre;" direction="ltr">Empty Latent</text></g><g stroke-linecap="round" transform="translate(440 815) rotate(0 115 50)"><path d="M-2.96 3.43 L228.3 -2.34 L232.93 96.53 L-2.64 102.31" stroke="none" stroke-width="0" fill="#e9ecef"></path><path d="M0.09 -2.26 C57.28 -1.59, 105.95 -0.74, 227.75 2.55 M-0.66 0.99 C87.88 3.2, 178.81 0.51, 229.24 -1.52 M230.03 -0.31 C231.07 30.14, 230.03 54, 226.82 102.48 M231.66 -0.68 C230.88 22.85, 228.01 47.98, 230.29 98.07 M231.41 101.68 C153.64 103.95, 74.06 104.03, -1.16 101.65 M230.78 100.41 C174.2 100.63, 114.68 100.73, -1.25 101.43 M1.2 97.38 C0.27 76.46, -1.05 45.64, -3.48 -0.8 M-1.05 100.2 C1.49 65.37, 2.76 31.21, -1.49 1.28" stroke="#1e1e1e" stroke-width="2" fill="none"></path></g><g transform="translate(445 853.75) rotate(0 110 11.25)"><text x="110" y="23" font-family="Virgil, Segoe UI Emoji" font-size="18px" fill="#1e1e1e" text-anchor="middle" style="white-space: pre;" direction="ltr">KSampler</text></g><g stroke-linecap="round" transform="translate(440 1065) rotate(0 115 50)"><path d="M0.21 2.94 L227.06 2.09 L229.08 101.08 L3.35 103.77" stroke="none" stroke-width="0" fill="#e9ecef"></path><path d="M-2.8 -0.03 C55.47 0.84, 113.26 -2.55, 227.2 -0.39 M-1.44 -1.01 C64.85 -1.29, 127.98 -2.03, 230.38 -0.46 M230.4 1.57 C233.54 29.75, 233.5 60.39, 229.39 97.75 M231.94 -0.61 C230.26 35.54, 230.35 76.04, 229.78 99.71 M229.37 100.15 C163.42 94.53, 92.72 94.46, 1.36 102.92 M230.81 100.35 C175.9 97.46, 119.86 98.94, -0.29 98.72 M1.03 100.26 C1.56 79.14, 2.98 55.66, -2.84 -0.61 M-0.22 99.71 C-0.4 77.18, -2.68 55.74, -1.46 -1.59" stroke="#1e1e1e" stroke-width="2" fill="none"></path></g><g transform="translate(445 1105) rotate(0 110 10)"><text x="110" y="20" font-family="Virgil, Segoe UI Emoji" font-size="16px" fill="#1e1e1e" text-anchor="middle" style="white-space: pre;" direction="ltr">VAE Decode</text></g><g stroke-linecap="round" transform="translate(440 1315) rotate(0 115 50)"><path d="M3.65 -0.54 L227.59 2.95 L231.12 101.18 L1.77 97.19" stroke="none" stroke-width="0" fill="#a5d8ff"></path><path d="M-1.4 2.55 C54.64 -4.56, 103.12 -1.18, 228.73 0.13 M0.89 0.36 C84.86 1.85, 169.76 1.55, 230.42 -0.62 M229.26 -0.44 C229.94 33.62, 229.13 64.86, 227.61 101.78 M229.62 0.78 C228.8 27.41, 230.02 49.15, 228.34 99.15 M230.65 96.98 C146.04 102.39, 62.86 97.57, -1.89 99.03 M231.12 99.78 C156.37 100.62, 84.23 100.27, 0.37 100.16 M-1.94 99.75 C3.13 71.8, -1.81 45.73, -3.92 2.72 M-0.91 98.43 C1.25 69.56, 1.16 41.73, -1.02 -0.31" stroke="#1971c2" stroke-width="2" fill="none"></path></g><g transform="translate(445 1353.75) rotate(0 110 11.25)"><text x="110" y="23" font-family="Virgil, Segoe UI Emoji" font-size="18px" fill="#1971c2" text-anchor="middle" style="white-space: pre;" direction="ltr">CRON Scheduler</text></g><g stroke-linecap="round" transform="translate(440 1565) rotate(0 115 50)"><path d="M-2.02 2.82 L233.21 -3.12 L231.71 102 L0.53 103.55" stroke="none" stroke-width="0" fill="#a5d8ff"></path><path d="M-0.98 -1.35 C76.74 2, 152.88 0.53, 227.1 -0.11 M0.41 -0.91 C57.15 2.07, 111.52 2.6, 230.43 0.49 M229.03 -1.65 C231.09 37.68, 227.24 75.99, 226.49 96.03 M231.37 1 C228.64 40.11, 226.87 76.33, 231.77 99.87 M229.79 96.72 C154.77 101.98, 81.3 103.05, 1.1 99.09 M231.12 100.58 C164.16 99.08, 97.71 100.01, -1.3 101.14 M-3.16 98.15 C1.39 63.5, 0.71 20.05, -2.19 1.17 M-0.17 101.81 C-2.02 62.94, -1.04 30.46, -1.33 0.19" stroke="#1971c2" stroke-width="2" fill="none"></path></g><g transform="translate(445 1603.75) rotate(0 110 11.25)"><text x="110" y="23" font-family="Virgil, Segoe UI Emoji" font-size="18px" fill="#1971c2" text-anchor="middle" style="white-space: pre;" direction="ltr">Save As</text></g><g stroke-linecap="round"><g transform="translate(852.3166633420485 169.3969320118102) rotate(0 -107.31666334204851 70.60306798818978)"><path d="M0.07 1.03 C-35.5 24.65, -178.02 117.63, -213.66 141 M-1.36 0.53 C-36.97 24.39, -178.65 118.75, -214.09 142.42" stroke="#495057" stroke-width="2" fill="none"></path></g><g transform="translate(852.3166633420485 169.3969320118102) rotate(0 -107.31666334204851 70.60306798818978)"><path d="M-194.61 119.87 C-201.74 126.47, -206.24 132.29, -212.71 143.45 M-196.63 118.51 C-200.79 123.68, -202.93 129.37, -214.01 143.19" stroke="#495057" stroke-width="2" fill="none"></path></g><g transform="translate(852.3166633420485 169.3969320118102) rotate(0 -107.31666334204851 70.60306798818978)"><path d="M-183.22 136.95 C-193.41 138.82, -201.06 139.91, -212.71 143.45 M-185.25 135.58 C-191.95 137.18, -196.51 139.24, -214.01 143.19" stroke="#495057" stroke-width="2" fill="none"></path></g></g><g transform="translate(681.5 231.875) rotate(0 63.5 8.125)"><text x="63.5" y="16" font-family="Virgil, Segoe UI Emoji" font-size="13px" fill="#495057" text-anchor="middle" style="white-space: pre;" direction="ltr">topic / resolution</text></g><g stroke-linecap="round"><g transform="translate(812.400593680429 155.32875207880627) rotate(0 -257.400593680429 84.67124792119374)"><path d="M-0.63 0.92 C-86.34 29.12, -428.95 141.17, -514.84 169.05 M1.24 0.35 C-84.57 28.76, -429.98 142.35, -515.8 170.43" stroke="#495057" stroke-width="2" fill="none"></path></g><g transform="translate(812.400593680429 155.32875207880627) rotate(0 -257.400593680429 84.67124792119374)"><path d="M-490.69 151.83 C-498.67 154.49, -506.09 161.9, -514.74 171.96 M-492.09 152.6 C-500.17 158.49, -507.86 164.55, -516 170.06" stroke="#495057" stroke-width="2" fill="none"></path></g><g transform="translate(812.400593680429 155.32875207880627) rotate(0 -257.400593680429 84.67124792119374)"><path d="M-484.29 171.33 C-493.85 169.05, -502.88 171.56, -514.74 171.96 M-485.69 172.1 C-495.94 171.35, -505.82 170.75, -516 170.06" stroke="#495057" stroke-width="2" fill="none"></path></g></g><g transform="translate(504.5 231.875) rotate(0 50.5 8.125)"><text x="50.5" y="16" font-family="Virgil, Segoe UI Emoji" font-size="13px" fill="#495057" text-anchor="middle" style="white-space: pre;" direction="ltr">width / height</text></g><g stroke-linecap="round"><g transform="translate(1192.400593680429 155.32875207880627) rotate(0 -257.400593680429 84.67124792119374)"><path d="M-0.85 -0.6 C-86.46 27.66, -429.18 139.86, -514.8 168.35" stroke="#495057" stroke-width="2.5" fill="none" stroke-dasharray="8 10"></path></g><g transform="translate(1192.400593680429 155.32875207880627) rotate(0 -257.400593680429 84.67124792119374)"><path d="M-492.23 149.79 C-497.86 153.75, -499.26 158.15, -515.44 168.7" stroke="#495057" stroke-width="2.5" fill="none"></path></g><g transform="translate(1192.400593680429 155.32875207880627) rotate(0 -257.400593680429 84.67124792119374)"><path d="M-485.8 169.28 C-492.55 169.23, -495.26 169.67, -515.44 168.7" stroke="#495057" stroke-width="2.5" fill="none"></path></g></g><g transform="translate(897.5 231.875) rotate(0 37.5 8.125)"><text x="37.5" y="16" font-family="Virgil, Segoe UI Emoji" font-size="13px" fill="#495057" text-anchor="middle" style="white-space: pre;" direction="ltr">LLM_CONFIG</text></g><g stroke-linecap="round"><g transform="translate(1232.3166633420485 169.3969320118102) rotate(0 -107.31666334204851 70.60306798818978)"><path d="M0.29 1.01 C-35.55 24.6, -179.45 118.73, -215.38 142.2" stroke="#495057" stroke-width="2.5" fill="none" stroke-dasharray="8 10"></path></g><g transform="translate(1232.3166633420485 169.3969320118102) rotate(0 -107.31666334204851 70.60306798818978)"><path d="M-195.71 116.94 C-200.51 123.67, -206.03 131.94, -213.84 140.36" stroke="#495057" stroke-width="2.5" fill="none"></path></g><g transform="translate(1232.3166633420485 169.3969320118102) rotate(0 -107.31666334204851 70.60306798818978)"><path d="M-184.48 134.12 C-192.45 136.18, -201.03 139.76, -213.84 140.36" stroke="#495057" stroke-width="2.5" fill="none"></path></g></g><g transform="translate(1087.5 231.875) rotate(0 37.5 8.125)"><text x="37.5" y="16" font-family="Virgil, Segoe UI Emoji" font-size="13px" fill="#495057" text-anchor="middle" style="white-space: pre;" direction="ltr">LLM_CONFIG</text></g><g stroke-linecap="round"><g transform="translate(512.1593338597315 421.36929755298485) rotate(0 -52.15933385973153 68.63070244701518)"><path d="M0.07 0.96 C-17.59 23.9, -87.43 114.72, -104.99 137.37 M-1.35 0.41 C-18.7 23.6, -85.7 116.04, -102.63 138.96" stroke="#495057" stroke-width="2" fill="none"></path></g><g transform="translate(512.1593338597315 421.36929755298485) rotate(0 -52.15933385973153 68.63070244701518)"><path d="M-92.68 109.03 C-97.35 119.48, -101.43 133.6, -101.67 140.66 M-93.44 111.09 C-97.34 117.21, -99.19 126.47, -102.75 139.43" stroke="#495057" stroke-width="2" fill="none"></path></g><g transform="translate(512.1593338597315 421.36929755298485) rotate(0 -52.15933385973153 68.63070244701518)"><path d="M-76.11 121.14 C-87.06 126.99, -97.44 136.51, -101.67 140.66 M-76.88 123.2 C-85.25 125.94, -91.65 131.87, -102.75 139.43" stroke="#495057" stroke-width="2" fill="none"></path></g></g><g transform="translate(435.5 481.875) rotate(0 24.5 8.125)"><text x="24.5" y="16" font-family="Virgil, Segoe UI Emoji" font-size="13px" fill="#495057" text-anchor="middle" style="white-space: pre;" direction="ltr">prompt</text></g><g stroke-linecap="round"><g transform="translate(597.8406661402685 421.36929755298485) rotate(0 52.15933385973153 68.63070244701518)"><path d="M-0.16 0.11 C17.28 23.16, 86.34 114.48, 103.67 137.37 M-1.71 -0.88 C16.21 22.47, 88.62 115.68, 106.04 138.97" stroke="#495057" stroke-width="2" fill="none"></path></g><g transform="translate(597.8406661402685 421.36929755298485) rotate(0 52.15933385973153 68.63070244701518)"><path d="M80.95 121.73 C86.33 125.58, 91.95 130.81, 104.43 138.82 M80.09 123.18 C90.15 127.58, 97.26 134.51, 106.56 139.28" stroke="#495057" stroke-width="2" fill="none"></path></g><g transform="translate(597.8406661402685 421.36929755298485) rotate(0 52.15933385973153 68.63070244701518)"><path d="M97.25 109.26 C98.98 115.81, 101.05 123.76, 104.43 138.82 M96.39 110.71 C100.84 119.49, 102.35 130.7, 106.56 139.28" stroke="#495057" stroke-width="2" fill="none"></path></g></g><g transform="translate(619 481.875) rotate(0 31 8.125)"><text x="31" y="16" font-family="Virgil, Segoe UI Emoji" font-size="13px" fill="#495057" text-anchor="middle" style="white-space: pre;" direction="ltr">negative</text></g><g stroke-linecap="round"><g transform="translate(407.84066614026847 671.3692975529848) rotate(0 52.15933385973153 68.63070244701521)"><path d="M0.71 1.09 C18.12 23.67, 87.51 113.6, 104.69 136.19 M-0.37 0.62 C16.89 23.24, 86.76 114.34, 103.94 137.16" stroke="#495057" stroke-width="2" fill="none"></path></g><g transform="translate(407.84066614026847 671.3692975529848) rotate(0 52.15933385973153 68.63070244701521)"><path d="M80.52 121.56 C85.1 125.11, 93.84 132.16, 105.74 135.24 M78.42 120.24 C87.79 126.79, 98.29 133.86, 103.04 137.94" stroke="#495057" stroke-width="2" fill="none"></path></g><g transform="translate(407.84066614026847 671.3692975529848) rotate(0 52.15933385973153 68.63070244701521)"><path d="M96.85 109.14 C96.27 116.76, 99.78 127.79, 105.74 135.24 M94.75 107.81 C97.7 119.23, 101.81 131.16, 103.04 137.94" stroke="#495057" stroke-width="2" fill="none"></path></g></g><g stroke-linecap="round"><g transform="translate(702.1593338597315 671.3692975529848) rotate(0 -52.15933385973153 68.63070244701521)"><path d="M1.07 -0.71 C-16.18 21.98, -86.68 113.93, -104.26 136.73 M0.18 1.54 C-17.16 24.33, -87.62 115.44, -105.18 137.99" stroke="#495057" stroke-width="2" fill="none"></path></g><g transform="translate(702.1593338597315 671.3692975529848) rotate(0 -52.15933385973153 68.63070244701521)"><path d="M-97.19 109.52 C-98.93 116.18, -102.15 125.03, -106.8 138.01 M-95.61 109.94 C-98.42 120.79, -103.59 132.46, -105.04 138.09" stroke="#495057" stroke-width="2" fill="none"></path></g><g transform="translate(702.1593338597315 671.3692975529848) rotate(0 -52.15933385973153 68.63070244701521)"><path d="M-80.97 122.09 C-86.63 125.92, -93.7 131.77, -106.8 138.01 M-79.39 122.52 C-88.55 128.46, -99.99 135.27, -105.04 138.09" stroke="#495057" stroke-width="2" fill="none"></path></g></g><g stroke-linecap="round"><g transform="translate(217.84066614026847 421.36929755298485) rotate(0 147.15933385973153 193.63070244701518)"><path d="M0.65 0.82 C49.54 65.44, 244.67 323.38, 293.59 387.8 M-0.46 0.2 C48.79 64.46, 246.95 321.2, 295.92 385.96" stroke="#495057" stroke-width="2" fill="none"></path></g><g transform="translate(217.84066614026847 421.36929755298485) rotate(0 147.15933385973153 193.63070244701518)"><path d="M272 368.59 C279.71 374.63, 287.12 380.69, 295.5 385.92 M270.37 369.99 C281 375.74, 290.43 382.56, 296.88 386.36" stroke="#495057" stroke-width="2" fill="none"></path></g><g transform="translate(217.84066614026847 421.36929755298485) rotate(0 147.15933385973153 193.63070244701518)"><path d="M288.3 356.12 C290.75 366.28, 292.9 376.36, 295.5 385.92 M286.67 357.52 C290.81 368.39, 293.74 380.19, 296.88 386.36" stroke="#495057" stroke-width="2" fill="none"></path></g></g><g stroke-linecap="round"><g transform="translate(555 923) rotate(0 0 67)"><path d="M-1.09 -0.65 C-1.05 21.91, -0.98 111.8, -0.8 134.22 M0.54 1.63 C1.05 23.9, 1.71 109.96, 1.49 132.21" stroke="#495057" stroke-width="2" fill="none"></path></g><g transform="translate(555 923) rotate(0 0 67)"><path d="M-9.86 102.69 C-6.49 110.12, -4.83 115.69, 3.45 132.76 M-8.44 104.73 C-6.8 109.89, -3.03 118.62, 1.22 131.69" stroke="#495057" stroke-width="2" fill="none"></path></g><g transform="translate(555 923) rotate(0 0 67)"><path d="M10.66 102.68 C9.64 109.93, 6.91 115.5, 3.45 132.76 M12.09 104.73 C8.76 109.9, 7.57 118.64, 1.22 131.69" stroke="#495057" stroke-width="2" fill="none"></path></g></g><g stroke-linecap="round"><g transform="translate(555 1173) rotate(0 0 67)"><path d="M0.16 0.21 C-0.04 22.48, -0.18 112.07, -0.08 134.43 M-1.22 -0.73 C-1.68 21.11, -1.34 110.37, -1.07 132.54" stroke="#495057" stroke-width="2" fill="none"></path></g><g transform="translate(555 1173) rotate(0 0 67)"><path d="M-11.18 104.28 C-6.52 116.66, -2.5 125.86, -1.29 132.38 M-12.26 104.54 C-8.72 111.8, -6.24 119.1, -1.79 132.15" stroke="#495057" stroke-width="2" fill="none"></path></g><g transform="translate(555 1173) rotate(0 0 67)"><path d="M9.34 104.14 C5.94 116.61, 1.9 125.86, -1.29 132.38 M8.26 104.4 C6.27 111.51, 3.22 118.84, -1.79 132.15" stroke="#495057" stroke-width="2" fill="none"></path></g></g><g transform="translate(533.75 1231.875) rotate(0 21.25 8.125)"><text x="21.25" y="16" font-family="Virgil, Segoe UI Emoji" font-size="13px" fill="#495057" text-anchor="middle" style="white-space: pre;" direction="ltr">image</text></g><g stroke-linecap="round"><g transform="translate(555 1423) rotate(0 0 67)"><path d="M-0.27 -0.57 C-0.06 21.72, 0.78 111.67, 0.64 134.27 M1.79 1.75 C1.96 23.61, 0.13 110.37, 0.03 132.29" stroke="#495057" stroke-width="2" fill="none"></path></g><g transform="translate(555 1423) rotate(0 0 67)"><path d="M-10.79 105.04 C-6.82 109.14, -3.03 117.85, -0.22 132.09 M-9.6 104.65 C-8.48 110.94, -4.7 117.01, 0.58 131.62" stroke="#495057" stroke-width="2" fill="none"></path></g><g transform="translate(555 1423) rotate(0 0 67)"><path d="M9.73 105.32 C8.63 109.31, 7.34 117.94, -0.22 132.09 M10.92 104.93 C7.06 111.09, 5.86 117.1, 0.58 131.62" stroke="#495057" stroke-width="2" fill="none"></path></g></g><g transform="translate(514.25 1481.875) rotate(0 40.75 8.125)"><text x="40.75" y="16" font-family="Virgil, Segoe UI Emoji" font-size="13px" fill="#495057" text-anchor="middle" style="white-space: pre;" direction="ltr">passthrough</text></g></svg>