<svg version="1.1" xmlns="http://www.w3.org/2000/svg" viewBox="0 0 1880 1735" width="1880" height="1735">
  <!-- svg-source:excalidraw -->
  
  <defs>
    <style>
      @font-face {
        font-family: "Virgil";
        src: url("https://excalidraw.com/Virgil.woff2");
      }
      @font-face {
        font-family: "Cascadia";
        src: url("https://excalidraw.com/Cascadia.woff2");
      }
    </style>
  </defs>
  <rect x="0" y="0" width="1880" height="1735" fill="#ffffff"></rect><g stroke-opacity="0.3" fill-opacity="0.3" stroke-linecap="round" transform="translate(770 10) rotate(0 550 107.5)"><path d="M-3.99 2.82 L1098.31 -1.19 L1100.05 218.43 L-2.14 216.62" stroke="none" stroke-width="0" fill="#e9ecef"></path><path d="M-0.86 0.94 C281.07 0.18, 558.42 -0.3, 1099.51 -0.72 M1099.21 -2.39 C1099.89 78.28, 1102.27 158.46, 1102.91 214.98 M1100.2 215.71 C836.47 211.56, 572.48 212.54, 1.13 215.8 M0.38 215.49 C0.52 169.75, 2.24 118.78, 2.41 -0.26" stroke="#868e96" stroke-width="2.5" fill="none" stroke-dasharray="8 10"></path></g><g transform="translate(770 20) rotate(0 5 10)"><text x="0" y="20" font-family="Virgil, Segoe UI Emoji" font-size="16px" fill="#868e96" text-anchor="start" style="white-space: pre;" direction="ltr">Config &amp; Input</text></g><g stroke-opacity="0.3" fill-opacity="0.3" stroke-linecap="round" transform="translate(390 260) rotate(0 360 107.5)"><path d="M1.17 -2.26 L720.84 -0.43 L722.18 212.57 L2.97 216.05" stroke="none" stroke-width="0" fill="#f3f0ff"></path><path d="M-1.2 -0.45 C157.67 2.09, 318.58 0.86, 719.21 -1.17 M719.72 -3.34 C719.82 76.62, 722.2 148.31, 717.73 215.37 M718.62 213.89 C451.23 218.97, 183.66 218.72, 0.87 215.37 M1.02 213.27 C4.02 146.38, 2.25 78.24, -2.42 -1.64" stroke="#7048e8" stroke-width="2.5" fill="none" stroke-dasharray="8 10"></path></g><g transform="translate(390 270) rotate(0 5 10)"><text x="0" y="20" font-family="Virgil, Segoe UI Emoji" font-size="16px" fill="#7048e8" text-anchor="start" style="white-space: pre;" direction="ltr">Prompt Generation</text></g><g stroke-opacity="0.3" fill-opacity="0.3" stroke-linecap="round" transform="translate(10 260) rotate(0 455 482.5)"><path d="M-3.74 2.3 L908.32 0.56 L907.68 961.98 L-3.57 962.94" stroke="none" stroke-width="0" fill="#e7f5ff"></path><path d="M1.13 0.01 C334.68 -2.77, 672.04 -3.46, 909.89 1.2 M908.72 1.12 C901.8 242.11, 901.14 482.63, 911.08 966.14 M911.58 963.44 C615.43 963.61, 321.55 962.61, 1.26 965.61 M-1.53 966.45 C-3.48 684.27, -3.88 402.86, -0.47 0.6" stroke="#1971c2" stroke-width="2.5" fill="none" stroke-dasharray="8 10"></path></g><g transform="translate(10 270) rotate(0 5 10)"><text x="0" y="20" font-family="Virgil, Segoe UI Emoji" font-size="16px" fill="#1971c2" text-anchor="start" style="white-space: pre;" direction="ltr">ComfyUI Pipeline</text></g><g stroke-opacity="0.3" fill-opacity="0.3" stroke-linecap="round" transform="translate(390 1260) rotate(0 170 232.5)"><path d="M1.68 2.01 L337.62 -1.39 L336.63 461.31 L3.76 465.09" stroke="none" stroke-width="0" fill="#ebfbee"></path><path d="M-1.89 0.76 C101.85 1.24, 207.69 1.03, 341.44 -1.56 M340.55 -0.02 C335.09 145.58, 337.71 291.72, 338.87 463.5 M338.79 467.36 C246.83 465.5, 158.27 466.1, 2.48 465.58 M0.01 465.22 C1.01 334.61, 2.05 201.45, -1.11 -0.47" stroke="#2f9e44" stroke-width="2.5" fill="none" stroke-dasharray="8 10"></path></g><g transform="translate(390 1270) rotate(0 5 10)"><text x="0" y="20" font-family="Virgil, Segoe UI Emoji" font-size="16px" fill="#2f9e44" text-anchor="start" style="white-space: pre;" direction="ltr">Scheduling &amp; Output</text></g><g stroke-linecap="round" transform="translate(820 65) rotate(0 115 50)"><path d="M1.17 2.39 L233.29 -3.38 L231.94 100.55 L1.48 98.57" stroke="none" stroke-width="0" fill="#a5d8ff"></path><path d="M0.34 -2.97 C87.2 -1.02, 174.06 1.99, 232.24 -1.33 M-1.06 0.15 C85.97 1.76, 170.74 4.24, 229.66 0.62 M230.82 -2.53 C229.09 30.39, 228.9 64.89, 230.74 98.71 M229.98 0.46 C230.6 34.58, 233.63 66.88, 229.27 101.88 M229.9 96.91 C140.23 98.64, 51.71 104.66, 0.03 103.1 M228.54 100.7 C150.22 103.23, 68.8 101.16, 1.37 98.3 M0.89 101.2 C1.14 76.17, 2.92 51.31, -2.09 -3.89 M-1.9 98.69 C2.41 74.32, 0.76 47.58, -1.31 0.95" stroke="#1971c2" stroke-width="2" fill="none"></path></g><g transform="translate(825 103.75) rotate(0 110 11.25)"><text x="110" y="23" font-family="Virgil, Segoe UI Emoji" font-size="18px" fill="#1971c2" text-anchor="middle" style="white-space: pre;" direction="ltr">Gap Scanner</text></g><g stroke-linecap="round" transform="translate(1200 65) rotate(0 115 50)"><path d="M3.04 1.11 L228.11 3.48 L226.01 96.33 L-2.23 103.15" stroke="none" stroke-width="0" fill="#d0bfff"></path><path d="M3.2 0.3 C81.75 6.05, 161.58 1.74, 228.29 -0.19 M0.59 1.29 C79.24 -0.75, 154.38 0.32, 229.79 0.12 M226.92 1.81 C231.29 37.86, 227.05 70.19, 227.72 100.17 M229.75 1.22 C228.86 37.75, 228.01 77.04, 230.03 100.26 M227.34 100.17 C178.73 101.81, 128.09 102.44, -0.25 102.28 M231.5 98.78 C140.6 98.35, 53.14 99.12, -1.35 98.57 M-0.95 98.47 C-0.09 76.57, 0.41 57.04, -1.56 -3.79 M-0.49 99.33 C1.52 71.77, -0.33 46.24, 1.61 1.62" stroke="#7048e8" stroke-width="2" fill="none"></path></g><g transform="translate(1205 103.75) rotate(0 110 11.25)"><text x="110" y="23" font-family="Virgil, Segoe UI Emoji" font-size="18px" fill="#7048e8" text-anchor="middle" style="white-space: pre;" direction="ltr">LLM Config</text></g><g stroke-linecap="round" transform="translate(1580 65) rotate(0 115 50)"><path d="M-1.37 2.7 L228.43 1.77 L226.51 99.3 L-3.11 99.33" stroke="none" stroke-width="0" fill="#fcc2d7"></path><path d="M-3.26 2.81 C49.74 -5.1, 100.57 -5.05, 230.12 2.41 M-1.28 -1.37 C80.66 -2.83, 163.53 -3.12, 231.3 1.05 M232.6 -1.93 C231.85 30.61, 233.49 70.14, 229.43 100.01 M231.36 -0.99 C230.03 22.66, 227.03 47.47, 230.49 101.95 M227.85 100.68 C162.11 105.71, 93.32 102.04, -3.12 98.94 M231.12 100.11 C165.51 97.97, 96.99 97.01, -0.06 98.93 M1.31 97.22 C1.23 59.86, 0.93 25.44, -1.1 -1.69 M-0.88 99.85 C0.99 76.01, 1.7 50.91, 1.15 -1.87" stroke="#c2255c" stroke-width="2" fill="none"></path></g><g transform="translate(1585 105) rotate(0 110 10)"><text x="110" y="20" font-family="Virgil, Segoe UI Emoji" font-size="16px" fill="#c2255c" text-anchor="middle" style="white-space: pre;" direction="ltr">Bulk Prompter</text></g><g stroke-linecap="round" transform="translate(440 315) rotate(0 115 50)"><path d="M-2.1 1.43 L229.1 -2.44 L228.67 102 L-1.33 96.32" stroke="none" stroke-width="0" fill="#a5d8ff"></path><path d="M3.02 -1.26 C49.42 5.91, 92.62 0.78, 230.09 -0.48 M-0.04 -0.53 C90.03 -2.15, 177.65 -3.79, 230.89 0.81 M228.75 2.83 C231.25 35.25, 229.99 77.02, 232.28 99.3 M229.31 0.01 C229.72 36.15, 228.2 71.75, 231.69 98.27 M228.41 97.92 C148.24 100.59, 71.5 97.91, -1.25 97.08 M229.23 100.03 C163.35 99.96, 98.27 98.78, -0.96 101.16 M-1.7 100.19 C3.91 76.97, 3.6 58.95, 1.46 1.87 M0.51 101.39 C-2.33 74.85, -2.72 46.69, 1.02 -0.56" stroke="#1971c2" stroke-width="2" fill="none"></path></g><g transform="translate(445 353.75) rotate(0 110 11.25)"><text x="110" y="23" font-family="Virgil, Segoe UI Emoji" font-size="18px" fill="#1971c2" text-anchor="middle" style="white-space: pre;" direction="ltr">Prompt Generator</text></g><g stroke-linecap="round" transform="translate(820 315) rotate(0 115 50)"><path d="M3.68 -2.33 L226.17 -3.14 L231.58 103.13 L-3.96 103.8" stroke="none" stroke-width="0" fill="#d0bfff"></path><path d="M1.08 2.38 C48.56 -0.03, 101.16 -0.69, 227.99 -0.46 M-0.47 1.23 C74.36 3.91, 149.39 3.26, 231.56 1.22 M226.27 -1.76 C229.77 29.01, 231.58 66.58, 230.79 99.72 M230.5 -0.09 C230 32.1, 226.49 63.46, 231.38 101.02 M231.66 102.42 C164.79 95.31, 94.37 95.24, 0.83 100.78 M228.8 98.36 C166.88 104.27, 101.09 103.87, -1.42 100.96 M-3.78 101.32 C-3.15 74.64, -1.29 40.66, 1.79 -1.85 M0.64 101.21 C0.46 79.59, 0.03 56.12, -1.58 1.11" stroke="#7048e8" stroke-width="2" fill="none"></path></g><g transform="translate(825 353.75) rotate(0 110 11.25)"><text x="110" y="23" font-family="Virgil, Segoe UI Emoji" font-size="18px" fill="#7048e8" text-anchor="middle" style="white-space: pre;" direction="ltr">API Call</text></g><g stroke-linecap="round" transform="translate(250 565) rotate(0 115 50)"><path d="M-0.9 1.84 L227.92 3.87 L226.4 99.75 L-3.14 97.41" stroke="none" stroke-width="0" fill="#e9ecef"></path><path d="M-2.49 0.9 C87.42 1.35, 176.27 -0.7, 230.91 1.73 M-1.16 -0.66 C86.19 4.96, 170.37 2.88, 230.44 -1.7 M226.42 -0.71 C230.88 26.55, 227.17 51.66, 226.72 97.35 M231.3 1.54 C230.72 26.01, 233.7 56.46, 231.23 100.29 M231.71 102.6 C181.91 100.48, 137.41 102.21, -2.28 100.24 M229.06 99.59 C148.94 101.98, 69.64 100.44, -1.58 98.71 M-3.52 100.95 C4.95 79.39, -2.38 57.49, -0.46 3.63 M1.63 101.73 C0.9 65.7, -1.5 31.43, 0.87 -1.32" stroke="#1e1e1e" stroke-width="2" fill="none"></path></g><g transform="translate(255 605) rotate(0 110 10)"><text x="110" y="20" font-family="Virgil, Segoe UI Emoji" font-size="16px" fill="#1e1e1e" text-anchor="middle" style="white-space: pre;" direction="ltr">CLIP Encode (+)</text></g><g stroke-linecap="round" transform="translate(630 565) rotate(0 115 50)"><path d="M-1.43 -3.51 L232.42 -0.52 L233.91 96.72 L0.11 98.36" stroke="none" stroke-width="0" fill="#e9ecef"></path><path d="M0.83 2.09 C61.82 5.9, 116.83 5.29, 227.36 -3 M1.32 0.87 C57.27 0.81, 117.91 0.87, 231.29 -0.03 M230.23 -3.9 C229.02 38.64, 227.67 77.04, 229.56 98.85 M230.76 -1.75 C230.29 24.91, 228.9 52.96, 231.97 101.76 M228.4 101.56 C178.88 104.79, 124.57 104.56, 0.52 101.55 M228.87 99.64 C152.19 102.13, 74.78 104.64, 1.34 101.27 M-3.11 102.82 C1.81 65.31, -3.35 25.07, -1.07 -2.71 M0.11 99.64 C1.29 81.7, 1.16 60.8, -0.59 1.86" stroke="#1e1e1e" stroke-width="2" fill="none"></path></g><g transform="translate(635 605) rotate(0 110 10)"><text x="110" y="20" font-family="Virgil, Segoe UI Emoji" font-size="16px" fill="#1e1e1e" text-anchor="middle" style="white-space: pre;" direction="ltr">CLIP Encode (-)</text></g><g stroke-linecap="round" transform="translate(60 315) rotate(0 115 50)"><path d="M3.67 -0.17 L227.2 0.03 L226.11 97.5 L3.92 100.1" stroke="none" stroke-width="0" fill="#e9ecef"></path><path d="M3.31 -2.14 C54.45 -3.32, 106.58 -4.5, 229.09 -3.09 M-0.95 -1.52 C74.01 3.02, 143.78 3.28, 230.87 -0.7 M228.31 -0.17 C229.52 33.15, 228.72 62.63, 233.76 98.72 M229.04 1.99 C229.45 37.29, 228.47 74.78, 229.62 101.84 M227.79 101.88 C169.17 102.6, 105.14 101.22, -0.53 99.89 M229.41 100.5 C157.54 98.6, 88.45 96.4, 0.91 100.96 M-3.42 99.07 C3.59 74.98, -2.07 46.8, 3.95 -0.5 M1.28 98.47 C2.02 79.53, 1.05 59.27, 1.62 0.9" stroke="#1e1e1e" stroke-width="2" fill="none"></path></g><g transform="translate(65 355) rotate(0 110 10)"><text x="110" y="20" font-family="Virgil, Segoe UI Emoji" font-size="16px" fill="#1e1e1e" text-anchor="middle" style="white-space: pre;" direction="ltr">Empty Latent</text></g><g stroke-linecap="round" transform="translate(440 815) rotate(0 115 50)"><path d="M-0.77 -3.73 L232.21 2.25 L233.03 100.45 L0.23 98.57" stroke="none" stroke-width="0" fill="#e9ecef"></path><path d="M-0.44 2.41 C47.32 1.95, 96.06 2.21, 228.33 1.66 M0.75 0.02 C61.47 4.79, 126.58 2.96, 230.74 0.9 M231.84 0.65 C229.58 22.28, 233.88 41.26, 231.18 97.03 M231.85 -1.52 C231.41 32.9, 230.43 66.61, 229.7 100.8 M228.82 102.52 C176.82 100.7, 120.64 103.14, 2.01 103.33 M231.2 101.41 C167.86 100.75, 103.61 99.48, 0.02 100.85 M3.73 102.14 C2.7 74.25, -1.15 49.61, 1.73 -2.6 M-1.53 99.86 C-0.26 67.63, 2.32 33.33, 0.06 -0.69" stroke="#1e1e1e" stroke-width="2" fill="none"></path></g><g transform="translate(445 853.75) rotate(0 110 11.25)"><text x="110" y="23" font-family="Virgil, Segoe UI Emoji" font-size="18px" fill="#1e1e1e" text-anchor="middle" style="white-space: pre;" direction="ltr">KSampler</text></g><g stroke-linecap="round" transform="translate(440 1065) rotate(0 115 50)"><path d="M-1.06 -3.24 L232.97 2.66 L230.01 100.06 L-0.63 102.8" stroke="none" stroke-width="0" fill="#e9ecef"></path><path d="M1.35 -3.27 C92.13 1.16, 179.56 2.71, 233.14 0.13 M0.91 0.56 C74.7 2.02, 148.47 2.83, 230.24 -0.01 M227.45 -0.12 C226.61 38.38, 226.16 76.03, 226.42 103.73 M229.76 0.92 C229.6 28.22, 230.33 60.54, 229.84 99.38 M232.1 102.03 C165.18 100.88, 102.6 104.52, 2.23 98.3 M230.97 99.08 C168.51 98.87, 110.61 98.75, -0.68 100.1 M3.58 101.29 C-3.44 72.97, 2.85 44.9, -3.94 -3.47 M1.25 100.69 C1.95 71.08, 0.23 41.41, -1.9 1.09" stroke="#1e1e1e" stroke-width="2" fill="none"></path></g><g transform="translate(445 1105) rotate(0 110 10)"><text x="110" y="20" font-family="Virgil, Segoe UI Emoji" font-size="16px" fill="#1e1e1e" text-anchor="middle" style="white-space: pre;" direction="ltr">VAE Decode</text></g><g stroke-linecap="round" transform="translate(440 1315) rotate(0 115 50)"><path d="M0.3 -3.4 L230.27 1.23 L228.77 100.83 L0.55 97.63" stroke="none" stroke-width="0" fill="#a5d8ff"></path><path d="M-1.65 -0.3 C86.82 -1.68, 169.53 -2.56, 231.17 -0.45 M0.17 -0.72 C56.46 -3.5, 113.45 -2.16, 230.69 0.45 M230.28 -1.47 C228.13 29.81, 228.24 63.84, 233.95 96.06 M230.71 1.61 C228.85 21.96, 229.16 44.14, 229.85 98.9 M232.51 102.03 C152.14 102.76, 72.29 102.35, -1.43 99.78 M230.61 99.12 C151.04 98.04, 74.24 97.17, -0.08 101 M0.91 100.97 C1.63 69.98, 0.84 40.23, -1.12 1.15 M0.37 99.38 C-1.47 72.5, 0.1 42.32, -0.74 1.7" stroke="#1971c2" stroke-width="2" fill="none"></path></g><g transform="translate(445 1353.75) rotate(0 110 11.25)"><text x="110" y="23" font-family="Virgil, Segoe UI Emoji" font-size="18px" fill="#1971c2" text-anchor="middle" style="white-space: pre;" direction="ltr">CRON Scheduler</text></g><g stroke-linecap="round" transform="translate(440 1565) rotate(0 115 50)"><path d="M-0.15 -3.88 L227.8 2.51 L228.46 101.49 L0.35 96.01" stroke="none" stroke-width="0" fill="#a5d8ff"></path><path d="M-1.97 -2.03 C63.28 0.99, 135.05 -2.64, 227.37 -1.59 M0.93 0.42 C65.58 -4.84, 132.96 -2.5, 230.19 0.71 M228.67 0.6 C226.73 30.35, 226.87 59.07, 227.81 99.87 M231.5 -0.84 C232.85 32.62, 233.49 68.88, 228.04 101.38 M228.85 98.86 C154.44 98.78, 81.07 100.82, -0.07 102.18 M230.29 101.31 C150.27 100.36, 69.02 97.68, -0.26 98.63 M-3.63 101.6 C3.29 61.5, 1.86 22.54, -0.29 -1.56 M-0.92 99.36 C1.5 76.36, 2.21 57.01, -0.51 -0.32" stroke="#1971c2" stroke-width="2" fill="none"></path></g><g transform="translate(445 1603.75) rotate(0 110 11.25)"><text x="110" y="23" font-family="Virgil, Segoe UI Emoji" font-size="18px" fill="#1971c2" text-anchor="middle" style="white-space: pre;" direction="ltr">Save As</text></g><g stroke-linecap="round"><g transform="translate(852.3166633420485 169.3969320118102) rotate(0 -107.31666334204851 70.60306798818978)"><path d="M0.57 0.99 C-35.57 24.27, -180.12 117.28, -215.8 140.83 M-0.6 0.46 C-36.47 24.42, -178.18 118.83, -213.7 142.17" stroke="#495057" stroke-width="2" fill="none"></path></g><g transform="translate(852.3166633420485 169.3969320118102) rotate(0 -107.31666334204851 70.60306798818978)"><path d="M-194.21 116.1 C-203.13 129.28, -207.62 138.32, -214.54 142.93 M-195.57 117.82 C-201.81 125.66, -206.81 131.85, -214.36 143.12" stroke="#495057" stroke-width="2" fill="none"></path></g><g transform="translate(852.3166633420485 169.3969320118102) rotate(0 -107.31666334204851 70.60306798818978)"><path d="M-182.88 133.21 C-196.33 139.85, -205.18 142.31, -214.54 142.93 M-184.24 134.93 C-193.7 137.76, -202.02 138.93, -214.36 143.12" stroke="#495057" stroke-width="2" fill="none"></path></g></g><g transform="translate(681.5 231.875) rotate(0 63.5 8.125)"><text x="63.5" y="16" font-family="Virgil, Segoe UI Emoji" font-size="13px" fill="#495057" text-anchor="middle" style="white-space: pre;" direction="ltr">topic / resolution</text></g><g stroke-linecap="round"><g transform="translate(812.400593680429 155.32875207880627) rotate(0 -257.400593680429 84.67124792119374)"><path d="M-0.8 0.99 C-86.43 29.03, -428.42 140.7, -513.89 168.88 M0.98 0.46 C-84.71 28.61, -428.57 142.24, -514.36 170.17" stroke="#495057" stroke-width="2" fill="none"></path></g><g transform="translate(812.400593680429 155.32875207880627) rotate(0 -257.400593680429 84.67124792119374)"><path d="M-489.13 153.15 C-498.25 158.79, -503.1 163.79, -513.73 169.21 M-490.12 151.81 C-496.11 155.99, -501.32 160.52, -515.28 169.64" stroke="#495057" stroke-width="2" fill="none"></path></g><g transform="translate(812.400593680429 155.32875207880627) rotate(0 -257.400593680429 84.67124792119374)"><path d="M-482.73 172.65 C-493.79 172.62, -500.49 172.01, -513.73 169.21 M-483.72 171.3 C-491.25 170.96, -497.95 170.94, -515.28 169.64" stroke="#495057" stroke-width="2" fill="none"></path></g></g><g transform="translate(504.5 231.875) rotate(0 50.5 8.125)"><text x="50.5" y="16" font-family="Virgil, Segoe UI Emoji" font-size="13px" fill="#495057" text-anchor="middle" style="white-space: pre;" direction="ltr">width / height</text></g><g stroke-linecap="round"><g transform="translate(1192.400593680429 155.32875207880627) rotate(0 -257.400593680429 84.67124792119374)"><path d="M0.95 0.48 C-84.8 28.74, -427.96 141, -514.1 168.98" stroke="#495057" stroke-width="2.5" fill="none" stroke-dasharray="8 10"></path></g><g transform="translate(1192.400593680429 155.32875207880627) rotate(0 -257.400593680429 84.67124792119374)"><path d="M-489.67 151.66 C-498.97 155.03, -507.83 162.32, -514.65 169.93" stroke="#495057" stroke-width="2.5" fill="none"></path></g><g transform="translate(1192.400593680429 155.32875207880627) rotate(0 -257.400593680429 84.67124792119374)"><path d="M-483.31 171.17 C-494.62 168.13, -505.58 168.98, -514.65 169.93" stroke="#495057" stroke-width="2.5" fill="none"></path></g></g><g transform="translate(897.5 231.875) rotate(0 37.5 8.125)"><text x="37.5" y="16" font-family="Virgil, Segoe UI Emoji" font-size="13px" fill="#495057" text-anchor="middle" style="white-space: pre;" direction="ltr">LLM_CONFIG</text></g><g stroke-linecap="round"><g transform="translate(1232.3166633420485 169.3969320118102) rotate(0 -107.31666334204851 70.60306798818978)"><path d="M-0.81 -0.66 C-36.81 22.93, -179.81 116.98, -215.42 140.55" stroke="#495057" stroke-width="2.5" fill="none" stroke-dasharray="8 10"></path></g><g transform="translate(1232.3166633420485 169.3969320118102) rotate(0 -107.31666334204851 70.60306798818978)"><path d="M-198.62 115.16 C-205.12 125.12, -211.04 134.07, -217.19 141.21" stroke="#495057" stroke-width="2.5" fill="none"></path></g><g transform="translate(1232.3166633420485 169.3969320118102) rotate(0 -107.31666334204851 70.60306798818978)"><path d="M-187.33 132.3 C-197.66 136.13, -207.56 139.05, -217.19 141.21" stroke="#495057" stroke-width="2.5" fill="none"></path></g></g><g transform="translate(1087.5 231.875) rotate(0 37.5 8.125)"><text x="37.5" y="16" font-family="Virgil, Segoe UI Emoji" font-size="13px" fill="#495057" text-anchor="middle" style="white-space: pre;" direction="ltr">LLM_CONFIG</text></g><g stroke-linecap="round"><g transform="translate(512.1593338597315 421.36929755298485) rotate(0 -52.15933385973153 68.63070244701518)"><path d="M-0.53 -1.05 C-18 22.16, -87.42 114.94, -104.92 138.09 M1.39 1.01 C-15.67 23.99, -85.08 113.93, -102.52 136.4" stroke="#495057" stroke-width="2" fill="none"></path></g><g transform="translate(512.1593338597315 421.36929755298485) rotate(0 -52.15933385973153 68.63070244701518)"><path d="M-95.15 106.82 C-94.94 114.05, -98 124.34, -103.92 134.88 M-94.1 107.96 C-97.09 119.51, -100.38 129.51, -102.95 135.58" stroke="#495057" stroke-width="2" fill="none"></path></g><g transform="translate(512.1593338597315 421.36929755298485) rotate(0 -52.15933385973153 68.63070244701518)"><path d="M-78.91 119.37 C-83.28 122.9, -91.03 129.56, -103.92 134.88 M-77.87 120.51 C-87.25 126.99, -96.9 132.05, -102.95 135.58" stroke="#495057" stroke-width="2" fill="none"></path></g></g><g transform="translate(435.5 481.875) rotate(0 24.5 8.125)"><text x="24.5" y="16" font-family="Virgil, Segoe UI Emoji" font-size="13px" fill="#495057" text-anchor="middle" style="white-space: pre;" direction="ltr">prompt</text></g><g stroke-linecap="round"><g transform="translate(597.8406661402685 421.36929755298485) rotate(0 52.15933385973153 68.63070244701518)"><path d="M-0.44 -0.94 C17.21 22.18, 87.68 114.98, 105.04 138.2 M1.53 1.17 C19.16 24.02, 87.61 114, 104.46 136.57" stroke="#495057" stroke-width="2" fill="none"></path></g><g transform="translate(597.8406661402685 421.36929755298485) rotate(0 52.15933385973153 68.63070244701518)"><path d="M77.72 121.45 C86.55 123.08, 92.59 127.17, 105.39 136.1 M78.79 120.2 C86.61 124.16, 92.58 128.79, 104.74 135.85" stroke="#495057" stroke-width="2" fill="none"></path></g><g transform="translate(597.8406661402685 421.36929755298485) rotate(0 52.15933385973153 68.63070244701518)"><path d="M94.09 109.08 C99.12 113.49, 101.4 120.41, 105.39 136.1 M95.17 107.84 C98.54 115.25, 100.06 123.25, 104.74 135.85" stroke="#495057" stroke-width="2" fill="none"></path></g></g><g transform="translate(619 481.875) rotate(0 31 8.125)"><text x="31" y="16" font-family="Virgil, Segoe UI Emoji" font-size="13px" fill="#495057" text-anchor="middle" style="white-space: pre;" direction="ltr">negative</text></g><g stroke-linecap="round"><g transform="translate(407.84066614026847 671.3692975529848) rotate(0 52.15933385973153 68.63070244701521)"><path d="M1.07 -0.78 C18.62 22.33, 87.84 115.21, 104.95 138.41 M0.17 1.43 C17.65 24.25, 87.25 114.35, 104.34 136.9" stroke="#495057" stroke-width="2" fill="none"></path></g><g transform="translate(407.84066614026847 671.3692975529848) rotate(0 52.15933385973153 68.63070244701521)"><path d="M77.76 121.82 C87.72 123.94, 94.53 127.56, 102.74 137.78 M79.51 121.22 C85.44 123.72, 91.56 129.66, 104.02 136.73" stroke="#495057" stroke-width="2" fill="none"></path></g><g transform="translate(407.84066614026847 671.3692975529848) rotate(0 52.15933385973153 68.63070244701521)"><path d="M94.05 109.34 C99.63 114.95, 102.07 121.91, 102.74 137.78 M95.8 108.74 C97.52 114.5, 99.5 123.62, 104.02 136.73" stroke="#495057" stroke-width="2" fill="none"></path></g></g><g stroke-linecap="round"><g transform="translate(702.1593338597315 671.3692975529848) rotate(0 -52.15933385973153 68.63070244701521)"><path d="M0.32 -0.5 C-16.81 22.72, -86.21 115.29, -103.81 138.17 M-0.97 -1.81 C-18.12 21.19, -87.5 113.25, -104.49 136.52" stroke="#495057" stroke-width="2" fill="none"></path></g><g transform="translate(702.1593338597315 671.3692975529848) rotate(0 -52.15933385973153 68.63070244701521)"><path d="M-96.74 108.63 C-96.51 112.33, -100.69 121.46, -106.33 137.26 M-95.63 107.63 C-99.17 116.15, -101.16 124.78, -103.99 137.04" stroke="#495057" stroke-width="2" fill="none"></path></g><g transform="translate(702.1593338597315 671.3692975529848) rotate(0 -52.15933385973153 68.63070244701521)"><path d="M-80.27 120.87 C-83.44 122, -91.13 128.52, -106.33 137.26 M-79.16 119.87 C-87.56 124.69, -94.34 129.78, -103.99 137.04" stroke="#495057" stroke-width="2" fill="none"></path></g></g><g stroke-linecap="round"><g transform="translate(217.84066614026847 421.36929755298485) rotate(0 147.15933385973153 193.63070244701518)"><path d="M0.65 -1.16 C49.89 63.35, 245.86 322.99, 294.97 387.84 M-0.47 0.84 C48.71 64.93, 245.1 321.83, 294.37 386.01" stroke="#495057" stroke-width="2" fill="none"></path></g><g transform="translate(217.84066614026847 421.36929755298485) rotate(0 147.15933385973153 193.63070244701518)"><path d="M267.14 370.96 C276.75 375.68, 283.52 379.78, 293.82 384.25 M269.12 369.42 C274.67 373.4, 281.66 378.08, 293.84 385.7" stroke="#495057" stroke-width="2" fill="none"></path></g><g transform="translate(217.84066614026847 421.36929755298485) rotate(0 147.15933385973153 193.63070244701518)"><path d="M283.44 358.49 C288.86 366.55, 291.38 373.92, 293.82 384.25 M285.41 356.95 C287.01 363.88, 290.02 371.61, 293.84 385.7" stroke="#495057" stroke-width="2" fill="none"></path></g></g><g stroke-linecap="round"><g transform="translate(555 923) rotate(0 0 67)"><path d="M0.45 -0.24 C0.44 22.07, -1.04 112.08, -1.07 134.39 M-0.78 -1.41 C-0.34 20.48, 1.01 109.77, 1.09 132.48" stroke="#495057" stroke-width="2" fill="none"></path></g><g transform="translate(555 923) rotate(0 0 67)"><path d="M-9.86 102.62 C-6.39 110.93, -5.31 118.19, 0.41 133.12 M-8.89 104.31 C-5.78 114.87, -0.84 124.36, 1.27 133.34" stroke="#495057" stroke-width="2" fill="none"></path></g><g transform="translate(555 923) rotate(0 0 67)"><path d="M10.66 102.41 C9.69 110.84, 6.34 118.15, 0.41 133.12 M11.63 104.1 C7.41 114.84, 5.02 124.4, 1.27 133.34" stroke="#495057" stroke-width="2" fill="none"></path></g></g><g stroke-linecap="round"><g transform="translate(555 1173) rotate(0 0 67)"><path d="M0.44 0.17 C0.2 22.65, -1.05 112.23, -1.11 134.47 M-0.79 -0.79 C-0.7 21.37, 0.99 110.01, 1.02 132.59" stroke="#495057" stroke-width="2" fill="none"></path></g><g transform="translate(555 1173) rotate(0 0 67)"><path d="M-9.28 102.67 C-5.41 113.9, -3.38 121.34, 0.68 131.53 M-10.44 105.3 C-7.54 110.31, -4.9 115.46, 0.62 132.4" stroke="#495057" stroke-width="2" fill="none"></path></g><g transform="translate(555 1173) rotate(0 0 67)"><path d="M11.24 102.44 C8.38 113.82, 3.66 121.34, 0.68 131.53 M10.08 105.07 C8.65 110.12, 6.97 115.32, 0.62 132.4" stroke="#495057" stroke-width="2" fill="none"></path></g></g><g transform="translate(533.75 1231.875) rotate(0 21.25 8.125)"><text x="21.25" y="16" font-family="Virgil, Segoe UI Emoji" font-size="13px" fill="#495057" text-anchor="middle" style="white-space: pre;" direction="ltr">image</text></g><g stroke-linecap="round"><g transform="translate(555 1423) rotate(0 0 67)"><path d="M-0.96 -0.77 C-0.98 21.8, -1.32 112.27, -1.19 134.8 M0.73 1.44 C1.16 23.74, 1.19 111.28, 0.89 133.1" stroke="#495057" stroke-width="2" fill="none"></path></g><g transform="translate(555 1423) rotate(0 0 67)"><path d="M-10.5 102.87 C-5.93 110.5, -4.4 117.95, 1.12 133.58 M-8.71 104.58 C-5.41 114.02, -3.42 123.18, 1.48 133.69" stroke="#495057" stroke-width="2" fill="none"></path></g><g transform="translate(555 1423) rotate(0 0 67)"><path d="M10.02 102.98 C10.33 110.43, 7.6 117.85, 1.12 133.58 M11.81 104.68 C8.59 114.24, 4.06 123.36, 1.48 133.69" stroke="#495057" stroke-width="2" fill="none"></path></g></g><g transform="translate(514.25 1481.875) rotate(0 40.75 8.125)"><text x="40.75" y="16" font-family="Virgil, Segoe UI Emoji" font-size="13px" fill="#495057" text-anchor="middle" style="white-space: pre;" direction="ltr">passthrough</text></g></svg>