<svg version="1.1" xmlns="http://www.w3.org/2000/svg" viewBox="0 0 2070 1785" width="2070" height="1785">
  <!-- svg-source:excalidraw -->
  
  <defs>
    <style>
      @font-face {
        font-family: "Virgil";
        src: url("https://excalidraw.com/Virgil.woff2");
      }
      @font-face {
        font-family: "Cascadia";
        src: url("https://excalidraw.com/Cascadia.woff2");
      }
    </style>
  </defs>
  <rect x="0" y="0" width="2070" height="1785" fill="#ffffff"></rect><g transform="translate(418 10) rotate(0 167 15)"><text x="167" y="30" font-family="Virgil, Segoe UI Emoji" font-size="24px" fill="#1e1e1e" text-anchor="middle" style="white-space: pre;" direction="ltr">ComfyUI Pipeline Automation</text></g><g stroke-opacity="0.3" fill-opacity="0.3" stroke-linecap="round" transform="translate(960 60) rotate(0 550 107.5)"><path d="M1.56 -0.72 L1099.81 -3.88 L1103.51 213.81 L0.88 217.17" stroke="none" stroke-width="0" fill="#e9ecef"></path><path d="M-0.01 0.02 C255.16 -7.63, 511.99 -7.33, 1101.43 -1.57 M1100.08 -2.14 C1100.88 84.19, 1098.76 164.21, 1102.83 212.51 M1098.69 216.38 C692.21 210.42, 286.46 210.24, -0.36 215.37 M0.68 216.54 C-3.04 130.43, 0.07 49.68, -1.45 -2.27" stroke="#868e96" stroke-width="2.5" fill="none" stroke-dasharray="8 10"></path></g><g transform="translate(960 70) rotate(0 5 10)"><text x="0" y="20" font-family="Virgil, Segoe UI Emoji" font-size="16px" fill="#868e96" text-anchor="start" style="white-space: pre;" direction="ltr">Config &amp; Input</text></g><g stroke-opacity="0.3" fill-opacity="0.3" stroke-linecap="round" transform="translate(390 310) rotate(0 360 107.5)"><path d="M-1.69 -1.54 L722.52 -2.11 L723.54 213.4 L3.09 212.58" stroke="none" stroke-width="0" fill="#f3f0ff"></path><path d="M-0.23 1.2 C256.32 -3.44, 509.32 -1.6, 720.29 1.39 M721.9 1.9 C717.45 58.49, 716.26 117.35, 721.99 216.24 M720.24 213.41 C517.45 213.66, 317.08 213.11, -0.26 214.1 M2.24 218.05 C0.25 156.9, -1.82 92.34, -2.29 -0.4" stroke="#7048e8" stroke-width="2.5" fill="none" stroke-dasharray="8 10"></path></g><g transform="translate(390 320) rotate(0 5 10)"><text x="0" y="20" font-family="Virgil, Segoe UI Emoji" font-size="16px" fill="#7048e8" text-anchor="start" style="white-space: pre;" direction="ltr">Prompt Generation</text></g><g stroke-opacity="0.3" fill-opacity="0.3" stroke-linecap="round" transform="translate(10 310) rotate(0 455 482.5)"><path d="M-2.68 0.31 L911.28 -2.76 L912.45 965.57 L-2.93 963.31" stroke="none" stroke-width="0" fill="#e7f5ff"></path><path d="M1.41 0.49 C338.73 -2.3, 676.58 -0.46, 909.91 -1.05 M909.1 0.19 C911.27 378.11, 911.13 757.22, 909.57 963.74 M908.79 966.52 C642.6 966.91, 375.71 964.17, -0.51 965.13 M-1.12 965.54 C-3.26 724.49, -2 485.31, -0.29 -0.54" stroke="#1971c2" stroke-width="2.5" fill="none" stroke-dasharray="8 10"></path></g><g transform="translate(10 320) rotate(0 5 10)"><text x="0" y="20" font-family="Virgil, Segoe UI Emoji" font-size="16px" fill="#1971c2" text-anchor="start" style="white-space: pre;" direction="ltr">ComfyUI Diffusion</text></g><g stroke-opacity="0.3" fill-opacity="0.3" stroke-linecap="round" transform="translate(390 1310) rotate(0 170 232.5)"><path d="M-0.63 -2.4 L343.92 -2.77 L338.41 468.06 L-0.09 462.15" stroke="none" stroke-width="0" fill="#ebfbee"></path><path d="M2.19 1.24 C76.95 0.78, 149.51 0.81, 339.77 0.72 M339.47 0.25 C341.01 153.17, 342.63 307.39, 340.44 464.37 M341.39 464.24 C233.17 460.12, 121.57 462.57, 0.85 465.49 M-1.44 464.03 C-2.33 291.77, -2.98 117.71, 0.23 -1.14" stroke="#2f9e44" stroke-width="2.5" fill="none" stroke-dasharray="8 10"></path></g><g transform="translate(390 1320) rotate(0 5 10)"><text x="0" y="20" font-family="Virgil, Segoe UI Emoji" font-size="16px" fill="#2f9e44" text-anchor="start" style="white-space: pre;" direction="ltr">Scheduling &amp; Output</text></g><g stroke-linecap="round" transform="translate(1010 115) rotate(0 115 50)"><path d="M0.95 -3.92 L227.76 3.99 L230.26 103.1 L0.34 99.51" stroke="none" stroke-width="0" fill="#a5d8ff"></path><path d="M-2.16 2.44 C73.59 -4.48, 148.09 -1.81, 228.63 2.11 M-0.05 1.46 C58.72 -2.63, 116.41 -4.48, 229.31 -1.07 M226.47 -0.13 C225.84 21.47, 227.13 47.55, 229.22 102.55 M230.07 -0.28 C232.8 38.76, 233.17 76.88, 231.43 98.21 M231.65 98.57 C152.04 104.82, 80.38 103.39, -1.49 96.76 M230.46 100.52 C146.21 104.36, 62.82 103.57, -0.77 99.48 M2.25 100.79 C3.51 77.33, -1.82 53.04, -0.38 3.82 M1.88 100.47 C-1.73 62.83, 0.34 24.05, -1.27 -1.46" stroke="#1971c2" stroke-width="2" fill="none"></path></g><g transform="translate(1015 155) rotate(0 110 10)"><text x="110" y="20" font-family="Virgil, Segoe UI Emoji" font-size="16px" fill="#1971c2" text-anchor="middle" style="white-space: pre;" direction="ltr">Gap Scanner</text></g><g stroke-linecap="round" transform="translate(1390 115) rotate(0 115 50)"><path d="M-1.65 2.18 L227.61 0.39 L233.27 97.59 L0.71 98.95" stroke="none" stroke-width="0" fill="#d0bfff"></path><path d="M-2.21 1.33 C71.31 -4.6, 137.17 -2.07, 227.97 1.68 M-1.59 -1.05 C65.27 -2.03, 133.81 -1.64, 230.36 -1.54 M228.34 3 C230.04 22.7, 231.69 42.6, 230.12 97.92 M229.06 1.9 C230.02 36.15, 228.8 72.89, 229.55 101.25 M228.08 100.29 C162.16 99.12, 97.61 101.81, 2.17 100.15 M228.91 101.55 C139.49 103.44, 49 101.24, 0.56 98.72 M2.47 102.54 C-4.39 77.36, -0.32 54.37, -0.98 3.68 M-0.96 100.16 C-0.2 65.55, 0.3 30.94, -1.88 0.99" stroke="#7048e8" stroke-width="2" fill="none"></path></g><g transform="translate(1395 155) rotate(0 110 10)"><text x="110" y="20" font-family="Virgil, Segoe UI Emoji" font-size="16px" fill="#7048e8" text-anchor="middle" style="white-space: pre;" direction="ltr">LLM Config</text></g><g stroke-linecap="round" transform="translate(1770 115) rotate(0 115 50)"><path d="M0.82 0.68 L232.72 -1.99 L229.39 99.37 L3 102.78" stroke="none" stroke-width="0" fill="#fcc2d7"></path><path d="M0.01 -0.94 C70.72 3.72, 149.72 1.14, 228.71 -0.15 M-1.06 -1.11 C61.53 -0.19, 121.6 1.86, 231.18 1.53 M233.15 -2.38 C232.27 31.36, 227.62 64.29, 229 97.48 M230 -0.74 C229.8 27.26, 229.33 53, 229.55 98.47 M232.1 103.35 C173.46 96.16, 110.16 101.46, 2.78 99.15 M228.45 98.52 C166.67 96.77, 106.62 98.36, 0 98.71 M-0.3 98.43 C0.5 63.45, -1.88 19.1, -3.74 -2.12 M-1.12 98.39 C3.42 67.29, 2.57 38.91, 0.43 1.41" stroke="#c2255c" stroke-width="2" fill="none"></path></g><g transform="translate(1775 155) rotate(0 110 10)"><text x="110" y="20" font-family="Virgil, Segoe UI Emoji" font-size="16px" fill="#c2255c" text-anchor="middle" style="white-space: pre;" direction="ltr">Bulk Prompter</text></g><g stroke-linecap="round" transform="translate(440 365) rotate(0 115 50)"><path d="M-0.06 3.04 L233.77 3.23 L229.04 97.61 L-3.99 102.48" stroke="none" stroke-width="0" fill="#a5d8ff"></path><path d="M0.58 1.72 C88.37 1.47, 174.52 3.49, 228.97 2.43 M0.26 -1.12 C54.62 1.29, 108.62 1.64, 229.07 -0.05 M229.16 0.73 C229.28 40.36, 227.81 78.85, 230.03 101.99 M229.19 0.78 C229.61 32.83, 232.09 62.34, 230.73 99.42 M232.87 99.16 C144.93 95.81, 60.47 97.62, 0.74 97.08 M231.08 99.61 C176.5 99.17, 120.34 100.43, -1.5 99.86 M0.29 98.27 C-1.21 61.97, -4.14 24.3, 2.38 3.38 M-0.09 98.03 C-1.46 72.4, 2.29 49.52, -0.02 -1.7" stroke="#1971c2" stroke-width="2" fill="none"></path></g><g transform="translate(445 405) rotate(0 110 10)"><text x="110" y="20" font-family="Virgil, Segoe UI Emoji" font-size="16px" fill="#1971c2" text-anchor="middle" style="white-space: pre;" direction="ltr">Prompt Generator</text></g><g stroke-linecap="round" transform="translate(820 365) rotate(0 115 50)"><path d="M2.07 3.51 L230 3.34 L231.82 100.21 L2.84 99.22" stroke="none" stroke-width="0" fill="#d0bfff"></path><path d="M2.35 0.5 C45.45 -2.02, 100.43 -1.95, 230.65 1.57 M0.46 -0.3 C86.21 -1.61, 167.95 -0.39, 230.94 1.24 M227.43 1.62 C234.25 30.92, 230.9 69.74, 231.32 97.48 M229.79 0.44 C230.43 22.58, 228.42 47.82, 229.98 100.41 M231.61 100.37 C177.13 96.43, 116.96 100.33, -2.85 102.71 M230.61 99.88 C144.36 102.41, 56.77 104.25, 1.32 100.27 M-3.31 101.87 C-0.62 76.55, 2.24 60.64, -3.6 1.23 M-1.97 101.12 C-1.46 66.85, -0.69 36.22, -1.42 0.59" stroke="#7048e8" stroke-width="2" fill="none"></path></g><g transform="translate(825 405) rotate(0 110 10)"><text x="110" y="20" font-family="Virgil, Segoe UI Emoji" font-size="16px" fill="#7048e8" text-anchor="middle" style="white-space: pre;" direction="ltr">API Call</text></g><g stroke-linecap="round" transform="translate(250 615) rotate(0 115 50)"><path d="M-3.43 -3.15 L227.38 1.54 L227.48 101.83 L-3.25 103.26" stroke="none" stroke-width="0" fill="#e9ecef"></path><path d="M3.16 1.29 C84.76 -1.94, 172.99 -0.82, 228.4 0.4 M-1.56 -0.86 C85.74 -1.46, 170.43 -0.62, 228.96 0.37 M230 2.89 C230.19 39.65, 228.79 76.27, 229.32 100.16 M228.59 1.48 C227.31 40.18, 229.92 78.24, 231.4 99.17 M232.65 101.09 C168.24 98.2, 106.24 96.55, -0.3 97.94 M228.8 98.6 C152.81 100.61, 74.91 100.18, 1.17 98.92 M1.91 99.6 C4.57 76.04, 0.72 44.74, -3.24 -0.15 M0.79 101.82 C0.16 69.01, 1.85 35.51, 0.42 1.78" stroke="#1e1e1e" stroke-width="2" fill="none"></path></g><g transform="translate(255 655) rotate(0 110 10)"><text x="110" y="20" font-family="Virgil, Segoe UI Emoji" font-size="16px" fill="#1e1e1e" text-anchor="middle" style="white-space: pre;" direction="ltr">CLIP Encode (+)</text></g><g stroke-linecap="round" transform="translate(630 615) rotate(0 115 50)"><path d="M-0.68 0.81 L228.04 2.71 L233.08 99.7 L0.8 98.14" stroke="none" stroke-width="0" fill="#e9ecef"></path><path d="M1.36 0.19 C91.34 -2.78, 183.63 1.28, 227.78 -0.86 M-1.63 -1.35 C84.93 -0.12, 167.23 -2.01, 231.54 1.52 M226.12 1.88 C232.87 25.83, 234.76 48.6, 226.66 96.1 M230.05 -1.44 C229.69 27.72, 231.47 56.31, 228.74 98.42 M230.73 99.48 C175.86 105.71, 117.71 106.17, 2.44 98.78 M229.8 101.45 C154.72 101.64, 78.69 102.23, 0.76 101.3 M3.09 101.25 C1.86 79.75, -1.17 56.38, 3.28 -3.37 M0.53 98.23 C-2.68 61.4, -2.41 22.65, 1.23 -1.02" stroke="#1e1e1e" stroke-width="2" fill="none"></path></g><g transform="translate(635 655) rotate(0 110 10)"><text x="110" y="20" font-family="Virgil, Segoe UI Emoji" font-size="16px" fill="#1e1e1e" text-anchor="middle" style="white-space: pre;" direction="ltr">CLIP Encode (-)</text></g><g stroke-linecap="round" transform="translate(60 365) rotate(0 115 50)"><path d="M1.05 0.02 L227.04 3.76 L227.66 98.69 L-2.79 96.39" stroke="none" stroke-width="0" fill="#e9ecef"></path><path d="M3.04 3.31 C76.39 -1.51, 154.31 2.01, 233.17 3.39 M0.32 0.92 C72.41 -4.39, 141.5 -2.47, 230 -0.01 M230.81 3.87 C227.29 19.13, 231.64 43.95, 231.64 100.46 M229.78 -1.29 C227.46 18.93, 228.5 41.79, 229.82 99.51 M232.62 98.47 C151.23 98.4, 65.77 99.35, -1.6 98.46 M230.5 100.16 C142.49 100.23, 55.86 100.7, 1.13 101.38 M2.21 96.53 C-2.38 66.4, 1.98 30.17, -2.09 -0.19 M1.86 101.73 C0.02 62.88, -2.24 29.38, 0.46 -0.22" stroke="#1e1e1e" stroke-width="2" fill="none"></path></g><g transform="translate(65 405) rotate(0 110 10)"><text x="110" y="20" font-family="Virgil, Segoe UI Emoji" font-size="16px" fill="#1e1e1e" text-anchor="middle" style="white-space: pre;" direction="ltr">Empty Latent</text></g><g stroke-linecap="round" transform="translate(440 865) rotate(0 115 50)"><path d="M-0.51 -0.48 L228.94 0.9 L232.59 101.47 L-1.46 101.35" stroke="none" stroke-width="0" fill="#e9ecef"></path><path d="M2.64 1.45 C74.2 0.57, 152.01 0.81, 230.27 0.71 M1.14 -1.36 C51.11 -2.2, 101.97 -2.54, 228.96 -1.25 M230.46 -1.07 C229.1 25.09, 230.85 54.33, 233.55 96.82 M229.06 0.92 C229.46 26.72, 232.36 53.11, 229.33 100.54 M227.04 98.49 C176.3 104.32, 118.82 99.99, -3.28 103.32 M229.64 101.63 C153.77 98.55, 75.65 98.89, 0.34 99.95 M2.86 96.4 C-4.81 75.34, -1.3 53.68, 2.81 0.92 M-0.15 101.95 C0.07 64.87, 2.66 27.12, -1.44 -0.92" stroke="#1e1e1e" stroke-width="2" fill="none"></path></g><g transform="translate(445 905) rotate(0 110 10)"><text x="110" y="20" font-family="Virgil, Segoe UI Emoji" font-size="16px" fill="#1e1e1e" text-anchor="middle" style="white-space: pre;" direction="ltr">KSampler</text></g><g stroke-linecap="round" transform="translate(440 1115) rotate(0 115 50)"><path d="M0.72 2.95 L228.52 -2.22 L227.96 103.79 L2.21 102.62" stroke="none" stroke-width="0" fill="#e9ecef"></path><path d="M2.66 1.33 C93.36 2.13, 180.55 1.93, 231.08 1.51 M1.1 0.69 C84.08 1.5, 168.5 1.34, 231.51 -1.59 M233.77 1.87 C226.32 40.26, 231.65 76.84, 233.75 99 M230.05 1.67 C228.53 29.65, 228.76 59.64, 229.29 98.19 M233.16 99.82 C174.94 94.26, 117.5 98.11, 2.43 99.42 M231.58 99.59 C160.45 98.09, 92.71 97.07, -0.09 100.4 M-2.01 102.4 C-3.47 67.8, 1.36 30.78, -0.91 2.18 M-1.57 101.37 C-0.56 68.26, -2.04 33.57, -0.96 0.83" stroke="#1e1e1e" stroke-width="2" fill="none"></path></g><g transform="translate(445 1155) rotate(0 110 10)"><text x="110" y="20" font-family="Virgil, Segoe UI Emoji" font-size="16px" fill="#1e1e1e" text-anchor="middle" style="white-space: pre;" direction="ltr">VAE Decode</text></g><g stroke-linecap="round" transform="translate(440 1365) rotate(0 115 50)"><path d="M0.93 -3.53 L233.29 -3.04 L230.08 101.33 L-1.44 100.56" stroke="none" stroke-width="0" fill="#a5d8ff"></path><path d="M-1.96 -3.33 C88.68 -2.48, 179.79 -1.66, 229.16 2.75 M-0.89 -0.22 C68.69 -0.1, 134.06 2.69, 231.32 -0.14 M226.44 -0.49 C229.73 32.13, 230.33 57.95, 227.24 102.26 M231.31 1.31 C229.25 22.05, 227.98 41.68, 229.63 100.85 M230.87 99.46 C177.98 97.04, 129.1 98.46, 0.52 98 M231.05 101.17 C138.28 103.72, 49.53 103.54, 1.25 100.44 M1.63 102.71 C-1.39 78.48, 4.02 56.8, 3.84 -0.07 M-1.51 99.53 C0 65.03, 1.83 24.99, 0.62 0.68" stroke="#1971c2" stroke-width="2" fill="none"></path></g><g transform="translate(445 1405) rotate(0 110 10)"><text x="110" y="20" font-family="Virgil, Segoe UI Emoji" font-size="16px" fill="#1971c2" text-anchor="middle" style="white-space: pre;" direction="ltr">CRON Scheduler</text></g><g stroke-linecap="round" transform="translate(440 1615) rotate(0 115 50)"><path d="M-2.82 -2.89 L230.04 -0.96 L232.25 99.31 L-3.43 96.82" stroke="none" stroke-width="0" fill="#a5d8ff"></path><path d="M2.45 -1.55 C67.52 4.23, 138.4 2.6, 230.02 0.01 M-1.54 -0.76 C79.79 -0.19, 164.07 -2.08, 231.65 1.63 M232.61 -0.88 C233.55 26.75, 234.17 49.95, 226.02 99.11 M230.93 -1.36 C230.88 21.67, 229.49 41.52, 231.2 100.72 M231.42 97.55 C156.41 99.15, 84.49 100.21, 2.6 98.28 M230.22 100.56 C149.54 101.47, 68.58 102.13, 1.32 99.98 M-0.5 101.24 C-1.24 75.92, -5.17 57.13, -0.93 -0.1 M-1.12 99.76 C-1.09 62.17, -1.2 25.66, -0.22 -1.6" stroke="#1971c2" stroke-width="2" fill="none"></path></g><g transform="translate(445 1655) rotate(0 110 10)"><text x="110" y="20" font-family="Virgil, Segoe UI Emoji" font-size="16px" fill="#1971c2" text-anchor="middle" style="white-space: pre;" direction="ltr">Save As</text></g><g stroke-linecap="round"><g transform="translate(1003.6736943296485 218.21329196068052) rotate(0 -163.67369432964847 71.78670803931948)"><path d="M-0.25 0.08 C-54.92 24.34, -272.43 120.63, -327.15 144.48 M1.82 -0.93 C-53.07 23.11, -273.31 118.63, -327.99 142.84" stroke="#495057" stroke-width="2" fill="none"></path></g><g transform="translate(1003.6736943296485 218.21329196068052) rotate(0 -163.67369432964847 71.78670803931948)"><path d="M-306.15 122.47 C-313.04 127.84, -323.28 138.82, -326.39 143.14 M-306.24 122.72 C-313.93 129.71, -321.35 136.2, -327.86 143.6" stroke="#495057" stroke-width="2" fill="none"></path></g><g transform="translate(1003.6736943296485 218.21329196068052) rotate(0 -163.67369432964847 71.78670803931948)"><path d="M-297.92 141.27 C-307.71 139.62, -321.01 143.59, -326.39 143.14 M-298.01 141.52 C-308.43 142.35, -318.56 142.66, -327.86 143.6" stroke="#495057" stroke-width="2" fill="none"></path></g></g><g transform="translate(776.5 281.875) rotate(0 63.5 8.125)"><text x="63.5" y="16" font-family="Virgil, Segoe UI Emoji" font-size="13px" fill="#495057" text-anchor="middle" style="white-space: pre;" direction="ltr">topic / resolution</text></g><g stroke-linecap="round"><g transform="translate(1002.2634037018988 197.299104288974) rotate(0 -352.2634037018988 92.700895711026)"><path d="M0.49 0.09 C-117.08 30.95, -588.13 153.95, -705.5 184.71 M-0.72 -0.91 C-117.91 30.14, -586.07 154.8, -703.3 185.88" stroke="#495057" stroke-width="2" fill="none"></path></g><g transform="translate(1002.2634037018988 197.299104288974) rotate(0 -352.2634037018988 92.700895711026)"><path d="M-678.54 167.1 C-687.13 175.2, -694.46 177.33, -704.55 184.83 M-678.93 168.86 C-687.3 176.02, -697.96 181.24, -703.76 185.31" stroke="#495057" stroke-width="2" fill="none"></path></g><g transform="translate(1002.2634037018988 197.299104288974) rotate(0 -352.2634037018988 92.700895711026)"><path d="M-673.27 186.94 C-683.33 189.23, -692.21 185.54, -704.55 184.83 M-673.66 188.69 C-683.99 188.2, -696.7 185.76, -703.76 185.31" stroke="#495057" stroke-width="2" fill="none"></path></g></g><g transform="translate(599.5 281.875) rotate(0 50.5 8.125)"><text x="50.5" y="16" font-family="Virgil, Segoe UI Emoji" font-size="13px" fill="#495057" text-anchor="middle" style="white-space: pre;" direction="ltr">width / height</text></g><g stroke-linecap="round"><g transform="translate(1382.2634037018988 197.299104288974) rotate(0 -352.2634037018988 92.700895711026)"><path d="M1.15 0.34 C-116.19 31.15, -587.4 154.94, -705.12 185.94" stroke="#495057" stroke-width="2.5" fill="none" stroke-dasharray="8 10"></path></g><g transform="translate(1382.2634037018988 197.299104288974) rotate(0 -352.2634037018988 92.700895711026)"><path d="M-679.9 167.85 C-684.64 171.59, -689.27 177.93, -704.68 187.81" stroke="#495057" stroke-width="2.5" fill="none"></path></g><g transform="translate(1382.2634037018988 197.299104288974) rotate(0 -352.2634037018988 92.700895711026)"><path d="M-674.69 187.7 C-680.7 187.29, -686.43 189.44, -704.68 187.81" stroke="#495057" stroke-width="2.5" fill="none"></path></g></g><g transform="translate(992.5 281.875) rotate(0 37.5 8.125)"><text x="37.5" y="16" font-family="Virgil, Segoe UI Emoji" font-size="13px" fill="#495057" text-anchor="middle" style="white-space: pre;" direction="ltr">LLM_CONFIG</text></g><g stroke-linecap="round"><g transform="translate(1383.6736943296482 218.21329196068052) rotate(0 -163.67369432964836 71.78670803931948)"><path d="M1.1 0.77 C-53.49 24.95, -272.21 120.55, -326.76 144.24" stroke="#495057" stroke-width="2.5" fill="none" stroke-dasharray="8 10"></path></g><g transform="translate(1383.6736943296482 218.21329196068052) rotate(0 -163.67369432964836 71.78670803931948)"><path d="M-303.74 124.56 C-312.03 133.28, -322.16 137.09, -328.66 145.18" stroke="#495057" stroke-width="2.5" fill="none"></path></g><g transform="translate(1383.6736943296482 218.21329196068052) rotate(0 -163.67369432964836 71.78670803931948)"><path d="M-295.54 143.37 C-306.7 145.26, -319.85 142.16, -328.66 145.18" stroke="#495057" stroke-width="2.5" fill="none"></path></g></g><g transform="translate(1182.5 281.875) rotate(0 37.5 8.125)"><text x="37.5" y="16" font-family="Virgil, Segoe UI Emoji" font-size="13px" fill="#495057" text-anchor="middle" style="white-space: pre;" direction="ltr">LLM_CONFIG</text></g><g stroke-linecap="round"><g transform="translate(512.1593338597315 471.36929755298485) rotate(0 -52.15933385973153 68.63070244701518)"><path d="M0.16 -0.8 C-17.25 22, -85.71 114.98, -103.25 137.86 M-1.22 1.4 C-18.79 24.36, -86.74 113.38, -103.63 136.05" stroke="#495057" stroke-width="2" fill="none"></path></g><g transform="translate(512.1593338597315 471.36929755298485) rotate(0 -52.15933385973153 68.63070244701518)"><path d="M-96.15 109.16 C-97.09 117.57, -102.84 129.38, -103.28 137.3 M-94.62 106.77 C-96.39 116.74, -100.21 124.57, -104.12 136.24" stroke="#495057" stroke-width="2" fill="none"></path></g><g transform="translate(512.1593338597315 471.36929755298485) rotate(0 -52.15933385973153 68.63070244701518)"><path d="M-79.78 121.53 C-87.37 125.02, -99.66 131.89, -103.28 137.3 M-78.25 119.15 C-84.92 125.5, -93.6 129.66, -104.12 136.24" stroke="#495057" stroke-width="2" fill="none"></path></g></g><g transform="translate(435.5 531.875) rotate(0 24.5 8.125)"><text x="24.5" y="16" font-family="Virgil, Segoe UI Emoji" font-size="13px" fill="#495057" text-anchor="middle" style="white-space: pre;" direction="ltr">prompt</text></g><g stroke-linecap="round"><g transform="translate(597.8406661402685 471.36929755298485) rotate(0 52.15933385973153 68.63070244701518)"><path d="M0.69 -0.66 C18.07 22.15, 87.95 114.58, 105.39 137.44 M-0.41 1.6 C16.81 24.58, 87.41 116.43, 105.01 139.07" stroke="#495057" stroke-width="2" fill="none"></path></g><g transform="translate(597.8406661402685 471.36929755298485) rotate(0 52.15933385973153 68.63070244701518)"><path d="M78.55 124.81 C89.93 130.89, 98.28 135.32, 103.04 138.45 M80.46 123.6 C90.34 128.46, 100.19 136.39, 105.56 139.82" stroke="#495057" stroke-width="2" fill="none"></path></g><g transform="translate(597.8406661402685 471.36929755298485) rotate(0 52.15933385973153 68.63070244701518)"><path d="M94.8 112.27 C99.89 123.34, 101.9 132.67, 103.04 138.45 M96.71 111.07 C100.29 120.93, 103.79 133.76, 105.56 139.82" stroke="#495057" stroke-width="2" fill="none"></path></g></g><g transform="translate(619 531.875) rotate(0 31 8.125)"><text x="31" y="16" font-family="Virgil, Segoe UI Emoji" font-size="13px" fill="#495057" text-anchor="middle" style="white-space: pre;" direction="ltr">negative</text></g><g stroke-linecap="round"><g transform="translate(407.84066614026847 721.3692975529848) rotate(0 52.15933385973153 68.63070244701521)"><path d="M0.07 -0.05 C17.57 22.68, 86.52 113.9, 104.05 136.83 M-1.35 -1.12 C16.04 21.73, 85.24 114.78, 102.96 138.14" stroke="#495057" stroke-width="2" fill="none"></path></g><g transform="translate(407.84066614026847 721.3692975529848) rotate(0 52.15933385973153 68.63070244701521)"><path d="M77.75 121.3 C82.79 126.94, 89.59 130.28, 101.46 138.71 M77.61 122.73 C88 127.4, 95.42 133.81, 103.56 138.93" stroke="#495057" stroke-width="2" fill="none"></path></g><g transform="translate(407.84066614026847 721.3692975529848) rotate(0 52.15933385973153 68.63070244701521)"><path d="M94.17 108.99 C95.59 117.39, 98.72 123.47, 101.46 138.71 M94.03 110.42 C98.52 119.64, 99.99 130.5, 103.56 138.93" stroke="#495057" stroke-width="2" fill="none"></path></g></g><g stroke-linecap="round"><g transform="translate(702.1593338597315 721.3692975529848) rotate(0 -52.15933385973153 68.63070244701521)"><path d="M-1.15 -0.19 C-18.38 22.73, -86.15 115.33, -103.4 138.32 M0.45 -1.33 C-16.86 21.21, -86.19 113.91, -103.86 136.76" stroke="#495057" stroke-width="2" fill="none"></path></g><g transform="translate(702.1593338597315 721.3692975529848) rotate(0 -52.15933385973153 68.63070244701521)"><path d="M-95.31 109.64 C-95.7 116.15, -99.25 125.91, -105.08 136.51 M-94.51 108.01 C-98.56 120.11, -102.63 131.05, -103.09 136.34" stroke="#495057" stroke-width="2" fill="none"></path></g><g transform="translate(702.1593338597315 721.3692975529848) rotate(0 -52.15933385973153 68.63070244701521)"><path d="M-78.96 122.05 C-84.37 124.66, -92.84 130.67, -105.08 136.51 M-78.16 120.42 C-88.48 127.63, -98.9 133.76, -103.09 136.34" stroke="#495057" stroke-width="2" fill="none"></path></g></g><g stroke-linecap="round"><g transform="translate(217.84066614026847 471.36929755298485) rotate(0 147.15933385973153 193.63070244701518)"><path d="M0.09 -0.06 C48.98 64.6, 245.03 323.47, 294.12 388.03 M-1.31 -1.14 C47.32 63.18, 243.84 321.35, 293.07 386.31" stroke="#495057" stroke-width="2" fill="none"></path></g><g transform="translate(217.84066614026847 471.36929755298485) rotate(0 147.15933385973153 193.63070244701518)"><path d="M267.74 369.74 C278.46 376.6, 286.55 380.88, 292.7 387.12 M268.78 369.1 C272.79 374.37, 279.31 376.72, 293.91 385.53" stroke="#495057" stroke-width="2" fill="none"></path></g><g transform="translate(217.84066614026847 471.36929755298485) rotate(0 147.15933385973153 193.63070244701518)"><path d="M284.08 357.33 C288.77 368.79, 290.82 377.66, 292.7 387.12 M285.12 356.69 C285.79 364.6, 288.83 369.58, 293.91 385.53" stroke="#495057" stroke-width="2" fill="none"></path></g></g><g stroke-linecap="round"><g transform="translate(555 973) rotate(0 0 67)"><path d="M0.56 -0.44 C0.82 22.09, 0.56 112.14, 0.39 134.46 M-0.61 -1.72 C-0.37 20.52, -0.21 109.87, -0.35 132.59" stroke="#495057" stroke-width="2" fill="none"></path></g><g transform="translate(555 973) rotate(0 0 67)"><path d="M-11.31 105.04 C-7.93 109.26, -7.49 116.94, 0.75 131.85 M-9.77 105.09 C-8.27 110.72, -6.94 117.52, -1.18 132.39" stroke="#495057" stroke-width="2" fill="none"></path></g><g transform="translate(555 973) rotate(0 0 67)"><path d="M9.21 105.07 C8.49 109.37, 4.81 117.06, 0.75 131.85 M10.75 105.12 C7.58 110.68, 4.23 117.46, -1.18 132.39" stroke="#495057" stroke-width="2" fill="none"></path></g></g><g stroke-linecap="round"><g transform="translate(555 1223) rotate(0 0 67)"><path d="M-0.37 0.35 C-0.13 22.4, 0.88 110.73, 1.07 133 M1.63 -0.51 C1.85 21.59, 0.89 111.38, 0.68 134.01" stroke="#495057" stroke-width="2" fill="none"></path></g><g transform="translate(555 1223) rotate(0 0 67)"><path d="M-8.73 107.5 C-8.16 114.5, -3.9 122.42, 1.73 134.74 M-8.67 106.25 C-6.08 116, -3.86 124.05, -0.13 135" stroke="#495057" stroke-width="2" fill="none"></path></g><g transform="translate(555 1223) rotate(0 0 67)"><path d="M11.79 107.7 C6.93 114.58, 5.77 122.45, 1.73 134.74 M11.85 106.45 C7.63 115.99, 3.04 123.97, -0.13 135" stroke="#495057" stroke-width="2" fill="none"></path></g></g><g transform="translate(533.75 1281.875) rotate(0 21.25 8.125)"><text x="21.25" y="16" font-family="Virgil, Segoe UI Emoji" font-size="13px" fill="#495057" text-anchor="middle" style="white-space: pre;" direction="ltr">image</text></g><g stroke-linecap="round"><g transform="translate(555 1473) rotate(0 0 67)"><path d="M-0.81 -0.01 C-0.69 22.26, 0.71 110.63, 0.85 132.97 M0.97 -1.06 C0.99 21.39, 0.63 111.23, 0.36 133.97" stroke="#495057" stroke-width="2" fill="none"></path></g><g transform="translate(555 1473) rotate(0 0 67)"><path d="M-9.71 107.12 C-8.44 114.7, -3.57 123.39, 2.23 132.15 M-9.46 105.47 C-5.84 114.47, -4.56 123.09, 1.2 134" stroke="#495057" stroke-width="2" fill="none"></path></g><g transform="translate(555 1473) rotate(0 0 67)"><path d="M10.81 107.28 C5.69 114.67, 4.15 123.31, 2.23 132.15 M11.06 105.62 C8.66 114.59, 3.91 123.16, 1.2 134" stroke="#495057" stroke-width="2" fill="none"></path></g></g><g transform="translate(514.25 1531.875) rotate(0 40.75 8.125)"><text x="40.75" y="16" font-family="Virgil, Segoe UI Emoji" font-size="13px" fill="#495057" text-anchor="middle" style="white-space: pre;" direction="ltr">passthrough</text></g></svg>