<svg version="1.1" xmlns="http://www.w3.org/2000/svg" viewBox="0 0 1880 1735" width="1880" height="1735">
  <!-- svg-source:excalidraw -->
  
  <defs>
    <style>
      @font-face {
        font-family: "Virgil";
        src: url("https://excalidraw.com/Virgil.woff2");
      }
      @font-face {
        font-family: "Cascadia";
        src: url("https://excalidraw.com/Cascadia.woff2");
      }
    </style>
  </defs>
  <rect x="0" y="0" width="1880" height="1735" fill="#ffffff"></rect><g stroke-opacity="0.3" fill-opacity="0.3" stroke-linecap="round" transform="translate(770 10) rotate(0 550 107.5)"><path d="M-3.19 1.71 L1098.64 0.93 L1101.39 211.53 L-2.1 213.11" stroke="none" stroke-width="0" fill="#e9ecef"></path><path d="M1.15 -1.22 C230.1 3.96, 459.18 5.54, 1098.62 -0.16 M1101.48 -1.39 C1096.44 47.22, 1099.71 95.83, 1099.97 215.32 M1099.87 215.01 C753.64 214.35, 407.08 212.02, -1 215.73 M0.2 216.24 C-5 144.14, -1.3 73.74, -0.89 2.23" stroke="#868e96" stroke-width="2.5" fill="none" stroke-dasharray="8 10"></path></g><g transform="translate(770 20) rotate(0 5 10)"><text x="0" y="20" font-family="Virgil, Segoe UI Emoji" font-size="16px" fill="#868e96" text-anchor="start" style="white-space: pre;" direction="ltr">Config &amp; Input</text></g><g stroke-opacity="0.3" fill-opacity="0.3" stroke-linecap="round" transform="translate(390 260) rotate(0 360 107.5)"><path d="M1.78 2.44 L722.92 -3.4 L720.58 211.43 L1.35 214.42" stroke="none" stroke-width="0" fill="#f3f0ff"></path><path d="M-0.08 -0.29 C172.83 1.94, 344.41 1.39, 720.19 1.36 M719.74 -0.27 C717.82 51.37, 719.22 104.09, 720.78 218 M718.74 213.71 C556.66 215.11, 393.45 214.83, 1.05 216.23 M1.88 217.26 C-0.06 170.83, -0.25 127.29, -3.14 1.58" stroke="#7048e8" stroke-width="2.5" fill="none" stroke-dasharray="8 10"></path></g><g transform="translate(390 270) rotate(0 5 10)"><text x="0" y="20" font-family="Virgil, Segoe UI Emoji" font-size="16px" fill="#7048e8" text-anchor="start" style="white-space: pre;" direction="ltr">Prompt Generation</text></g><g stroke-opacity="0.3" fill-opacity="0.3" stroke-linecap="round" transform="translate(10 260) rotate(0 455 482.5)"><path d="M-2.98 1.87 L907.84 3.64 L909.29 962.84 L-2.2 964.41" stroke="none" stroke-width="0" fill="#e7f5ff"></path><path d="M0.95 -0.33 C214.51 -3.68, 427.85 -3.43, 909.57 0.73 M910.45 -0.87 C908.79 367.21, 909.29 736.34, 909.3 964.84 M910.44 964.66 C562.86 968.95, 217.59 966.19, -0.09 964.14 M-0.52 963.59 C3.26 609.22, 3.73 252.58, -0.81 1.56" stroke="#1971c2" stroke-width="2.5" fill="none" stroke-dasharray="8 10"></path></g><g transform="translate(10 270) rotate(0 5 10)"><text x="0" y="20" font-family="Virgil, Segoe UI Emoji" font-size="16px" fill="#1971c2" text-anchor="start" style="white-space: pre;" direction="ltr">ComfyUI Pipeline</text></g><g stroke-opacity="0.3" fill-opacity="0.3" stroke-linecap="round" transform="translate(390 1260) rotate(0 170 232.5)"><path d="M-0.56 -1.37 L340.48 -2.31 L342.63 466.96 L-3.53 462.07" stroke="none" stroke-width="0" fill="#ebfbee"></path><path d="M0.95 1.38 C120.42 0.83, 238.53 -0.99, 339.34 -0.72 M340.96 -1.38 C338.34 156.14, 337.51 309.75, 340.8 464.75 M339.24 464.13 C270.36 469.73, 200.37 467.07, 1.82 466.7 M-0.25 463.18 C-3.9 311.36, -4.05 158.72, -1.1 -0.9" stroke="#2f9e44" stroke-width="2.5" fill="none" stroke-dasharray="8 10"></path></g><g transform="translate(390 1270) rotate(0 5 10)"><text x="0" y="20" font-family="Virgil, Segoe UI Emoji" font-size="16px" fill="#2f9e44" text-anchor="start" style="white-space: pre;" direction="ltr">Scheduling &amp; Output</text></g><g stroke-linecap="round" transform="translate(820 65) rotate(0 115 50)"><path d="M0.01 1.12 L233.65 -3.83 L230.89 100.24 L0.47 103.28" stroke="none" stroke-width="0" fill="#a5d8ff"></path><path d="M1.7 -2.08 C92.54 0.08, 179.34 1.23, 227.11 1.43 M1.46 1.39 C57.63 3.17, 117.12 4.42, 228.47 0.87 M229.4 1.79 C228.3 34.11, 230.92 64.02, 229.32 102.16 M231.82 1.63 C228.87 35.44, 227.39 74.83, 230.45 99.37 M232.97 102.69 C155.85 98.03, 86.84 99.86, 0.73 97.26 M230.41 99.17 C173.99 100.13, 120.74 101.17, -0.02 99.33 M-2.1 99.44 C-0.26 65.33, -3.57 27.28, 0.85 -0.77 M0.25 98.35 C3.05 76.15, 2.92 47.28, -1.54 0.49" stroke="#1971c2" stroke-width="2" fill="none"></path></g><g transform="translate(825 103.75) rotate(0 110 11.25)"><text x="110" y="23" font-family="Virgil, Segoe UI Emoji" font-size="18px" fill="#1971c2" text-anchor="middle" style="white-space: pre;" direction="ltr">Gap Scanner</text></g><g stroke-linecap="round" transform="translate(1200 65) rotate(0 115 50)"><path d="M-3.83 3.23 L232.84 2.46 L227.58 96.61 L0.99 96.37" stroke="none" stroke-width="0" fill="#d0bfff"></path><path d="M1.36 1.76 C86.18 -4.59, 168.16 -4.61, 227.6 -0.21 M-0.55 -1.18 C46.67 -0.51, 92.84 1.75, 229.77 0.22 M227.19 0.98 C228.13 38.64, 228.28 73.69, 229.84 99.1 M229.8 0.54 C230.44 25.49, 228.93 47.28, 230.03 101.07 M232.48 99.23 C167.56 104.45, 108.47 101.57, 2.99 97.32 M230.52 101.55 C167.98 96.27, 107.59 96.41, 1.39 98.89 M-0.43 103.63 C-2.13 74.43, -4.44 46.11, 1.17 0.35 M-0.06 98.24 C-1.56 66.64, -0.16 35.41, 1.97 1.48" stroke="#7048e8" stroke-width="2" fill="none"></path></g><g transform="translate(1205 103.75) rotate(0 110 11.25)"><text x="110" y="23" font-family="Virgil, Segoe UI Emoji" font-size="18px" fill="#7048e8" text-anchor="middle" style="white-space: pre;" direction="ltr">LLM Config</text></g><g stroke-linecap="round" transform="translate(1580 65) rotate(0 115 50)"><path d="M-0.46 1.36 L231.75 0.12 L231.44 102.94 L1.7 98.87" stroke="none" stroke-width="0" fill="#fcc2d7"></path><path d="M-2.05 -1.19 C54.74 4.58, 110.48 1.87, 227.79 1.43 M1.67 1.19 C46.29 -2.28, 93.27 -2.82, 231.38 -1.4 M227.37 3.84 C235.25 31.33, 233.24 66.96, 231.02 98.3 M229.9 0.67 C230.35 31.66, 231.23 58.73, 228.52 98.38 M233.24 99.4 C142.2 96.23, 54.37 99.92, -0.15 101.05 M230.83 99 C164.69 97, 99.33 96.92, -1.53 101.29 M-3.56 96.66 C2.49 76.82, 0.32 48.5, -3.35 1.55 M0.16 99.36 C1.05 61.47, 1.71 26.64, 0.26 1.84" stroke="#c2255c" stroke-width="2" fill="none"></path></g><g transform="translate(1585 105) rotate(0 110 10)"><text x="110" y="20" font-family="Virgil, Segoe UI Emoji" font-size="16px" fill="#c2255c" text-anchor="middle" style="white-space: pre;" direction="ltr">Bulk Prompter</text></g><g stroke-linecap="round" transform="translate(440 315) rotate(0 115 50)"><path d="M1.59 3.19 L229.63 1.64 L231.12 101.86 L1.42 103.34" stroke="none" stroke-width="0" fill="#a5d8ff"></path><path d="M0.59 -2.66 C51.89 -1.97, 108.27 0.94, 231.94 2.59 M-0.16 -1.66 C46.14 0.17, 93.3 2.23, 230.75 1.4 M231.46 3.3 C228.7 25.05, 226.3 59.7, 228.36 97.83 M231.49 1.73 C233 22.48, 231.29 41.51, 230 101.43 M226.86 97.06 C177.45 96.18, 128.44 98.18, 3.01 98.98 M229.07 101.04 C151.04 100.26, 76.13 100.78, -0.95 100.02 M-0.13 100.94 C-1.29 79.05, -0.22 56.47, -2.73 -3.86 M-1.9 99.12 C-0.98 65.26, 1.05 27.9, 1.45 1.28" stroke="#1971c2" stroke-width="2" fill="none"></path></g><g transform="translate(445 353.75) rotate(0 110 11.25)"><text x="110" y="23" font-family="Virgil, Segoe UI Emoji" font-size="18px" fill="#1971c2" text-anchor="middle" style="white-space: pre;" direction="ltr">Prompt Generator</text></g><g stroke-linecap="round" transform="translate(820 315) rotate(0 115 50)"><path d="M-3.29 -0.06 L230.91 -2.32 L231.01 101.79 L2.33 96.65" stroke="none" stroke-width="0" fill="#d0bfff"></path><path d="M-2.63 3.06 C85.82 -5.25, 172.62 -0.11, 229.95 -0.25 M-1.45 1.2 C52.8 2.19, 107.81 0.66, 231.45 1.39 M228.8 0.6 C225.34 40.01, 225.99 82.63, 230.63 99.67 M229.52 -1.9 C228.46 26.49, 227.15 54.44, 230.46 101.18 M227.94 97.31 C147.07 101.82, 71.83 99.96, -2.42 98.22 M230.39 100.79 C150.04 98.11, 69.78 96.86, -1.58 99.25 M1.89 100.56 C-0.71 69.75, -2.56 41.5, -0.95 2.01 M-0.89 100.39 C3.21 80.61, 3.5 57.35, -0.33 0.86" stroke="#7048e8" stroke-width="2" fill="none"></path></g><g transform="translate(825 353.75) rotate(0 110 11.25)"><text x="110" y="23" font-family="Virgil, Segoe UI Emoji" font-size="18px" fill="#7048e8" text-anchor="middle" style="white-space: pre;" direction="ltr">API Call</text></g><g stroke-linecap="round" transform="translate(250 565) rotate(0 115 50)"><path d="M-1.64 0.17 L229.04 2.41 L226.42 96.25 L-3.78 100.86" stroke="none" stroke-width="0" fill="#e9ecef"></path><path d="M-2.02 0.48 C69.16 5.37, 132.51 0.89, 233.14 -0.42 M-0.96 0.3 C64.61 0.6, 130.98 0.59, 230.6 -1.01 M227.09 3.08 C229.41 38.09, 228.17 73.59, 232.8 97.64 M229.87 1.23 C228.14 24.45, 231.19 46.31, 228.97 101.97 M232.66 99.63 C146.48 102.29, 63.51 104.97, -0.44 96.88 M231.26 101.28 C174.76 102.01, 123.56 101.08, 0.85 101.34 M3.79 102.38 C0.25 59.68, -4.95 19.81, -1.21 -2.17 M1.9 100.55 C-0.84 69.71, 0.23 36.01, 1.31 -1.72" stroke="#1e1e1e" stroke-width="2" fill="none"></path></g><g transform="translate(255 605) rotate(0 110 10)"><text x="110" y="20" font-family="Virgil, Segoe UI Emoji" font-size="16px" fill="#1e1e1e" text-anchor="middle" style="white-space: pre;" direction="ltr">CLIP Encode (+)</text></g><g stroke-linecap="round" transform="translate(630 565) rotate(0 115 50)"><path d="M-3.67 -1.9 L229.71 -3.25 L229.77 96.5 L1.8 97.63" stroke="none" stroke-width="0" fill="#e9ecef"></path><path d="M-1.92 0.46 C74.38 4.57, 142.99 -1.52, 233.32 1.04 M-0.52 0.01 C53.94 -0.48, 105.06 -0.68, 229.14 0.64 M229.85 2.63 C232.11 23.06, 230.37 38.78, 226.92 101.03 M230.72 0.26 C233.25 37.09, 233.18 70.35, 228.09 101.09 M233.16 97.64 C158.73 96.37, 79.02 96.77, -2.28 101.43 M230.37 99.45 C180.85 101.32, 132.45 103.43, 1.14 98.99 M-3.08 103.96 C0.62 70.72, 5.14 44.49, -2.1 -3.39 M-1.79 99.3 C0.04 69.69, 0.06 41.49, -1.68 0.46" stroke="#1e1e1e" stroke-width="2" fill="none"></path></g><g transform="translate(635 605) rotate(0 110 10)"><text x="110" y="20" font-family="Virgil, Segoe UI Emoji" font-size="16px" fill="#1e1e1e" text-anchor="middle" style="white-space: pre;" direction="ltr">CLIP Encode (-)</text></g><g stroke-linecap="round" transform="translate(60 315) rotate(0 115 50)"><path d="M1.11 0.76 L229.05 3.12 L226.84 102.51 L-3.81 98.94" stroke="none" stroke-width="0" fill="#e9ecef"></path><path d="M-3.18 -2.94 C48.78 5.42, 97.88 4.98, 233.19 1.23 M0.24 0.7 C53.08 0.95, 102.53 2.05, 230.1 -0.47 M233.17 1.88 C230.99 38.61, 227.08 82.5, 228.7 99.71 M231.73 -1.39 C230.35 24.25, 230.34 47.33, 229.74 100.38 M227.06 101.72 C145.06 98.47, 58.32 94.98, 1.22 102 M228.56 100.66 C164.47 97.57, 96.7 96.68, 0 100.74 M3.16 103.97 C3.16 67.34, -0.33 41.11, -1.53 -0.94 M0.03 98.31 C-0.1 78.36, 1.21 54.89, 1.14 -0.47" stroke="#1e1e1e" stroke-width="2" fill="none"></path></g><g transform="translate(65 355) rotate(0 110 10)"><text x="110" y="20" font-family="Virgil, Segoe UI Emoji" font-size="16px" fill="#1e1e1e" text-anchor="middle" style="white-space: pre;" direction="ltr">Empty Latent</text></g><g stroke-linecap="round" transform="translate(440 815) rotate(0 115 50)"><path d="M1.12 0.72 L231.3 3.78 L229.42 101.27 L-0.89 103.07" stroke="none" stroke-width="0" fill="#e9ecef"></path><path d="M2.57 -2.9 C56.42 1.06, 122.47 -3.87, 228.29 2.22 M-0.12 -1.61 C71.03 -1.75, 145.83 -4.69, 228.91 1.13 M230.39 1.52 C229.73 26.99, 228.78 57.95, 228.52 99.37 M230.6 -0.31 C226.96 25.56, 228.6 52.9, 231.5 99.75 M228.64 97.35 C140.75 98.76, 60.16 101.22, -0.11 102.12 M229.37 101.6 C170.2 98.56, 112.32 99.84, 0.99 98.96 M1.71 99.02 C-3.95 60.8, 0.49 29.89, -2.66 3.15 M-1.44 101.83 C0.09 72.56, -2.84 46.25, -1.47 1.23" stroke="#1e1e1e" stroke-width="2" fill="none"></path></g><g transform="translate(445 853.75) rotate(0 110 11.25)"><text x="110" y="23" font-family="Virgil, Segoe UI Emoji" font-size="18px" fill="#1e1e1e" text-anchor="middle" style="white-space: pre;" direction="ltr">KSampler</text></g><g stroke-linecap="round" transform="translate(440 1065) rotate(0 115 50)"><path d="M1.26 -0.73 L227.6 3.96 L231.94 96.22 L0.19 99.94" stroke="none" stroke-width="0" fill="#e9ecef"></path><path d="M1.65 -0.13 C85.95 1.77, 174.07 5.41, 233.36 -1.52 M-0.85 0.13 C86.89 -4.74, 173.42 -5.16, 228.97 -1.56 M232.52 -3.66 C231.66 36.27, 227.22 64.04, 228.37 97.29 M230.52 -1.26 C231.24 20.54, 230.03 41.7, 228.98 101.73 M229.95 101.03 C164.79 94.5, 104.05 100.96, -2.45 98.84 M230.2 99.92 C146.57 101.48, 63.75 101.3, -0.74 100.71 M-0.12 102.32 C-2.04 60.98, -1.67 21.35, -0.22 -2.43 M-1.08 101.27 C-2.85 72.73, 0.52 50.59, 1.65 -0.22" stroke="#1e1e1e" stroke-width="2" fill="none"></path></g><g transform="translate(445 1105) rotate(0 110 10)"><text x="110" y="20" font-family="Virgil, Segoe UI Emoji" font-size="16px" fill="#1e1e1e" text-anchor="middle" style="white-space: pre;" direction="ltr">VAE Decode</text></g><g stroke-linecap="round" transform="translate(440 1315) rotate(0 115 50)"><path d="M-3.15 -1.13 L231.35 -3.27 L228.04 99.9 L1.72 96.08" stroke="none" stroke-width="0" fill="#a5d8ff"></path><path d="M2.57 3.13 C53 1.84, 108.79 2.21, 227.8 3.35 M1.42 -1.01 C49.03 0.86, 95.47 2.48, 231.62 -0.76 M227.57 0.23 C235.82 32.15, 228.73 65.35, 227.01 98.66 M228.97 0.79 C227.06 31.49, 229.79 65.45, 230.9 99.65 M229.35 97.72 C158.54 96.2, 90.88 96.52, 2.96 103.04 M228.38 101.22 C140.55 101.75, 52.78 102.19, 0.89 99.11 M0.43 99.1 C-2.54 82.67, -0.79 61.5, 3.18 0.4 M0.23 100.42 C-1.54 77.14, 1.36 53.72, 1.78 0.68" stroke="#1971c2" stroke-width="2" fill="none"></path></g><g transform="translate(445 1353.75) rotate(0 110 11.25)"><text x="110" y="23" font-family="Virgil, Segoe UI Emoji" font-size="18px" fill="#1971c2" text-anchor="middle" style="white-space: pre;" direction="ltr">CRON Scheduler</text></g><g stroke-linecap="round" transform="translate(440 1565) rotate(0 115 50)"><path d="M-3.1 2.5 L226.68 -3.78 L231 97.58 L-1.09 100.25" stroke="none" stroke-width="0" fill="#a5d8ff"></path><path d="M-0.9 0.53 C65.58 5.23, 128.54 5.02, 226.94 -2.4 M-1.56 -0.26 C73.16 0.94, 148.58 2.72, 228.68 -1.51 M228.18 -1.2 C232.56 27.99, 227.39 50.38, 227.96 100.54 M230.09 1.35 C228.87 36.62, 227.23 73.13, 229.69 99.08 M230.11 98.51 C161.45 95.43, 87.7 98.13, -0.02 101.76 M231.32 101.38 C173.63 97.97, 120.58 99.59, 0.98 101.6 M1.09 102.01 C-2.37 64.98, 0.48 31.57, 0.31 -2.52 M-0.57 100.13 C-2.44 72.3, 0.22 47.9, 0.46 0.9" stroke="#1971c2" stroke-width="2" fill="none"></path></g><g transform="translate(445 1603.75) rotate(0 110 11.25)"><text x="110" y="23" font-family="Virgil, Segoe UI Emoji" font-size="18px" fill="#1971c2" text-anchor="middle" style="white-space: pre;" direction="ltr">Save As</text></g><g stroke-linecap="round"><g transform="translate(852.3166633420485 169.3969320118102) rotate(0 -107.31666334204851 70.60306798818978)"><path d="M0.54 1.14 C-35.44 24.74, -178.94 117.65, -214.81 140.85 M-0.63 0.7 C-36.89 24.53, -180.05 118.78, -215.86 142.2" stroke="#495057" stroke-width="2" fill="none"></path></g><g transform="translate(852.3166633420485 169.3969320118102) rotate(0 -107.31666334204851 70.60306798818978)"><path d="M-196.01 117.85 C-205.7 127.56, -213.55 137.28, -217.01 142.2 M-198.81 117.78 C-202.84 125.72, -208.85 132.13, -214.99 142.2" stroke="#495057" stroke-width="2" fill="none"></path></g><g transform="translate(852.3166633420485 169.3969320118102) rotate(0 -107.31666334204851 70.60306798818978)"><path d="M-184.75 135.01 C-198.75 138.04, -211.02 141.03, -217.01 142.2 M-187.55 134.94 C-194.87 137.66, -204.25 138.95, -214.99 142.2" stroke="#495057" stroke-width="2" fill="none"></path></g></g><g transform="translate(681.5 231.875) rotate(0 63.5 8.125)"><text x="63.5" y="16" font-family="Virgil, Segoe UI Emoji" font-size="13px" fill="#495057" text-anchor="middle" style="white-space: pre;" direction="ltr">topic / resolution</text></g><g stroke-linecap="round"><g transform="translate(812.400593680429 155.32875207880627) rotate(0 -257.400593680429 84.67124792119374)"><path d="M-0.57 0.72 C-86.25 28.94, -428.18 140.63, -513.88 168.54 M1.34 0.05 C-84.45 28.47, -428.2 141.51, -514.35 169.66" stroke="#495057" stroke-width="2" fill="none"></path></g><g transform="translate(812.400593680429 155.32875207880627) rotate(0 -257.400593680429 84.67124792119374)"><path d="M-489.57 152.65 C-499.75 156.92, -507.86 164.07, -514.7 169.21 M-491.74 150.24 C-495.98 155.48, -502.98 160.45, -515.28 170.64" stroke="#495057" stroke-width="2" fill="none"></path></g><g transform="translate(812.400593680429 155.32875207880627) rotate(0 -257.400593680429 84.67124792119374)"><path d="M-483.17 172.15 C-495.27 170.16, -505.42 171.09, -514.7 169.21 M-485.34 169.74 C-491.1 170.24, -499.63 170.52, -515.28 170.64" stroke="#495057" stroke-width="2" fill="none"></path></g></g><g transform="translate(504.5 231.875) rotate(0 50.5 8.125)"><text x="50.5" y="16" font-family="Virgil, Segoe UI Emoji" font-size="13px" fill="#495057" text-anchor="middle" style="white-space: pre;" direction="ltr">width / height</text></g><g stroke-linecap="round"><g transform="translate(1192.400593680429 155.32875207880627) rotate(0 -257.400593680429 84.67124792119374)"><path d="M-0.61 -0.47 C-86.24 27.77, -427.93 140.2, -513.7 168.52" stroke="#495057" stroke-width="2.5" fill="none" stroke-dasharray="8 10"></path></g><g transform="translate(1192.400593680429 155.32875207880627) rotate(0 -257.400593680429 84.67124792119374)"><path d="M-490.92 151.79 C-498.87 154.89, -504.54 161.84, -512.04 168.12" stroke="#495057" stroke-width="2.5" fill="none"></path></g><g transform="translate(1192.400593680429 155.32875207880627) rotate(0 -257.400593680429 84.67124792119374)"><path d="M-484.49 171.28 C-494.27 168.38, -501.91 169.35, -512.04 168.12" stroke="#495057" stroke-width="2.5" fill="none"></path></g></g><g transform="translate(897.5 231.875) rotate(0 37.5 8.125)"><text x="37.5" y="16" font-family="Virgil, Segoe UI Emoji" font-size="13px" fill="#495057" text-anchor="middle" style="white-space: pre;" direction="ltr">LLM_CONFIG</text></g><g stroke-linecap="round"><g transform="translate(1232.3166633420485 169.3969320118102) rotate(0 -107.31666334204851 70.60306798818978)"><path d="M1.05 -0.54 C-34.76 23.27, -178.89 118.57, -214.99 142.19" stroke="#495057" stroke-width="2.5" fill="none" stroke-dasharray="8 10"></path></g><g transform="translate(1232.3166633420485 169.3969320118102) rotate(0 -107.31666334204851 70.60306798818978)"><path d="M-197.98 117.53 C-200.77 123.81, -207.71 133.35, -213.31 143.17" stroke="#495057" stroke-width="2.5" fill="none"></path></g><g transform="translate(1232.3166633420485 169.3969320118102) rotate(0 -107.31666334204851 70.60306798818978)"><path d="M-186.7 134.67 C-192.67 136.08, -202.88 140.64, -213.31 143.17" stroke="#495057" stroke-width="2.5" fill="none"></path></g></g><g transform="translate(1087.5 231.875) rotate(0 37.5 8.125)"><text x="37.5" y="16" font-family="Virgil, Segoe UI Emoji" font-size="13px" fill="#495057" text-anchor="middle" style="white-space: pre;" direction="ltr">LLM_CONFIG</text></g><g stroke-linecap="round"><g transform="translate(512.1593338597315 421.36929755298485) rotate(0 -52.15933385973153 68.63070244701518)"><path d="M1.05 1.1 C-16.53 24.17, -87.44 114.87, -104.92 137.55 M0.14 0.63 C-17.09 23.4, -85.11 112.61, -102.53 135.59" stroke="#495057" stroke-width="2" fill="none"></path></g><g transform="translate(512.1593338597315 421.36929755298485) rotate(0 -52.15933385973153 68.63070244701518)"><path d="M-91.81 105.93 C-96.43 117.65, -100.11 126.31, -101.8 135.32 M-93.34 106.13 C-97.27 118.16, -99.36 128.99, -103.16 134.61" stroke="#495057" stroke-width="2" fill="none"></path></g><g transform="translate(512.1593338597315 421.36929755298485) rotate(0 -52.15933385973153 68.63070244701518)"><path d="M-75.47 118.35 C-85.65 125.93, -94.98 130.28, -101.8 135.32 M-77.01 118.55 C-87.08 126.01, -95.22 132.24, -103.16 134.61" stroke="#495057" stroke-width="2" fill="none"></path></g></g><g transform="translate(435.5 481.875) rotate(0 24.5 8.125)"><text x="24.5" y="16" font-family="Virgil, Segoe UI Emoji" font-size="13px" fill="#495057" text-anchor="middle" style="white-space: pre;" direction="ltr">prompt</text></g><g stroke-linecap="round"><g transform="translate(597.8406661402685 421.36929755298485) rotate(0 52.15933385973153 68.63070244701518)"><path d="M0.72 1.08 C18.43 23.95, 87.85 115.45, 105.26 138.28 M-0.37 0.59 C17.36 23.67, 87.27 114.1, 104.8 136.7" stroke="#495057" stroke-width="2" fill="none"></path></g><g transform="translate(597.8406661402685 421.36929755298485) rotate(0 52.15933385973153 68.63070244701518)"><path d="M81.22 122.25 C86.71 125.33, 91.78 128.03, 106.04 136.24 M79.39 121.38 C89.29 127.66, 97.7 132.61, 104.2 136.24" stroke="#495057" stroke-width="2" fill="none"></path></g><g transform="translate(597.8406661402685 421.36929755298485) rotate(0 52.15933385973153 68.63070244701518)"><path d="M97.45 109.68 C99.56 115.55, 101.16 120.95, 106.04 136.24 M95.61 108.81 C99.31 119.74, 101.61 129.41, 104.2 136.24" stroke="#495057" stroke-width="2" fill="none"></path></g></g><g transform="translate(619 481.875) rotate(0 31 8.125)"><text x="31" y="16" font-family="Virgil, Segoe UI Emoji" font-size="13px" fill="#495057" text-anchor="middle" style="white-space: pre;" direction="ltr">negative</text></g><g stroke-linecap="round"><g transform="translate(407.84066614026847 671.3692975529848) rotate(0 52.15933385973153 68.63070244701521)"><path d="M0.35 -0.2 C17.35 22.57, 85.85 113.79, 103.15 136.55 M-0.92 -1.36 C16.33 21.56, 87.88 114.62, 105.24 137.72" stroke="#495057" stroke-width="2" fill="none"></path></g><g transform="translate(407.84066614026847 671.3692975529848) rotate(0 52.15933385973153 68.63070244701521)"><path d="M79.66 119.55 C88.82 127.52, 98.53 136.26, 103.26 136.38 M80.57 121.29 C87.94 126.04, 93.81 130.16, 104.93 137.98" stroke="#495057" stroke-width="2" fill="none"></path></g><g transform="translate(407.84066614026847 671.3692975529848) rotate(0 52.15933385973153 68.63070244701521)"><path d="M95.99 107.12 C98.66 120.07, 101.9 133.74, 103.26 136.38 M96.9 108.86 C99.62 117.2, 100.81 124.87, 104.93 137.98" stroke="#495057" stroke-width="2" fill="none"></path></g></g><g stroke-linecap="round"><g transform="translate(702.1593338597315 671.3692975529848) rotate(0 -52.15933385973153 68.63070244701521)"><path d="M-0.37 -1.05 C-17.67 22.11, -86.33 114.94, -103.63 138.05 M1.63 1.01 C-15.77 23.91, -86.47 113.94, -104.21 136.34" stroke="#495057" stroke-width="2" fill="none"></path></g><g transform="translate(702.1593338597315 671.3692975529848) rotate(0 -52.15933385973153 68.63070244701521)"><path d="M-96.58 109 C-96.66 117, -100.33 125.75, -102.61 136.31 M-95.02 108.83 C-98.32 115.04, -100.85 122.74, -104.53 135.83" stroke="#495057" stroke-width="2" fill="none"></path></g><g transform="translate(702.1593338597315 671.3692975529848) rotate(0 -52.15933385973153 68.63070244701521)"><path d="M-80.46 121.7 C-85.47 125.69, -94.18 130.47, -102.61 136.31 M-78.9 121.52 C-86.5 124.22, -93.44 128.44, -104.53 135.83" stroke="#495057" stroke-width="2" fill="none"></path></g></g><g stroke-linecap="round"><g transform="translate(217.84066614026847 421.36929755298485) rotate(0 147.15933385973153 193.63070244701518)"><path d="M0.93 -1.01 C50.17 63.48, 245.32 322.04, 294.36 386.89 M-0.04 1.08 C49.14 65.74, 244.29 324.05, 293.44 388.24" stroke="#495057" stroke-width="2" fill="none"></path></g><g transform="translate(217.84066614026847 421.36929755298485) rotate(0 147.15933385973153 193.63070244701518)"><path d="M266.53 372.07 C272.86 376.61, 280.14 378.93, 294.93 386.99 M268.86 372.57 C276.01 376.15, 282.19 381.13, 293.7 388.96" stroke="#495057" stroke-width="2" fill="none"></path></g><g transform="translate(217.84066614026847 421.36929755298485) rotate(0 147.15933385973153 193.63070244701518)"><path d="M282.87 359.65 C285.78 366.91, 289.64 371.83, 294.93 386.99 M285.2 360.15 C287.76 367.22, 289.26 375.76, 293.7 388.96" stroke="#495057" stroke-width="2" fill="none"></path></g></g><g stroke-linecap="round"><g transform="translate(555 923) rotate(0 0 67)"><path d="M-0.06 -0.78 C-0.06 21.86, 0.98 112.25, 0.92 134.87 M-1.55 1.43 C-1.7 23.82, 0.43 111.25, 0.46 133.2" stroke="#495057" stroke-width="2" fill="none"></path></g><g transform="translate(555 923) rotate(0 0 67)"><path d="M-11.49 106.69 C-4.97 115, -0.83 126.81, 1.77 132.93 M-10.7 104.38 C-6.73 114.86, -2.98 126.44, -0.54 132.92" stroke="#495057" stroke-width="2" fill="none"></path></g><g transform="translate(555 923) rotate(0 0 67)"><path d="M9.03 106.41 C7.84 114.81, 4.27 126.72, 1.77 132.93 M9.82 104.1 C6.01 114.85, 1.97 126.54, -0.54 132.92" stroke="#495057" stroke-width="2" fill="none"></path></g></g><g stroke-linecap="round"><g transform="translate(555 1173) rotate(0 0 67)"><path d="M0.84 1.15 C0.94 23.41, 0.62 110.73, 0.45 132.87 M-0.18 0.71 C-0.19 23.13, -0.12 111.39, -0.26 133.81" stroke="#495057" stroke-width="2" fill="none"></path></g><g transform="translate(555 1173) rotate(0 0 67)"><path d="M-8.54 106.35 C-9.57 113.34, -4.86 122.24, 0.68 133.36 M-10.35 106.42 C-7.82 115.41, -3.83 123.66, -0.04 134.63" stroke="#495057" stroke-width="2" fill="none"></path></g><g transform="translate(555 1173) rotate(0 0 67)"><path d="M11.98 106.39 C5.06 113.52, 3.88 122.4, 0.68 133.36 M10.17 106.47 C6.24 115.29, 3.78 123.52, -0.04 134.63" stroke="#495057" stroke-width="2" fill="none"></path></g></g><g transform="translate(533.75 1231.875) rotate(0 21.25 8.125)"><text x="21.25" y="16" font-family="Virgil, Segoe UI Emoji" font-size="13px" fill="#495057" text-anchor="middle" style="white-space: pre;" direction="ltr">image</text></g><g stroke-linecap="round"><g transform="translate(555 1423) rotate(0 0 67)"><path d="M0.8 -1.11 C0.93 21.34, 0.54 111.35, 0.26 133.74 M-0.23 0.91 C-0.19 23.64, -0.86 112.94, -0.55 135.14" stroke="#495057" stroke-width="2" fill="none"></path></g><g transform="translate(555 1423) rotate(0 0 67)"><path d="M-12.72 107.4 C-8.88 112.73, -7.12 122.1, -0.95 133.44 M-11.12 106.53 C-7.38 114.16, -4.87 123.59, -0.46 134.33" stroke="#495057" stroke-width="2" fill="none"></path></g><g transform="translate(555 1423) rotate(0 0 67)"><path d="M7.8 107.37 C6.37 112.84, 2.84 122.22, -0.95 133.44 M9.41 106.5 C7.2 114.25, 3.78 123.69, -0.46 134.33" stroke="#495057" stroke-width="2" fill="none"></path></g></g><g transform="translate(514.25 1481.875) rotate(0 40.75 8.125)"><text x="40.75" y="16" font-family="Virgil, Segoe UI Emoji" font-size="13px" fill="#495057" text-anchor="middle" style="white-space: pre;" direction="ltr">passthrough</text></g></svg>