<svg version="1.1" xmlns="http://www.w3.org/2000/svg" viewBox="0 0 780 1180" width="780" height="1180">
  <!-- svg-source:excalidraw -->
  
  <defs>
    <style>
      @font-face {
        font-family: "Virgil";
        src: url("https://excalidraw.com/Virgil.woff2");
      }
      @font-face {
        font-family: "Cascadia";
        src: url("https://excalidraw.com/Cascadia.woff2");
      }
    </style>
  </defs>
  <rect x="0" y="0" width="780" height="1180" fill="#ffffff"></rect><g stroke-linecap="round" transform="translate(10 10) rotate(0 100 40)"><path d="M-0.87 -0.4 L201.74 -3.92 L199.88 82.01 L0.1 78.62" stroke="none" stroke-width="0" fill="#a5d8ff"></path><path d="M0.64 1.71 C46.64 3.71, 89.44 0.88, 202.14 -1.66 M-1.36 0.07 C72.18 3.65, 145.3 1.66, 201.06 -0.65 M197.43 -1.62 C198.5 16.54, 201.19 38.71, 202.35 79.74 M200.69 -1.89 C202.86 21.05, 199.09 39.85, 200.64 81.97 M203.12 78.76 C134.78 78.15, 66.97 77.12, -1.68 80.67 M199.1 78.77 C145.68 78.58, 88.91 80.15, 1.2 79.58 M-1.9 79.45 C1.44 60.26, -0.81 37.05, -1.29 -2.56 M0.53 79.95 C-0.4 61.55, 2.21 40.77, 1.54 1.02" stroke="#1971c2" stroke-width="2" fill="none"></path></g><g transform="translate(15 38.75) rotate(0 95 11.25)"><text x="95" y="23" font-family="Virgil, Segoe UI Emoji" font-size="18px" fill="#1971c2" text-anchor="middle" style="white-space: pre;" direction="ltr">Gap Scanner</text></g><g stroke-linecap="round" transform="translate(290 10) rotate(0 100 40)"><path d="M-3.6 1.81 L198.01 3.31 L197.93 82.63 L-2.81 80.89" stroke="none" stroke-width="0" fill="#d0bfff"></path><path d="M-2.28 -3.45 C67.11 4.99, 137.49 4.6, 199.95 -3.07 M-1.23 1.23 C45.8 2.55, 91.17 1.13, 201.43 1.26 M200.9 -3.24 C199.79 17.41, 197.66 40.23, 196.47 80.03 M201.72 -0.5 C198.88 20.12, 197.11 40.28, 199.01 80.58 M200.65 80.72 C137.49 74.95, 76.36 77.58, 0.01 82.06 M198.62 79.08 C127.13 82.03, 50.81 82.36, 0.37 79.8 M-3.75 77.07 C4.28 50.06, 0.99 21.78, 2.53 -1.93 M-0.68 79.91 C1.23 62.81, -1.07 43.21, 0.5 1.03" stroke="#7048e8" stroke-width="2" fill="none"></path></g><g transform="translate(295 38.75) rotate(0 95 11.25)"><text x="95" y="23" font-family="Virgil, Segoe UI Emoji" font-size="18px" fill="#7048e8" text-anchor="middle" style="white-space: pre;" direction="ltr">LLM Config</text></g><g stroke-linecap="round" transform="translate(290 190) rotate(0 100 40)"><path d="M-0.75 -1.23 L201.26 -2.55 L202.84 79.25 L0.58 80.27" stroke="none" stroke-width="0" fill="#a5d8ff"></path><path d="M0.73 2.28 C40.1 3.21, 82.99 3.44, 202.18 -1.98 M-0.87 -1.04 C42.1 1.57, 83.12 1.04, 200.12 -0.55 M199.83 3.47 C200.25 20.14, 195.63 31.87, 203.06 80.43 M200.82 -1.1 C198.37 25.98, 197.98 50.4, 200.17 78.03 M199.56 77.32 C159.69 79.34, 120.6 78.62, 2.99 80.97 M199.07 81.16 C124.63 82.53, 44.61 82.52, -0.05 80.09 M-2.15 83.19 C-4.68 47.21, 2.5 15.86, 3.54 2.88 M1.27 78.88 C-0.69 62.94, 0.17 45.85, -1.68 -1.39" stroke="#1971c2" stroke-width="2" fill="none"></path></g><g transform="translate(295 218.75) rotate(0 95 11.25)"><text x="95" y="23" font-family="Virgil, Segoe UI Emoji" font-size="18px" fill="#1971c2" text-anchor="middle" style="white-space: pre;" direction="ltr">Prompt Generator</text></g><g stroke-linecap="round" transform="translate(570 190) rotate(0 100 40)"><path d="M2.65 -2.71 L198.44 -1.41 L203.94 77.1 L2.39 83.55" stroke="none" stroke-width="0" fill="#d0bfff"></path><path d="M1.44 0.04 C42.19 -1.83, 86.36 -0.78, 196.94 -0.4 M-1.12 0.74 C77.79 0.9, 152.08 0.39, 198.72 1.74 M203.66 2.16 C203.7 17.82, 203.39 37.34, 201.34 82.88 M200.16 2 C197.82 16.4, 199.8 31.43, 198.55 81.83 M200.94 76.53 C143.5 77.67, 88.58 79.31, 0.87 82.37 M201.53 78.54 C125.78 80.88, 51.33 82.94, 1.26 81.32 M2.73 77.62 C-1.19 59.54, 0.59 40.49, 3.76 -3.74 M1.97 78.06 C-0.43 58.07, -0.61 39.56, -1.57 -0.8" stroke="#7048e8" stroke-width="2" fill="none"></path></g><g transform="translate(575 218.75) rotate(0 95 11.25)"><text x="95" y="23" font-family="Virgil, Segoe UI Emoji" font-size="18px" fill="#7048e8" text-anchor="middle" style="white-space: pre;" direction="ltr">API Call</text></g><g stroke-linecap="round" transform="translate(150 370) rotate(0 100 40)"><path d="M-0.65 -3.4 L202.39 -3.77 L197.16 83.75 L2.89 76.77" stroke="none" stroke-width="0" fill="#e9ecef"></path><path d="M-3.37 3.02 C46.55 -1.41, 94.11 -0.12, 197.38 0.3 M-0.56 -0.3 C48.49 -1.69, 93.66 -2.87, 198.6 -0.12 M196.66 -3.84 C201.6 16.39, 203.59 36.21, 196.5 78.03 M201.99 1.28 C200.61 26.54, 201.82 56.96, 201 81.71 M199.55 83.51 C147.56 79.17, 87.08 75.09, 0.49 83.5 M201.69 81.02 C132.09 78.47, 62.63 78.46, 1.17 79.01 M1.77 82.03 C-0.06 64.55, -3.16 45.62, 1.16 -3.67 M0.02 80.02 C1.73 59.04, -0.83 37.6, -1.83 0.43" stroke="#1e1e1e" stroke-width="2" fill="none"></path></g><g transform="translate(155 400) rotate(0 95 10)"><text x="95" y="20" font-family="Virgil, Segoe UI Emoji" font-size="16px" fill="#1e1e1e" text-anchor="middle" style="white-space: pre;" direction="ltr">CLIP Encode (+)</text></g><g stroke-linecap="round" transform="translate(430 370) rotate(0 100 40)"><path d="M-2.05 1.99 L197.77 3.23 L197.74 79.24 L-1.08 80.53" stroke="none" stroke-width="0" fill="#e9ecef"></path><path d="M-1.76 -3.33 C71.33 1.39, 143.31 4.74, 202.09 -0.36 M0.52 -1.54 C41.29 2.14, 85.59 0.79, 200.77 -0.42 M197.35 0.02 C202.29 21.58, 198.58 40.96, 199.74 78.64 M199.59 1.29 C199.61 21.72, 202.14 43.59, 199.97 80.39 M202.36 77.24 C147.93 85.79, 87.86 86.22, 3.03 79.59 M199.05 78.84 C132.35 82.67, 67.23 80.65, -0.6 78.82 M2.92 79.25 C-1.74 56.6, -3.06 39.79, 0.41 -1.17 M1.18 79.75 C1.95 64.46, 1.83 46.55, -1.83 -0.3" stroke="#1e1e1e" stroke-width="2" fill="none"></path></g><g transform="translate(435 400) rotate(0 95 10)"><text x="95" y="20" font-family="Virgil, Segoe UI Emoji" font-size="16px" fill="#1e1e1e" text-anchor="middle" style="white-space: pre;" direction="ltr">CLIP Encode (-)</text></g><g stroke-linecap="round" transform="translate(10 190) rotate(0 100 40)"><path d="M-2.02 -3.24 L201.49 1.34 L201.39 81.06 L-2.42 83.56" stroke="none" stroke-width="0" fill="#e9ecef"></path><path d="M0.65 3.53 C56.03 -3.17, 111.08 -4.12, 198.38 -3.13 M0.04 -0.05 C48.33 2.56, 97.5 3.15, 199.61 1.52 M198.23 -1.96 C203.86 18.64, 201.42 47.06, 197.42 83.56 M200.61 0.69 C201.15 30.89, 199.26 59.85, 200.07 80.58 M198.12 77.42 C137.56 82.12, 78.64 85.02, -2.92 80.62 M198.36 79.67 C121.13 77.33, 43.24 76.89, 0.14 80.27 M-1.04 77.92 C-3.7 58.94, 1.08 30.72, -3.16 2.72 M0.32 78.61 C-0.5 51.94, -1.73 24.95, -1.24 -0.97" stroke="#1e1e1e" stroke-width="2" fill="none"></path></g><g transform="translate(15 220) rotate(0 95 10)"><text x="95" y="20" font-family="Virgil, Segoe UI Emoji" font-size="16px" fill="#1e1e1e" text-anchor="middle" style="white-space: pre;" direction="ltr">Empty Latent</text></g><g stroke-linecap="round" transform="translate(290 550) rotate(0 100 40)"><path d="M2.85 3.67 L200 2.14 L199.49 82.76 L2.69 82.45" stroke="none" stroke-width="0" fill="#e9ecef"></path><path d="M-0.49 -2.68 C49.72 3.09, 101.85 2.82, 198.84 -2.89 M-1.37 1.02 C72.4 0.06, 145.69 0.99, 198.85 -1.27 M201.56 0.14 C201.78 20.39, 200.9 40.55, 196.48 77.81 M199.22 -0.07 C200.29 30.16, 201.46 57.18, 201.73 78.3 M200.44 81.07 C141.46 78.95, 78.6 78.4, -2.41 78.28 M200.64 78.27 C132.96 77.16, 63.18 79.6, -0.07 79.86 M3.9 77.16 C3.3 64.8, -3.44 38.32, 0.57 3.58 M1.23 79.55 C0.34 59.27, 2.94 42.16, 1.04 1.91" stroke="#1e1e1e" stroke-width="2" fill="none"></path></g><g transform="translate(295 578.75) rotate(0 95 11.25)"><text x="95" y="23" font-family="Virgil, Segoe UI Emoji" font-size="18px" fill="#1e1e1e" text-anchor="middle" style="white-space: pre;" direction="ltr">KSampler</text></g><g stroke-linecap="round" transform="translate(290 730) rotate(0 100 40)"><path d="M3.33 -1.41 L196.17 -2.46 L200.5 83.99 L-3.76 79.28" stroke="none" stroke-width="0" fill="#e9ecef"></path><path d="M-2.01 0.9 C48.65 -2.32, 91.72 -4.78, 199.14 -1.61 M-0.57 0.26 C61.75 3.47, 125.07 4.26, 199.56 -0.28 M199.54 2.85 C201.64 27.16, 199.55 56.38, 200.26 77.16 M199.01 1.92 C199.69 27.15, 200.34 54.59, 200.59 79.83 M202.84 82.18 C150.79 77.26, 108.97 74.96, 1.98 78.59 M199.72 81.74 C124.17 82.06, 46.67 82.05, 1.58 78.53 M-2.73 82.73 C4.49 55.18, 1.11 26.68, -3.77 -1.48 M-1.7 79.28 C0.91 61.14, 0.93 41.63, -0.88 1.46" stroke="#1e1e1e" stroke-width="2" fill="none"></path></g><g transform="translate(295 760) rotate(0 95 10)"><text x="95" y="20" font-family="Virgil, Segoe UI Emoji" font-size="16px" fill="#1e1e1e" text-anchor="middle" style="white-space: pre;" direction="ltr">VAE Decode</text></g><g stroke-linecap="round" transform="translate(290 910) rotate(0 100 40)"><path d="M3.42 -2.49 L196.58 -3.15 L196.5 78.49 L-0.71 82.22" stroke="none" stroke-width="0" fill="#a5d8ff"></path><path d="M1.13 -2.29 C58.75 -2.44, 118.44 -0.68, 202.54 0.55 M1.19 1.53 C58.5 2.72, 115.97 1.2, 199.22 -1.43 M200.75 1.49 C202.65 24.68, 199.63 40.24, 197.4 80.28 M199.24 -1.16 C199.39 24.32, 200.21 47.19, 199.33 78.62 M201.57 82.43 C134.91 81.68, 63.97 81.7, 1.01 77.72 M200.99 78.27 C150.66 78.54, 104.89 80.3, -1.74 79.93 M0.07 79.99 C0.15 50.63, -0.33 19.67, -0.96 -2.09 M0.32 81.83 C1.96 62.21, -1.26 43.63, 0.99 0.01" stroke="#1971c2" stroke-width="2" fill="none"></path></g><g transform="translate(295 938.75) rotate(0 95 11.25)"><text x="95" y="23" font-family="Virgil, Segoe UI Emoji" font-size="18px" fill="#1971c2" text-anchor="middle" style="white-space: pre;" direction="ltr">CRON Scheduler</text></g><g stroke-linecap="round" transform="translate(290 1090) rotate(0 100 40)"><path d="M-1.94 1.04 L199.26 -1.41 L199.22 82.24 L3.35 81.47" stroke="none" stroke-width="0" fill="#a5d8ff"></path><path d="M0.53 -2.14 C45.54 -1.94, 88.51 -2.47, 202.89 -1.51 M-1.6 -0.85 C65 -3.42, 128.72 -2.13, 200.72 -0.3 M202.66 -1.3 C199.34 28.48, 202.49 58.31, 199.72 78.57 M200.94 -1.55 C200.6 29.1, 198.91 56.43, 201.12 81.08 M199.45 77.29 C119.12 86.08, 42.7 83.71, 0.52 80.36 M200.4 80.46 C145.71 77.71, 95.35 78.3, 0.73 79.48 M-0.61 80.72 C-3.78 54.51, -4.86 29.64, 2.81 -2.43 M1.19 80.61 C-2.31 60.68, -0.52 38.45, -1.74 -0.32" stroke="#1971c2" stroke-width="2" fill="none"></path></g><g transform="translate(295 1118.75) rotate(0 95 11.25)"><text x="95" y="23" font-family="Virgil, Segoe UI Emoji" font-size="18px" fill="#1971c2" text-anchor="middle" style="white-space: pre;" direction="ltr">Save As</text></g><g stroke-linecap="round" transform="translate(570 10) rotate(0 100 40)"><path d="M3.93 2.3 L200.91 0.39 L198.92 78.46 L3.49 76.04" stroke="none" stroke-width="0" fill="#fcc2d7"></path><path d="M-2.41 -2.32 C71.59 -4.43, 141.91 -4.33, 197.01 1.53 M1.57 -0.72 C65.99 -1.76, 134.42 -1.21, 198.3 -1.6 M196.23 1.3 C198.85 24.88, 198.3 45.36, 202.46 77.67 M198.36 -1.87 C200.55 25.03, 200.75 51.06, 198.5 78.46 M200.07 83.51 C156.93 75.43, 109.45 79.2, 1.61 81.81 M200.74 80.59 C160.82 81.53, 119.21 82.72, -0.8 81.08 M-0.75 76.12 C4.47 57.83, 3.78 26.3, -2.93 0.39 M1.73 79.05 C1.61 53.05, -0.92 27.37, -1.47 0.85" stroke="#c2255c" stroke-width="2" fill="none"></path></g><g transform="translate(575 40) rotate(0 95 10)"><text x="95" y="20" font-family="Virgil, Segoe UI Emoji" font-size="16px" fill="#c2255c" text-anchor="middle" style="white-space: pre;" direction="ltr">Bulk Prompter</text></g><g stroke-linecap="round"><g transform="translate(110 90) rotate(0 140 50)"><path d="M0 0 C0 8.33, -46.67 41.67, 0 50 C46.67 58.33, 233.33 41.67, 280 50 C326.67 58.33, 280 91.67, 280 100 M0 0 C0 8.33, -46.67 41.67, 0 50 C46.67 58.33, 233.33 41.67, 280 50 C326.67 58.33, 280 91.67, 280 100" stroke="#495057" stroke-width="2" fill="none"></path></g><g transform="translate(110 90) rotate(0 140 50)"><path d="M286.2 75.78 C284.13 83.89, 282.05 91.99, 280 100 M286.2 75.78 C284.19 83.65, 282.17 91.52, 280 100" stroke="#495057" stroke-width="2" fill="none"></path></g><g transform="translate(110 90) rotate(0 140 50)"><path d="M300.32 85.43 C293.52 90.31, 286.72 95.18, 280 100 M300.32 85.43 C293.72 90.17, 287.12 94.9, 280 100" stroke="#495057" stroke-width="2" fill="none"></path></g></g><g transform="translate(186.5 131.875) rotate(0 63.5 8.125)"><text x="63.5" y="16" font-family="Virgil, Segoe UI Emoji" font-size="13px" fill="#495057" text-anchor="middle" style="white-space: pre;" direction="ltr">topic / resolution</text></g><g stroke-linecap="round"><g transform="translate(110 90) rotate(0 0 50)"><path d="M0 0 C0 16.67, 0 83.33, 0 100 M0 0 C0 16.67, 0 83.33, 0 100" stroke="#495057" stroke-width="2" fill="none"></path></g><g transform="translate(110 90) rotate(0 0 50)"><path d="M-10.26 71.81 C-6.98 80.83, -3.69 89.86, 0 100 M-10.26 71.81 C-6.24 82.86, -2.21 93.92, 0 100" stroke="#495057" stroke-width="2" fill="none"></path></g><g transform="translate(110 90) rotate(0 0 50)"><path d="M10.26 71.81 C6.98 80.83, 3.69 89.86, 0 100 M10.26 71.81 C6.24 82.86, 2.21 93.92, 0 100" stroke="#495057" stroke-width="2" fill="none"></path></g></g><g transform="translate(59.5 131.875) rotate(0 50.5 8.125)"><text x="50.5" y="16" font-family="Virgil, Segoe UI Emoji" font-size="13px" fill="#495057" text-anchor="middle" style="white-space: pre;" direction="ltr">width / height</text></g><g stroke-linecap="round"><g transform="translate(390 90) rotate(0 0 50)"><path d="M0 0 C0 16.67, 0 83.33, 0 100 M0 0 C0 16.67, 0 83.33, 0 100" stroke="#495057" stroke-width="2" fill="none"></path></g><g transform="translate(390 90) rotate(0 0 50)"><path d="M-10.26 71.81 C-7.38 79.73, -4.5 87.65, 0 100 M-10.26 71.81 C-6.65 81.74, -3.03 91.67, 0 100" stroke="#495057" stroke-width="2" fill="none"></path></g><g transform="translate(390 90) rotate(0 0 50)"><path d="M10.26 71.81 C7.38 79.73, 4.5 87.65, 0 100 M10.26 71.81 C6.65 81.74, 3.03 91.67, 0 100" stroke="#495057" stroke-width="2" fill="none"></path></g></g><g transform="translate(352.5 131.875) rotate(0 37.5 8.125)"><text x="37.5" y="16" font-family="Virgil, Segoe UI Emoji" font-size="13px" fill="#495057" text-anchor="middle" style="white-space: pre;" direction="ltr">LLM_CONFIG</text></g><g stroke-linecap="round"><g transform="translate(390 90) rotate(0 140 50)"><path d="M0 0 C0 8.33, -46.67 41.67, 0 50 C46.67 58.33, 233.33 41.67, 280 50 C326.67 58.33, 280 91.67, 280 100 M0 0 C0 8.33, -46.67 41.67, 0 50 C46.67 58.33, 233.33 41.67, 280 50 C326.67 58.33, 280 91.67, 280 100" stroke="#495057" stroke-width="2" fill="none"></path></g><g transform="translate(390 90) rotate(0 140 50)"><path d="M286.2 75.78 C283.88 84.86, 281.55 93.95, 280 100 M286.2 75.78 C284.18 83.67, 282.16 91.56, 280 100" stroke="#495057" stroke-width="2" fill="none"></path></g><g transform="translate(390 90) rotate(0 140 50)"><path d="M300.32 85.43 C292.7 90.9, 285.08 96.36, 280 100 M300.32 85.43 C293.7 90.18, 287.08 94.93, 280 100" stroke="#495057" stroke-width="2" fill="none"></path></g></g><g transform="translate(492.5 131.875) rotate(0 37.5 8.125)"><text x="37.5" y="16" font-family="Virgil, Segoe UI Emoji" font-size="13px" fill="#495057" text-anchor="middle" style="white-space: pre;" direction="ltr">LLM_CONFIG</text></g><g stroke-linecap="round"><g transform="translate(390 270) rotate(0 -70 50)"><path d="M0 0 C0 8.33, 23.33 41.67, 0 50 C-23.33 58.33, -116.67 41.67, -140 50 C-163.33 58.33, -140 91.67, -140 100 M0 0 C0 8.33, 23.33 41.67, 0 50 C-23.33 58.33, -116.67 41.67, -140 50 C-163.33 58.33, -140 91.67, -140 100" stroke="#495057" stroke-width="2" fill="none"></path></g><g transform="translate(390 270) rotate(0 -70 50)"><path d="M-155.69 80.54 C-149.44 88.29, -143.18 96.05, -140 100 M-155.69 80.54 C-151.77 85.4, -147.85 90.27, -140 100" stroke="#495057" stroke-width="2" fill="none"></path></g><g transform="translate(390 270) rotate(0 -70 50)"><path d="M-139.51 75 C-139.7 84.97, -139.9 94.93, -140 100 M-139.51 75 C-139.63 81.25, -139.75 87.5, -140 100" stroke="#495057" stroke-width="2" fill="none"></path></g></g><g transform="translate(295.5 311.875) rotate(0 24.5 8.125)"><text x="24.5" y="16" font-family="Virgil, Segoe UI Emoji" font-size="13px" fill="#495057" text-anchor="middle" style="white-space: pre;" direction="ltr">prompt</text></g><g stroke-linecap="round"><g transform="translate(390 270) rotate(0 70 50)"><path d="M0 0 C0 8.33, -23.33 41.67, 0 50 C23.33 58.33, 116.67 41.67, 140 50 C163.33 58.33, 140 91.67, 140 100 M0 0 C0 8.33, -23.33 41.67, 0 50 C23.33 58.33, 116.67 41.67, 140 50 C163.33 58.33, 140 91.67, 140 100" stroke="#495057" stroke-width="2" fill="none"></path></g><g transform="translate(390 270) rotate(0 70 50)"><path d="M139.51 75 C139.66 82.79, 139.81 90.58, 140 100 M139.51 75 C139.62 80.91, 139.74 86.82, 140 100" stroke="#495057" stroke-width="2" fill="none"></path></g><g transform="translate(390 270) rotate(0 70 50)"><path d="M155.69 80.54 C150.8 86.6, 145.92 92.66, 140 100 M155.69 80.54 C151.98 85.14, 148.27 89.74, 140 100" stroke="#495057" stroke-width="2" fill="none"></path></g></g><g transform="translate(429 311.875) rotate(0 31 8.125)"><text x="31" y="16" font-family="Virgil, Segoe UI Emoji" font-size="13px" fill="#495057" text-anchor="middle" style="white-space: pre;" direction="ltr">negative</text></g><g stroke-linecap="round"><g transform="translate(250 450) rotate(0 70 50)"><path d="M0 0 C0 8.33, -23.33 41.67, 0 50 C23.33 58.33, 116.67 41.67, 140 50 C163.33 58.33, 140 91.67, 140 100 M0 0 C0 8.33, -23.33 41.67, 0 50 C23.33 58.33, 116.67 41.67, 140 50 C163.33 58.33, 140 91.67, 140 100" stroke="#495057" stroke-width="2" fill="none"></path></g><g transform="translate(250 450) rotate(0 70 50)"><path d="M139.51 75 C139.66 82.57, 139.81 90.14, 140 100 M139.51 75 C139.69 84.27, 139.87 93.54, 140 100" stroke="#495057" stroke-width="2" fill="none"></path></g><g transform="translate(250 450) rotate(0 70 50)"><path d="M155.69 80.54 C150.94 86.43, 146.19 92.32, 140 100 M155.69 80.54 C149.87 87.75, 144.05 94.97, 140 100" stroke="#495057" stroke-width="2" fill="none"></path></g></g><g stroke-linecap="round"><g transform="translate(530 450) rotate(0 -70 50)"><path d="M0 0 C0 8.33, 23.33 41.67, 0 50 C-23.33 58.33, -116.67 41.67, -140 50 C-163.33 58.33, -140 91.67, -140 100 M0 0 C0 8.33, 23.33 41.67, 0 50 C-23.33 58.33, -116.67 41.67, -140 50 C-163.33 58.33, -140 91.67, -140 100" stroke="#495057" stroke-width="2" fill="none"></path></g><g transform="translate(530 450) rotate(0 -70 50)"><path d="M-155.69 80.54 C-151.95 85.17, -148.21 89.81, -140 100 M-155.69 80.54 C-152.23 84.83, -148.77 89.13, -140 100" stroke="#495057" stroke-width="2" fill="none"></path></g><g transform="translate(530 450) rotate(0 -70 50)"><path d="M-139.51 75 C-139.63 80.96, -139.74 86.91, -140 100 M-139.51 75 C-139.62 80.52, -139.73 86.04, -140 100" stroke="#495057" stroke-width="2" fill="none"></path></g></g><g stroke-linecap="round"><g transform="translate(110 270) rotate(0 140 140)"><path d="M0 0 C0 23.33, -46.67 116.67, 0 140 C46.67 163.33, 233.33 116.67, 280 140 C326.67 163.33, 280 256.67, 280 280 M0 0 C0 23.33, -46.67 116.67, 0 140 C46.67 163.33, 233.33 116.67, 280 140 C326.67 163.33, 280 256.67, 280 280" stroke="#495057" stroke-width="2" fill="none"></path></g><g transform="translate(110 270) rotate(0 140 140)"><path d="M276.72 250.18 C278.03 262.07, 279.33 273.95, 280 280 M276.72 250.18 C277.5 257.27, 278.28 264.35, 280 280" stroke="#495057" stroke-width="2" fill="none"></path></g><g transform="translate(110 270) rotate(0 140 140)"><path d="M296.66 255.05 C290.02 264.99, 283.38 274.94, 280 280 M296.66 255.05 C292.7 260.98, 288.74 266.91, 280 280" stroke="#495057" stroke-width="2" fill="none"></path></g></g><g stroke-linecap="round"><g transform="translate(390 630) rotate(0 0 50)"><path d="M0 0 C0 16.67, 0 83.33, 0 100 M0 0 C0 16.67, 0 83.33, 0 100" stroke="#495057" stroke-width="2" fill="none"></path></g><g transform="translate(390 630) rotate(0 0 50)"><path d="M-10.26 71.81 C-6.87 81.13, -3.48 90.45, 0 100 M-10.26 71.81 C-6.16 83.07, -2.06 94.34, 0 100" stroke="#495057" stroke-width="2" fill="none"></path></g><g transform="translate(390 630) rotate(0 0 50)"><path d="M10.26 71.81 C6.87 81.13, 3.48 90.45, 0 100 M10.26 71.81 C6.16 83.07, 2.06 94.34, 0 100" stroke="#495057" stroke-width="2" fill="none"></path></g></g><g stroke-linecap="round"><g transform="translate(390 810) rotate(0 0 50)"><path d="M0 0 C0 16.67, 0 83.33, 0 100 M0 0 C0 16.67, 0 83.33, 0 100" stroke="#495057" stroke-width="2" fill="none"></path></g><g transform="translate(390 810) rotate(0 0 50)"><path d="M-10.26 71.81 C-7.42 79.62, -4.57 87.44, 0 100 M-10.26 71.81 C-6.72 81.53, -3.18 91.26, 0 100" stroke="#495057" stroke-width="2" fill="none"></path></g><g transform="translate(390 810) rotate(0 0 50)"><path d="M10.26 71.81 C7.42 79.62, 4.57 87.44, 0 100 M10.26 71.81 C6.72 81.53, 3.18 91.26, 0 100" stroke="#495057" stroke-width="2" fill="none"></path></g></g><g transform="translate(368.75 851.875) rotate(0 21.25 8.125)"><text x="21.25" y="16" font-family="Virgil, Segoe UI Emoji" font-size="13px" fill="#495057" text-anchor="middle" style="white-space: pre;" direction="ltr">image</text></g><g stroke-linecap="round"><g transform="translate(390 990) rotate(0 0 50)"><path d="M0 0 C0 16.67, 0 83.33, 0 100 M0 0 C0 16.67, 0 83.33, 0 100" stroke="#495057" stroke-width="2" fill="none"></path></g><g transform="translate(390 990) rotate(0 0 50)"><path d="M-10.26 71.81 C-7.37 79.75, -4.48 87.68, 0 100 M-10.26 71.81 C-7.41 79.65, -4.55 87.49, 0 100" stroke="#495057" stroke-width="2" fill="none"></path></g><g transform="translate(390 990) rotate(0 0 50)"><path d="M10.26 71.81 C7.37 79.75, 4.48 87.68, 0 100 M10.26 71.81 C7.41 79.65, 4.55 87.49, 0 100" stroke="#495057" stroke-width="2" fill="none"></path></g></g><g transform="translate(349.25 1031.875) rotate(0 40.75 8.125)"><text x="40.75" y="16" font-family="Virgil, Segoe UI Emoji" font-size="13px" fill="#495057" text-anchor="middle" style="white-space: pre;" direction="ltr">passthrough</text></g></svg>