<svg version="1.1" xmlns="http://www.w3.org/2000/svg" viewBox="0 0 2070 1785" width="2070" height="1785">
  <!-- svg-source:excalidraw -->
  
  <defs>
    <style>
      @font-face {
        font-family: "Virgil";
        src: url("https://excalidraw.com/Virgil.woff2");
      }
      @font-face {
        font-family: "Cascadia";
        src: url("https://excalidraw.com/Cascadia.woff2");
      }
    </style>
  </defs>
  <rect x="0" y="0" width="2070" height="1785" fill="#ffffff"></rect><g transform="translate(418 10) rotate(0 167 15)"><text x="167" y="30" font-family="Virgil, Segoe UI Emoji" font-size="24px" fill="#1e1e1e" text-anchor="middle" style="white-space: pre;" direction="ltr">ComfyUI Pipeline Automation</text></g><g stroke-opacity="0.3" fill-opacity="0.3" stroke-linecap="round" transform="translate(960 60) rotate(0 550 107.5)"><path d="M-1.79 3 L1099.84 1.76 L1099.45 211.27 L-3.52 214.18" stroke="none" stroke-width="0" fill="#e9ecef"></path><path d="M-0.78 1.34 C355.9 -3.22, 708.36 -1.55, 1100.22 -0.8 M1103.03 2.41 C1103.03 39.88, 1101.12 83.04, 1096.73 217.73 M1099.08 214.73 C669.51 208.13, 236.79 208.25, -0.85 213.62 M1.44 217.45 C-3.3 155.91, -3.16 93.56, 2.55 -2.45" stroke="#868e96" stroke-width="2.5" fill="none" stroke-dasharray="8 10"></path></g><g transform="translate(960 70) rotate(0 5 10)"><text x="0" y="20" font-family="Virgil, Segoe UI Emoji" font-size="16px" fill="#868e96" text-anchor="start" style="white-space: pre;" direction="ltr">Config &amp; Input</text></g><g stroke-opacity="0.3" fill-opacity="0.3" stroke-linecap="round" transform="translate(390 310) rotate(0 360 107.5)"><path d="M-0.71 3.19 L719.04 -0.01 L720.04 218.59 L0.47 214.57" stroke="none" stroke-width="0" fill="#f3f0ff"></path><path d="M0.4 0.41 C145.86 0.78, 290.53 -1.54, 720.99 0.43 M721.68 -2.66 C718.96 48.93, 721.1 92.39, 722.72 216.53 M720.82 215.11 C550.98 216.1, 382.97 216.65, -1.29 214.18 M2.19 216.31 C-3.81 150.43, -0.47 84.84, 3.48 0.27" stroke="#7048e8" stroke-width="2.5" fill="none" stroke-dasharray="8 10"></path></g><g transform="translate(390 320) rotate(0 5 10)"><text x="0" y="20" font-family="Virgil, Segoe UI Emoji" font-size="16px" fill="#7048e8" text-anchor="start" style="white-space: pre;" direction="ltr">Prompt Generation</text></g><g stroke-opacity="0.3" fill-opacity="0.3" stroke-linecap="round" transform="translate(10 310) rotate(0 455 482.5)"><path d="M0.12 -1.64 L912.49 1.41 L912.77 968.35 L0.15 963.42" stroke="none" stroke-width="0" fill="#e7f5ff"></path><path d="M-0.53 -0.69 C196.73 -2.32, 395.4 -0.03, 910.43 -0.72 M911.26 1.51 C906.33 275.77, 905.73 549.57, 910.68 963.49 M909.77 964.16 C627.92 969.39, 347.7 969.85, -0.54 965.46 M1.02 965.6 C-5.11 746.7, -3.22 526.21, -0.39 -0.6" stroke="#1971c2" stroke-width="2.5" fill="none" stroke-dasharray="8 10"></path></g><g transform="translate(10 320) rotate(0 5 10)"><text x="0" y="20" font-family="Virgil, Segoe UI Emoji" font-size="16px" fill="#1971c2" text-anchor="start" style="white-space: pre;" direction="ltr">ComfyUI Pipeline</text></g><g stroke-opacity="0.3" fill-opacity="0.3" stroke-linecap="round" transform="translate(390 1310) rotate(0 170 232.5)"><path d="M2.29 -0.99 L341.86 -0.85 L343.48 464.17 L3.43 468.67" stroke="none" stroke-width="0" fill="#ebfbee"></path><path d="M-0.6 -2.58 C102.56 0.24, 198.05 -0.05, 340.86 -1.98 M338.5 0.17 C339.58 95.04, 339.58 190.98, 339.59 466.3 M341.12 463.03 C255.7 469, 170.1 467.12, 1.26 464.7 M0.22 463.21 C2.01 291.34, 2.63 116.11, 1.28 0.64" stroke="#2f9e44" stroke-width="2.5" fill="none" stroke-dasharray="8 10"></path></g><g transform="translate(390 1320) rotate(0 5 10)"><text x="0" y="20" font-family="Virgil, Segoe UI Emoji" font-size="16px" fill="#2f9e44" text-anchor="start" style="white-space: pre;" direction="ltr">Scheduling &amp; Output</text></g><g stroke-linecap="round" transform="translate(1010 115) rotate(0 115 50)"><path d="M-1.99 2.73 L228.24 4 L233.21 102.84 L-2.94 97.3" stroke="none" stroke-width="0" fill="#a5d8ff"></path><path d="M2.85 0.38 C62.78 -4.87, 130.55 -5.2, 227.79 3.28 M1.03 0.23 C56.97 0.34, 116.88 -0.56, 229.61 -0.67 M233.24 2.52 C228.26 34.43, 228 63.12, 229.13 101.71 M231.05 -0.54 C229.69 20.66, 230.66 44.71, 228.4 98.47 M232.37 99.33 C171.29 98.02, 108.42 104.03, -0.34 100.16 M231.01 101.2 C152.09 98.85, 74.15 101.52, -1.47 98.89 M1.77 103.68 C-5.08 60.79, 0.74 31.97, -3.93 -3.36 M-0.31 100.97 C0.94 75.67, -0.57 54.6, -0.78 -1.64" stroke="#1971c2" stroke-width="2" fill="none"></path></g><g transform="translate(1015 155) rotate(0 110 10)"><text x="110" y="20" font-family="Virgil, Segoe UI Emoji" font-size="16px" fill="#1971c2" text-anchor="middle" style="white-space: pre;" direction="ltr">Gap Scanner</text></g><g stroke-linecap="round" transform="translate(1390 115) rotate(0 115 50)"><path d="M1.39 -0.09 L229.79 -1.05 L229.63 98.27 L1.99 100.61" stroke="none" stroke-width="0" fill="#d0bfff"></path><path d="M0.85 2.3 C78.76 2.81, 148.82 1.4, 229.17 -1.77 M-0.5 0.48 C60.47 -5.25, 121.64 -2.13, 228.93 0.12 M230.8 -3.4 C234.17 36.33, 235.75 72.5, 229.91 98.35 M230.92 -1.79 C230.78 30.65, 229.13 66.86, 230.47 101.87 M232.25 98.99 C164.09 107.07, 106.08 104.63, 1.54 98.5 M230.91 99.33 C165.96 98.87, 101.42 98.85, -0.24 101.34 M2.27 97.65 C5.31 80.38, -0.33 58.52, -1.78 1.37 M-1.3 98.11 C0.3 67.34, -0.58 30.63, -1.51 0.55" stroke="#7048e8" stroke-width="2" fill="none"></path></g><g transform="translate(1395 155) rotate(0 110 10)"><text x="110" y="20" font-family="Virgil, Segoe UI Emoji" font-size="16px" fill="#7048e8" text-anchor="middle" style="white-space: pre;" direction="ltr">LLM Config</text></g><g stroke-linecap="round" transform="translate(1770 115) rotate(0 115 50)"><path d="M-2.81 -1.6 L228.38 0.45 L233.88 101.34 L-1.35 100.8" stroke="none" stroke-width="0" fill="#fcc2d7"></path><path d="M-1.84 2.99 C85.92 1.06, 180.65 0.59, 228.73 -1.96 M-0.5 -0.36 C46.27 4.73, 94.36 2.16, 229.79 0.6 M229.56 -0.36 C232.23 39.09, 227.83 72.87, 232.46 101.89 M231.94 -1.81 C229.4 29.59, 227.56 56.17, 231.94 101.8 M227.36 100.09 C171.65 102.35, 114.53 103.35, 2.7 101.36 M231.36 100.8 C155.55 101.89, 79.01 102.24, -1.66 101.25 M3.98 101.16 C-0.49 81.26, 0.34 56.43, 2.09 0.64 M0.34 99.21 C2.31 72.72, 1.46 43.8, -1.64 0.87" stroke="#c2255c" stroke-width="2" fill="none"></path></g><g transform="translate(1775 155) rotate(0 110 10)"><text x="110" y="20" font-family="Virgil, Segoe UI Emoji" font-size="16px" fill="#c2255c" text-anchor="middle" style="white-space: pre;" direction="ltr">Bulk Prompter</text></g><g stroke-linecap="round" transform="translate(440 365) rotate(0 115 50)"><path d="M2.94 -3.29 L226.91 -1.92 L232.54 98.98 L-2.41 96.73" stroke="none" stroke-width="0" fill="#a5d8ff"></path><path d="M-1.26 -0.26 C92.76 -0.27, 179.88 -2.92, 227.19 3.2 M-1.5 0.53 C86.28 -1.56, 174.51 -2.23, 230.58 -1.55 M226.25 0.62 C226.79 22.18, 231.17 38.4, 226.56 103.81 M229.33 -1.7 C229.01 34.29, 227.93 66.77, 229.75 100.28 M227.63 102.65 C187.01 96.01, 138.67 101.47, 0.81 103.17 M229.34 100.61 C165.51 99.45, 103.61 99.91, -1.42 99.34 M-1.67 103.61 C5.28 64.18, 5.47 26.11, 2.28 -3.45 M0.25 101.1 C0.17 62.97, 0.15 26.76, 1.85 -1.39" stroke="#1971c2" stroke-width="2" fill="none"></path></g><g transform="translate(445 405) rotate(0 110 10)"><text x="110" y="20" font-family="Virgil, Segoe UI Emoji" font-size="16px" fill="#1971c2" text-anchor="middle" style="white-space: pre;" direction="ltr">Prompt Generator</text></g><g stroke-linecap="round" transform="translate(820 365) rotate(0 115 50)"><path d="M2.15 -2.26 L232.85 -0.77 L233.64 100.59 L1.59 99.91" stroke="none" stroke-width="0" fill="#d0bfff"></path><path d="M-0.09 -0.55 C61.85 -4.08, 124.11 -3.5, 233.04 1.67 M-1.37 -1.1 C89.15 4.98, 177.73 4.07, 231.08 -1.2 M228.19 3.94 C228.29 28.65, 226.11 50.26, 230.99 103.48 M229.38 0.3 C227.88 37.71, 231.36 74.18, 231.92 101.38 M231.86 103.06 C161.82 100.03, 97.72 100.48, 3.01 102.32 M230.87 99.1 C175.57 100.27, 121.99 100.31, -1.1 101.13 M-0.41 100.16 C-0.88 60.16, -3.28 22.07, -2.5 -0.67 M-1.34 98.93 C0.32 62, -1.83 20.2, -1.23 1.78" stroke="#7048e8" stroke-width="2" fill="none"></path></g><g transform="translate(825 405) rotate(0 110 10)"><text x="110" y="20" font-family="Virgil, Segoe UI Emoji" font-size="16px" fill="#7048e8" text-anchor="middle" style="white-space: pre;" direction="ltr">API Call</text></g><g stroke-linecap="round" transform="translate(250 615) rotate(0 115 50)"><path d="M-1.11 -0.88 L231.8 0.33 L227.17 100.92 L-2.94 99.27" stroke="none" stroke-width="0" fill="#e9ecef"></path><path d="M-2.3 1.04 C59.52 4.49, 123.38 3.21, 233.1 -1.21 M-0.99 -0.52 C60.81 3.66, 122.43 4.89, 228.63 0.99 M231.73 1.12 C229.01 28.03, 229.16 61.42, 231.17 97.76 M229.49 -1.96 C232.55 26.21, 230.73 50.08, 229.61 100.1 M230.43 100.48 C139.4 99.48, 50.64 100.75, -1.48 102.95 M229.82 99.07 C171.18 101.17, 113.8 101.48, 1.6 101.26 M3.19 98.28 C-1.35 58.67, 0.46 25.53, -3.58 3.15 M-1.99 99.17 C0.39 65.44, 0.02 25.91, -1.23 1.31" stroke="#1e1e1e" stroke-width="2" fill="none"></path></g><g transform="translate(255 655) rotate(0 110 10)"><text x="110" y="20" font-family="Virgil, Segoe UI Emoji" font-size="16px" fill="#1e1e1e" text-anchor="middle" style="white-space: pre;" direction="ltr">CLIP Encode (+)</text></g><g stroke-linecap="round" transform="translate(630 615) rotate(0 115 50)"><path d="M3.13 0.69 L226.78 3.05 L226.08 96.44 L0.32 96.6" stroke="none" stroke-width="0" fill="#e9ecef"></path><path d="M-2.94 -2.03 C85.53 0.8, 171.48 3.23, 232.1 0.54 M1.55 -0.1 C58.58 1.11, 114.37 1.22, 230.26 -0.83 M229.07 -1.95 C233.81 34.35, 235.24 60.84, 229.38 100.81 M229.17 1.85 C229.64 27.9, 229.98 55.1, 231.45 101.91 M227.92 98.83 C181.05 103.81, 131.02 105.82, 0.79 102.4 M229.6 100.82 C138.87 96.72, 50.07 97.61, 0.41 99.71 M-0.12 97.37 C-1.61 69.07, 1.5 46.98, 2.3 -2.71 M1.83 101.86 C0.14 67.44, 0.99 36.74, -1 1.29" stroke="#1e1e1e" stroke-width="2" fill="none"></path></g><g transform="translate(635 655) rotate(0 110 10)"><text x="110" y="20" font-family="Virgil, Segoe UI Emoji" font-size="16px" fill="#1e1e1e" text-anchor="middle" style="white-space: pre;" direction="ltr">CLIP Encode (-)</text></g><g stroke-linecap="round" transform="translate(60 365) rotate(0 115 50)"><path d="M1.65 -3.77 L228 -2.54 L228.79 100.7 L-2.08 100.84" stroke="none" stroke-width="0" fill="#e9ecef"></path><path d="M2.28 0.65 C50.41 2.92, 99.35 2.67, 231.87 -0.35 M0.64 0.08 C77.42 -2.35, 156.1 -2.18, 229.22 1.04 M231.77 3.02 C231.92 23.96, 227.73 52.62, 232.44 99.8 M230.3 -0.62 C227.3 37.53, 228.82 72.88, 228.78 99.14 M230.04 96.9 C149.64 99.67, 70.52 100.18, 0.82 99 M231.29 101.14 C144.6 99.36, 56.87 97.46, 1.12 101.56 M-3.71 96.11 C1.32 70.66, 3.27 40.82, 2.01 -3.64 M0.23 98.9 C-2.18 74.41, -0.32 53.26, -1.75 -0.93" stroke="#1e1e1e" stroke-width="2" fill="none"></path></g><g transform="translate(65 405) rotate(0 110 10)"><text x="110" y="20" font-family="Virgil, Segoe UI Emoji" font-size="16px" fill="#1e1e1e" text-anchor="middle" style="white-space: pre;" direction="ltr">Empty Latent</text></g><g stroke-linecap="round" transform="translate(440 865) rotate(0 115 50)"><path d="M-1.9 3.39 L228.51 -2.62 L232.63 96.04 L-2.93 98.84" stroke="none" stroke-width="0" fill="#e9ecef"></path><path d="M-0.24 1.04 C60.51 0.74, 130.31 5.76, 230.26 2.63 M0.46 -1.56 C59.2 4.23, 122.12 3.47, 231 -0.93 M228.93 1.6 C230.77 33.45, 230.78 57.41, 233.15 103.31 M229.02 1.65 C226.31 23.37, 230.02 40.93, 228.38 98.98 M227.66 98.33 C165.96 99.46, 103.05 97.04, 2.72 101.43 M228.39 99.38 C175.15 99.63, 122 97.16, 0.28 98.57 M3.88 100.11 C-1.99 80.84, -3.91 53.63, -2.43 -0.55 M-0.59 99.67 C2.77 79.87, -0.59 60.61, -0.41 -0.21" stroke="#1e1e1e" stroke-width="2" fill="none"></path></g><g transform="translate(445 905) rotate(0 110 10)"><text x="110" y="20" font-family="Virgil, Segoe UI Emoji" font-size="16px" fill="#1e1e1e" text-anchor="middle" style="white-space: pre;" direction="ltr">KSampler</text></g><g stroke-linecap="round" transform="translate(440 1115) rotate(0 115 50)"><path d="M0.37 2.82 L228.48 -1.25 L229.22 96.81 L-0.64 101.46" stroke="none" stroke-width="0" fill="#e9ecef"></path><path d="M3.07 2.17 C75.77 -2.91, 148.5 0.97, 229.41 -1.34 M-0.69 -1.04 C78.52 -0.37, 159.78 -1.11, 228.43 -0.68 M227.64 0.23 C228.86 27.84, 228.98 56.74, 226.32 96.09 M230.44 0.86 C233.76 36.63, 231.17 69.64, 231.74 100.14 M229.28 97.85 C172.49 97.6, 111.54 98.67, 3.05 97.52 M228.4 99.11 C160.67 102.27, 93.3 100.35, -0.53 99.41 M2.94 102.26 C0.78 78.73, 4.79 58.26, 3.76 3.64 M-1 99.63 C-1.16 65.53, 0.46 33.25, 1.77 1.79" stroke="#1e1e1e" stroke-width="2" fill="none"></path></g><g transform="translate(445 1155) rotate(0 110 10)"><text x="110" y="20" font-family="Virgil, Segoe UI Emoji" font-size="16px" fill="#1e1e1e" text-anchor="middle" style="white-space: pre;" direction="ltr">VAE Decode</text></g><g stroke-linecap="round" transform="translate(440 1365) rotate(0 115 50)"><path d="M-3.27 -1.83 L231.74 3.43 L227.95 102.11 L-3.35 99.29" stroke="none" stroke-width="0" fill="#a5d8ff"></path><path d="M-1.12 -3.16 C87.65 -2.05, 179.51 -2.02, 228.44 -0.77 M-1.15 0.83 C57.49 -1.81, 113.91 -3.63, 230.54 1.34 M229.44 0.94 C233.59 37.41, 233.97 67.79, 227.81 100.92 M231.98 0.32 C230.35 32.34, 231.06 60.54, 232 99.38 M227.45 99.5 C174.64 101.21, 120.88 100.64, 2.43 99.43 M229.65 101.28 C151.25 98.66, 71.88 100.71, 0.75 98.49 M-0.1 99.55 C-1.54 61.63, 3.6 32.08, -0.79 -2.18 M-1.53 99.85 C0.07 69.49, -1.16 41.45, -1.72 -0.54" stroke="#1971c2" stroke-width="2" fill="none"></path></g><g transform="translate(445 1405) rotate(0 110 10)"><text x="110" y="20" font-family="Virgil, Segoe UI Emoji" font-size="16px" fill="#1971c2" text-anchor="middle" style="white-space: pre;" direction="ltr">CRON Scheduler</text></g><g stroke-linecap="round" transform="translate(440 1615) rotate(0 115 50)"><path d="M-2.67 3.34 L233.76 -3.57 L231.45 99.29 L0.83 102.58" stroke="none" stroke-width="0" fill="#a5d8ff"></path><path d="M-2.72 -0.84 C61.79 2.96, 123.25 4.9, 227.85 0.39 M1.43 0.09 C46.07 4.79, 94.03 5.06, 229.52 0.54 M228.19 1.1 C226.84 35.42, 224.67 70.47, 227.72 99.64 M228.56 -0.62 C229.1 22.54, 231.57 45.67, 228.62 101.2 M226.79 98.81 C172.01 97.77, 122.19 97.71, -0.2 102.06 M229.23 101.51 C175.97 103.21, 120.88 103.92, -0.75 100.71 M1.95 101.72 C-4.79 67.49, 0.71 37.29, -2.32 -0.72 M0.93 99.43 C-0.51 62.19, -0.67 28.27, -0.19 0.33" stroke="#1971c2" stroke-width="2" fill="none"></path></g><g transform="translate(445 1655) rotate(0 110 10)"><text x="110" y="20" font-family="Virgil, Segoe UI Emoji" font-size="16px" fill="#1971c2" text-anchor="middle" style="white-space: pre;" direction="ltr">Save As</text></g><g stroke-linecap="round"><g transform="translate(1003.6736943296485 218.21329196068052) rotate(0 -163.67369432964847 71.78670803931948)"><path d="M0.79 -1.02 C-53.63 22.73, -272.02 119.23, -326.73 143.52 M-0.25 1.06 C-54.77 25.54, -272.68 121.38, -327.36 145.04" stroke="#495057" stroke-width="2" fill="none"></path></g><g transform="translate(1003.6736943296485 218.21329196068052) rotate(0 -163.67369432964847 71.78670803931948)"><path d="M-307.33 125.37 C-311.74 130.18, -315.92 136.41, -326.94 145.27 M-306.22 123.64 C-313.01 132.04, -319.61 138.35, -327.93 145.7" stroke="#495057" stroke-width="2" fill="none"></path></g><g transform="translate(1003.6736943296485 218.21329196068052) rotate(0 -163.67369432964847 71.78670803931948)"><path d="M-299.11 144.18 C-306.03 143.67, -312.55 144.52, -326.94 145.27 M-298 142.44 C-307.41 144.54, -316.78 144.52, -327.93 145.7" stroke="#495057" stroke-width="2" fill="none"></path></g></g><g transform="translate(776.5 281.875) rotate(0 63.5 8.125)"><text x="63.5" y="16" font-family="Virgil, Segoe UI Emoji" font-size="13px" fill="#495057" text-anchor="middle" style="white-space: pre;" direction="ltr">topic / resolution</text></g><g stroke-linecap="round"><g transform="translate(1002.2634037018988 197.299104288974) rotate(0 -352.2634037018988 92.700895711026)"><path d="M0.7 -0.28 C-116.86 30.6, -586.88 154.46, -704.22 185.36 M-0.39 -1.47 C-118.19 29.6, -587.82 155.57, -705.01 186.88" stroke="#495057" stroke-width="2" fill="none"></path></g><g transform="translate(1002.2634037018988 197.299104288974) rotate(0 -352.2634037018988 92.700895711026)"><path d="M-680.9 170.18 C-690.24 178.55, -700.31 183.15, -706.5 188.25 M-681.43 169.28 C-688.02 174.44, -692.76 179.47, -704.94 186.56" stroke="#495057" stroke-width="2" fill="none"></path></g><g transform="translate(1002.2634037018988 197.299104288974) rotate(0 -352.2634037018988 92.700895711026)"><path d="M-675.59 190.01 C-687.06 190.54, -699.24 187.27, -706.5 188.25 M-676.13 189.1 C-684.2 188.94, -690.38 188.62, -704.94 186.56" stroke="#495057" stroke-width="2" fill="none"></path></g></g><g transform="translate(599.5 281.875) rotate(0 50.5 8.125)"><text x="50.5" y="16" font-family="Virgil, Segoe UI Emoji" font-size="13px" fill="#495057" text-anchor="middle" style="white-space: pre;" direction="ltr">width / height</text></g><g stroke-linecap="round"><g transform="translate(1382.2634037018988 197.299104288974) rotate(0 -352.2634037018988 92.700895711026)"><path d="M-0.96 0.98 C-118.33 31.91, -587 153.91, -704.14 184.47" stroke="#495057" stroke-width="2.5" fill="none" stroke-dasharray="8 10"></path></g><g transform="translate(1382.2634037018988 197.299104288974) rotate(0 -352.2634037018988 92.700895711026)"><path d="M-677.81 168.09 C-688.69 173.66, -696.43 178.33, -704.19 183.36" stroke="#495057" stroke-width="2.5" fill="none"></path></g><g transform="translate(1382.2634037018988 197.299104288974) rotate(0 -352.2634037018988 92.700895711026)"><path d="M-672.63 187.94 C-684.91 187.41, -694.23 186.03, -704.19 183.36" stroke="#495057" stroke-width="2.5" fill="none"></path></g></g><g transform="translate(992.5 281.875) rotate(0 37.5 8.125)"><text x="37.5" y="16" font-family="Virgil, Segoe UI Emoji" font-size="13px" fill="#495057" text-anchor="middle" style="white-space: pre;" direction="ltr">LLM_CONFIG</text></g><g stroke-linecap="round"><g transform="translate(1383.6736943296482 218.21329196068052) rotate(0 -163.67369432964836 71.78670803931948)"><path d="M-0.09 0.82 C-54.54 24.69, -273.12 119.91, -327.7 143.86" stroke="#495057" stroke-width="2.5" fill="none" stroke-dasharray="8 10"></path></g><g transform="translate(1383.6736943296482 218.21329196068052) rotate(0 -163.67369432964836 71.78670803931948)"><path d="M-304.62 122.58 C-310.08 127.26, -313.72 133.64, -329.54 145.08" stroke="#495057" stroke-width="2.5" fill="none"></path></g><g transform="translate(1383.6736943296482 218.21329196068052) rotate(0 -163.67369432964836 71.78670803931948)"><path d="M-296.4 141.38 C-303.73 142.01, -309.14 144.34, -329.54 145.08" stroke="#495057" stroke-width="2.5" fill="none"></path></g></g><g transform="translate(1182.5 281.875) rotate(0 37.5 8.125)"><text x="37.5" y="16" font-family="Virgil, Segoe UI Emoji" font-size="13px" fill="#495057" text-anchor="middle" style="white-space: pre;" direction="ltr">LLM_CONFIG</text></g><g stroke-linecap="round"><g transform="translate(512.1593338597315 471.36929755298485) rotate(0 -52.15933385973153 68.63070244701518)"><path d="M0.01 -0.94 C-17.25 21.67, -87.51 113.69, -104.75 136.6 M-1.44 1.18 C-18.79 23.85, -88.88 115.08, -105.92 137.79" stroke="#495057" stroke-width="2" fill="none"></path></g><g transform="translate(512.1593338597315 471.36929755298485) rotate(0 -52.15933385973153 68.63070244701518)"><path d="M-98.58 108.43 C-99.69 116.48, -101.65 119.32, -106.52 139.04 M-96.23 108.67 C-98.8 115.46, -101.11 119.97, -105.65 137.94" stroke="#495057" stroke-width="2" fill="none"></path></g><g transform="translate(512.1593338597315 471.36929755298485) rotate(0 -52.15933385973153 68.63070244701518)"><path d="M-82.25 120.85 C-86.76 126.39, -92.02 126.72, -106.52 139.04 M-79.9 121.1 C-85.65 125.35, -91.26 127.35, -105.65 137.94" stroke="#495057" stroke-width="2" fill="none"></path></g></g><g transform="translate(435.5 531.875) rotate(0 24.5 8.125)"><text x="24.5" y="16" font-family="Virgil, Segoe UI Emoji" font-size="13px" fill="#495057" text-anchor="middle" style="white-space: pre;" direction="ltr">prompt</text></g><g stroke-linecap="round"><g transform="translate(597.8406661402685 471.36929755298485) rotate(0 52.15933385973153 68.63070244701518)"><path d="M1.12 -0.47 C18.55 22.16, 87.97 113.48, 105.25 136.41 M0.25 -1.77 C17.54 20.94, 87.45 114.15, 104.79 137.51" stroke="#495057" stroke-width="2" fill="none"></path></g><g transform="translate(597.8406661402685 471.36929755298485) rotate(0 52.15933385973153 68.63070244701518)"><path d="M78.91 122.62 C87.39 127.55, 97.58 132.94, 106.15 135.96 M79.86 121.83 C86.2 124.31, 91.3 128.5, 104.72 137.17" stroke="#495057" stroke-width="2" fill="none"></path></g><g transform="translate(597.8406661402685 471.36929755298485) rotate(0 52.15933385973153 68.63070244701518)"><path d="M95.35 110.34 C97.98 119.84, 102.26 129.64, 106.15 135.96 M96.3 109.55 C99.12 114.75, 100.64 121.62, 104.72 137.17" stroke="#495057" stroke-width="2" fill="none"></path></g></g><g transform="translate(619 531.875) rotate(0 31 8.125)"><text x="31" y="16" font-family="Virgil, Segoe UI Emoji" font-size="13px" fill="#495057" text-anchor="middle" style="white-space: pre;" direction="ltr">negative</text></g><g stroke-linecap="round"><g transform="translate(407.84066614026847 721.3692975529848) rotate(0 52.15933385973153 68.63070244701521)"><path d="M-0.87 0.97 C16.48 23.82, 85.77 115.57, 103.32 138.18 M0.87 0.43 C18.66 23.47, 88.36 113.67, 105.5 136.54" stroke="#495057" stroke-width="2" fill="none"></path></g><g transform="translate(407.84066614026847 721.3692975529848) rotate(0 52.15933385973153 68.63070244701521)"><path d="M81.86 118.68 C87.77 124.45, 91.07 127.97, 103.88 137.43 M80.97 120.8 C86.46 125.03, 93.89 128.44, 105.9 137.03" stroke="#495057" stroke-width="2" fill="none"></path></g><g transform="translate(407.84066614026847 721.3692975529848) rotate(0 52.15933385973153 68.63070244701521)"><path d="M98.17 106.23 C100.42 114.76, 99.95 121.17, 103.88 137.43 M97.29 108.35 C98.26 116.14, 101.23 122.95, 105.9 137.03" stroke="#495057" stroke-width="2" fill="none"></path></g></g><g stroke-linecap="round"><g transform="translate(702.1593338597315 721.3692975529848) rotate(0 -52.15933385973153 68.63070244701521)"><path d="M-0.59 -1.09 C-17.89 21.67, -85.94 113.54, -103.15 136.76 M1.31 0.95 C-16.11 23.85, -85.88 115.47, -103.49 138.04" stroke="#495057" stroke-width="2" fill="none"></path></g><g transform="translate(702.1593338597315 721.3692975529848) rotate(0 -52.15933385973153 68.63070244701521)"><path d="M-96.24 111.38 C-98.44 120.39, -99.24 129.73, -101.59 137.55 M-95.1 110.19 C-96.86 120.55, -101.36 131.3, -103.9 137.28" stroke="#495057" stroke-width="2" fill="none"></path></g><g transform="translate(702.1593338597315 721.3692975529848) rotate(0 -52.15933385973153 68.63070244701521)"><path d="M-79.98 123.89 C-87.98 128.37, -94.58 133.25, -101.59 137.55 M-78.84 122.71 C-86.57 128.36, -97.08 134.48, -103.9 137.28" stroke="#495057" stroke-width="2" fill="none"></path></g></g><g stroke-linecap="round"><g transform="translate(217.84066614026847 471.36929755298485) rotate(0 147.15933385973153 193.63070244701518)"><path d="M-1.18 0.09 C47.89 64.51, 243.93 322.75, 293.2 387.22 M0.41 -0.9 C49.93 63.66, 246.44 323.92, 295.33 388.74" stroke="#495057" stroke-width="2" fill="none"></path></g><g transform="translate(217.84066614026847 471.36929755298485) rotate(0 147.15933385973153 193.63070244701518)"><path d="M270.31 370.56 C275.22 376.11, 279.74 379.91, 295.39 389.67 M271.14 372.04 C277.26 375.8, 283.24 380.94, 294.84 388.09" stroke="#495057" stroke-width="2" fill="none"></path></g><g transform="translate(217.84066614026847 471.36929755298485) rotate(0 147.15933385973153 193.63070244701518)"><path d="M286.69 358.2 C288.4 366.06, 289.63 372.34, 295.39 389.67 M287.51 359.68 C289.41 366.58, 291.25 374.85, 294.84 388.09" stroke="#495057" stroke-width="2" fill="none"></path></g></g><g stroke-linecap="round"><g transform="translate(555 973) rotate(0 0 67)"><path d="M1.16 -0.08 C1.05 22.13, 0.53 111.38, 0.17 133.83 M0.3 -1.17 C-0.02 21.18, -0.86 112.99, -0.69 135.28" stroke="#495057" stroke-width="2" fill="none"></path></g><g transform="translate(555 973) rotate(0 0 67)"><path d="M-11.03 107.35 C-7.27 115.7, -2.2 126.9, -2 136.09 M-9.91 107.41 C-8.09 112.98, -7.26 117.86, -0.62 134.97" stroke="#495057" stroke-width="2" fill="none"></path></g><g transform="translate(555 973) rotate(0 0 67)"><path d="M9.49 107.4 C5.68 115.93, 3.19 127.11, -2 136.09 M10.61 107.45 C8.27 112.93, 4.95 117.8, -0.62 134.97" stroke="#495057" stroke-width="2" fill="none"></path></g></g><g stroke-linecap="round"><g transform="translate(555 1223) rotate(0 0 67)"><path d="M0.29 0.83 C0.4 23.23, 0.05 112.18, -0.03 134.41 M-1.02 0.22 C-1 22.25, -0.99 109.94, -0.99 132.51" stroke="#495057" stroke-width="2" fill="none"></path></g><g transform="translate(555 1223) rotate(0 0 67)"><path d="M-9.87 104.28 C-8.11 110.75, -6 116.69, -0.28 133.78 M-11.47 103.77 C-9.18 109.42, -6.59 115.9, -1.67 132.12" stroke="#495057" stroke-width="2" fill="none"></path></g><g transform="translate(555 1223) rotate(0 0 67)"><path d="M10.65 104.27 C7.52 110.8, 4.74 116.74, -0.28 133.78 M9.05 103.77 C7.08 109.34, 5.41 115.82, -1.67 132.12" stroke="#495057" stroke-width="2" fill="none"></path></g></g><g transform="translate(533.75 1281.875) rotate(0 21.25 8.125)"><text x="21.25" y="16" font-family="Virgil, Segoe UI Emoji" font-size="13px" fill="#495057" text-anchor="middle" style="white-space: pre;" direction="ltr">image</text></g><g stroke-linecap="round"><g transform="translate(555 1473) rotate(0 0 67)"><path d="M0.14 -0.33 C0.29 22.12, 0.28 112.65, 0.14 134.88 M-1.24 -1.55 C-1.18 20.55, -1.24 110.65, -0.74 133.21" stroke="#495057" stroke-width="2" fill="none"></path></g><g transform="translate(555 1473) rotate(0 0 67)"><path d="M-11.8 105.35 C-7.24 110.58, -7.84 118.66, -1.17 134.19 M-11.64 104.81 C-7.59 115.22, -3.48 123.83, -1.25 133.32" stroke="#495057" stroke-width="2" fill="none"></path></g><g transform="translate(555 1473) rotate(0 0 67)"><path d="M8.72 105.16 C8.39 110.46, 2.9 118.59, -1.17 134.19 M8.88 104.63 C5.78 115.07, 2.74 123.74, -1.25 133.32" stroke="#495057" stroke-width="2" fill="none"></path></g></g><g transform="translate(514.25 1531.875) rotate(0 40.75 8.125)"><text x="40.75" y="16" font-family="Virgil, Segoe UI Emoji" font-size="13px" fill="#495057" text-anchor="middle" style="white-space: pre;" direction="ltr">passthrough</text></g></svg>