<svg version="1.1" xmlns="http://www.w3.org/2000/svg" viewBox="0 0 780 1180" width="780" height="1180">
  <!-- svg-source:excalidraw -->
  
  <defs>
    <style>
      @font-face {
        font-family: "Virgil";
        src: url("https://excalidraw.com/Virgil.woff2");
      }
      @font-face {
        font-family: "Cascadia";
        src: url("https://excalidraw.com/Cascadia.woff2");
      }
    </style>
  </defs>
  <rect x="0" y="0" width="780" height="1180" fill="#ffffff"></rect><g stroke-linecap="round" transform="translate(10 10) rotate(0 100 40)"><path d="M0.91 0.96 L199.55 2.39 L201.84 80.27 L-0.83 81.64" stroke="none" stroke-width="0" fill="#a5d8ff"></path><path d="M0.99 -1.01 C54.6 1.25, 106.22 -1.54, 201.48 -1.09 M-0.76 -0.5 C64.12 -1.8, 131.82 -3.32, 200.04 -1.05 M201.37 -2.53 C202.94 19.71, 203.33 32.76, 202.1 83.24 M199.78 1.09 C199.52 20.59, 199.4 44.24, 198.16 79.77 M197.61 76.75 C141.76 81.51, 85.84 83.36, 0.26 76.97 M199.61 79.08 C131.95 80.3, 65.59 81.57, -1.63 79.52 M0.27 83.1 C-1.76 49.26, 1.03 24.9, -1.17 -1.15 M-0.51 80.86 C0.44 56.31, -0.42 33.04, 0.04 -1.18" stroke="#1971c2" stroke-width="2" fill="none"></path></g><g transform="translate(15 38.75) rotate(0 95 11.25)"><text x="95" y="23" font-family="Virgil, Segoe UI Emoji" font-size="18px" fill="#1971c2" text-anchor="middle" style="white-space: pre;" direction="ltr">Gap Scanner</text></g><g stroke-linecap="round" transform="translate(290 10) rotate(0 100 40)"><path d="M2.63 2.78 L198.84 1.68 L196.84 79.31 L-1.42 77.69" stroke="none" stroke-width="0" fill="#d0bfff"></path><path d="M-3.56 -1.19 C58.93 0.23, 113.03 -1.39, 199 1.69 M1.32 -0.42 C75.15 2.75, 149.47 1.52, 201.01 -1.18 M197 -0.97 C195.83 33.46, 202.37 63.3, 197.5 80.88 M198.41 0.45 C197.75 19.38, 199.47 40.01, 200.07 78.17 M202.83 83.34 C154.06 76.9, 111.2 82.55, -1.1 79.97 M198.55 80.49 C137.02 77.15, 73.73 76.64, -1.44 81 M2.48 79.33 C-0.99 51.49, -2.52 16.92, -2.95 -3.03 M-1.17 78.95 C-0.91 56.38, -0.34 29.9, -0.53 1.42" stroke="#7048e8" stroke-width="2" fill="none"></path></g><g transform="translate(295 38.75) rotate(0 95 11.25)"><text x="95" y="23" font-family="Virgil, Segoe UI Emoji" font-size="18px" fill="#7048e8" text-anchor="middle" style="white-space: pre;" direction="ltr">LLM Config</text></g><g stroke-linecap="round" transform="translate(290 190) rotate(0 100 40)"><path d="M-0.65 -2.03 L199.09 1.13 L197.49 82.36 L2.72 76.45" stroke="none" stroke-width="0" fill="#a5d8ff"></path><path d="M1.41 2.48 C49.42 0.72, 101.82 0.75, 196.41 1.8 M-1.55 1.09 C68.91 -0.43, 134.4 -0.54, 199.07 -0.08 M197.36 0.08 C200.92 22.97, 201.92 52.9, 200 79.66 M201.41 1.46 C203.23 26.71, 203.24 58.63, 201.73 78.21 M199.78 77.27 C155.98 84.19, 106.65 79.84, 2.45 82.57 M201.23 80.86 C124.87 76.6, 48.26 76.59, 1.56 81.6 M3.68 80.19 C-1.01 46.03, 1.02 14.5, -2.67 -3.35 M1.87 81.21 C0.66 50.74, -0.53 23.69, -0.81 0.89" stroke="#1971c2" stroke-width="2" fill="none"></path></g><g transform="translate(295 218.75) rotate(0 95 11.25)"><text x="95" y="23" font-family="Virgil, Segoe UI Emoji" font-size="18px" fill="#1971c2" text-anchor="middle" style="white-space: pre;" direction="ltr">Prompt Generator</text></g><g stroke-linecap="round" transform="translate(570 190) rotate(0 100 40)"><path d="M-3.56 -3.72 L200.92 0.13 L203.76 77.05 L-3.3 77.3" stroke="none" stroke-width="0" fill="#d0bfff"></path><path d="M-1.26 1.29 C56.05 -1.79, 106.26 -1.89, 198.05 0.86 M-1.05 -1.46 C64.31 -0.59, 125.96 0.59, 201.25 -1.14 M201.18 1.9 C195.01 24.62, 200.72 45.07, 196.32 76.89 M200.53 -1.13 C198.31 20.5, 197.48 45.1, 200.92 80.72 M200.25 83.3 C126.54 80.94, 48.4 85.05, -1.27 81.63 M201.31 79.94 C156.18 81.07, 114.16 81.89, -1.3 78.79 M3.92 77.62 C-2.56 59.94, -0.61 34.1, -0.53 1.9 M-0.32 81.03 C-2.82 53.5, -1.88 29.88, 1.64 -1.32" stroke="#7048e8" stroke-width="2" fill="none"></path></g><g transform="translate(575 218.75) rotate(0 95 11.25)"><text x="95" y="23" font-family="Virgil, Segoe UI Emoji" font-size="18px" fill="#7048e8" text-anchor="middle" style="white-space: pre;" direction="ltr">API Call</text></g><g stroke-linecap="round" transform="translate(150 370) rotate(0 100 40)"><path d="M3.17 -0.72 L196.98 0.12 L202.33 83.35 L0.57 80.43" stroke="none" stroke-width="0" fill="#e9ecef"></path><path d="M3.09 1.8 C62.75 0.41, 128.52 -1.15, 198.54 2.38 M0.21 1.23 C48.63 -0.37, 93.42 -1.04, 200.19 0.13 M199.7 0.49 C200.84 21.88, 198.91 50.62, 198.23 79.71 M201.35 -0.85 C197.54 27.27, 200.6 54.3, 200.14 81.38 M196.86 76.74 C124.43 83, 51.82 83.06, -0.77 81 M198.46 78.58 C141.61 82.31, 83.23 83.38, -1.17 80.08 M3.25 80.36 C2.48 61.37, -2.02 40.54, -3.51 -3.9 M-0.34 79.69 C-0.89 51.07, -0.09 27.39, 1.05 -0.62" stroke="#1e1e1e" stroke-width="2" fill="none"></path></g><g transform="translate(155 400) rotate(0 95 10)"><text x="95" y="20" font-family="Virgil, Segoe UI Emoji" font-size="16px" fill="#1e1e1e" text-anchor="middle" style="white-space: pre;" direction="ltr">CLIP Encode (+)</text></g><g stroke-linecap="round" transform="translate(430 370) rotate(0 100 40)"><path d="M-3.59 -3.29 L200.15 0.71 L201.81 76.24 L-3.93 76.08" stroke="none" stroke-width="0" fill="#e9ecef"></path><path d="M-2.62 3.22 C74.77 4.64, 146.06 -0.99, 199.92 2.93 M-0.74 1.66 C51.94 3.32, 105.15 0.55, 199.95 -0.89 M197.15 1.88 C200.94 30.87, 204.69 58.57, 196.42 78.13 M201.39 -0.48 C199.73 14.58, 199.54 34.63, 200.85 79.59 M200.37 81.91 C137.54 83.26, 72.32 83.73, 3.05 79.41 M198.7 79.65 C145.26 82.15, 89.41 82.51, 1.27 78.41 M2.72 80.99 C-0.75 54.38, -0.22 33.88, 3.86 -1.24 M-0.69 81.14 C1.11 52.61, 0.69 21.78, -1.32 -0.7" stroke="#1e1e1e" stroke-width="2" fill="none"></path></g><g transform="translate(435 400) rotate(0 95 10)"><text x="95" y="20" font-family="Virgil, Segoe UI Emoji" font-size="16px" fill="#1e1e1e" text-anchor="middle" style="white-space: pre;" direction="ltr">CLIP Encode (-)</text></g><g stroke-linecap="round" transform="translate(10 190) rotate(0 100 40)"><path d="M1.92 1.9 L198.12 -1.01 L203.85 77.61 L1.24 78.47" stroke="none" stroke-width="0" fill="#e9ecef"></path><path d="M2.02 1.16 C48.5 -3.51, 96.01 -2.97, 196.91 1.17 M1.7 -0.03 C43.81 2.38, 85.85 3, 199.51 0.56 M203.42 -1.44 C197.29 25.53, 200.62 54.26, 201.11 77.37 M198.72 -0.34 C201.47 22.05, 198.47 43.77, 201.59 81.06 M201.48 83.25 C145.19 80.91, 96.45 85.07, 2.99 81.57 M198.94 79.06 C138.43 83.87, 72.85 84.12, -1.74 78.93 M-1.25 78.11 C0.36 49.58, -0.86 22.06, 1.7 -2.07 M-1.28 79.93 C0.57 61.84, 0.32 44.66, -1.15 -0.72" stroke="#1e1e1e" stroke-width="2" fill="none"></path></g><g transform="translate(15 220) rotate(0 95 10)"><text x="95" y="20" font-family="Virgil, Segoe UI Emoji" font-size="16px" fill="#1e1e1e" text-anchor="middle" style="white-space: pre;" direction="ltr">Empty Latent</text></g><g stroke-linecap="round" transform="translate(290 550) rotate(0 100 40)"><path d="M2.45 -0.53 L200.76 -2.53 L198.31 78.91 L1.47 79.2" stroke="none" stroke-width="0" fill="#e9ecef"></path><path d="M1.87 2.45 C74.34 -1.81, 147.23 -0.44, 203.28 0.65 M1.64 1.74 C46.5 1.76, 91.19 2.25, 199.13 -0.18 M197.83 -1.48 C201.94 28.88, 198.05 52.96, 197.34 78.34 M201.06 0.49 C201.1 27.75, 198.88 54.58, 198.05 79.54 M197.25 76.83 C155.4 80.23, 111.77 76.93, -0.28 78.65 M201.61 78.96 C129.1 80.29, 56.88 81.43, 1.38 80.88 M-0.41 76.05 C-0.25 49.79, 0.34 23.29, -2.8 -3.56 M0.12 80.03 C-2.33 53.09, -0.48 22.47, -0.88 1.57" stroke="#1e1e1e" stroke-width="2" fill="none"></path></g><g transform="translate(295 578.75) rotate(0 95 11.25)"><text x="95" y="23" font-family="Virgil, Segoe UI Emoji" font-size="18px" fill="#1e1e1e" text-anchor="middle" style="white-space: pre;" direction="ltr">KSampler</text></g><g stroke-linecap="round" transform="translate(290 730) rotate(0 100 40)"><path d="M2.79 -0.47 L198.68 -3.52 L199.05 76.85 L-3.81 82.46" stroke="none" stroke-width="0" fill="#e9ecef"></path><path d="M3.02 0.33 C41.99 3.56, 83.62 3.4, 199.51 3.15 M0.39 1.54 C62.92 2.24, 126.94 3.55, 198.9 0.11 M201.47 -1.59 C199.91 30.14, 200.68 54.96, 201.22 80.79 M199.3 1.51 C200.47 21.05, 197.45 41.15, 199.49 79.45 M199.82 77.03 C117.85 73.86, 37.58 75.25, 1.92 81 M199.3 80.46 C151.14 82.22, 101.39 79.79, 0.25 80.19 M-2.58 81.36 C1.41 61.6, -0.42 36.01, -0.39 3.39 M1.76 81.53 C2.1 53.77, 1.25 27.6, 0.53 0.26" stroke="#1e1e1e" stroke-width="2" fill="none"></path></g><g transform="translate(295 760) rotate(0 95 10)"><text x="95" y="20" font-family="Virgil, Segoe UI Emoji" font-size="16px" fill="#1e1e1e" text-anchor="middle" style="white-space: pre;" direction="ltr">VAE Decode</text></g><g stroke-linecap="round" transform="translate(290 910) rotate(0 100 40)"><path d="M1.26 -2.42 L198.92 2.39 L201.59 76.34 L-2.27 80.62" stroke="none" stroke-width="0" fill="#a5d8ff"></path><path d="M-0.64 2.28 C48.89 0.29, 102.51 6.17, 197.82 -1.19 M-1.4 0.69 C66.1 -2.7, 135.66 -2.27, 198.55 -1.25 M200.67 -0.9 C198.22 19.07, 203.12 34.87, 202.7 77.93 M201.12 1.44 C197.87 23.95, 199.16 49.77, 201.3 81.31 M198.67 80.41 C123.82 84.91, 45.49 78.62, 2.01 83.47 M200.5 78.8 C138.81 77.05, 78.1 76.52, 0.94 78.62 M0.34 83.71 C-4.19 47.11, -2.23 23.16, -2.43 1.59 M0.39 80.78 C2.87 53.05, 2.16 30.62, 0.48 -1.26" stroke="#1971c2" stroke-width="2" fill="none"></path></g><g transform="translate(295 938.75) rotate(0 95 11.25)"><text x="95" y="23" font-family="Virgil, Segoe UI Emoji" font-size="18px" fill="#1971c2" text-anchor="middle" style="white-space: pre;" direction="ltr">CRON Scheduler</text></g><g stroke-linecap="round" transform="translate(290 1090) rotate(0 100 40)"><path d="M-0.16 1.79 L203.75 -1.45 L201.33 79.02 L0.92 83.39" stroke="none" stroke-width="0" fill="#a5d8ff"></path><path d="M-0.69 1.51 C51.98 -3.44, 99 0.94, 198.84 -0.78 M-1.01 0.36 C45.79 -0.5, 88.33 -2.24, 200.3 1.07 M197.09 -1.16 C200.67 24.35, 203.98 56.66, 200.72 81.07 M200.54 -0.72 C201.29 30.76, 201.29 62.98, 198.35 80.65 M198.73 77.94 C129.71 80.96, 63.99 79.37, -1.37 82.53 M201.79 80.39 C143.28 83.5, 89.46 83.31, 1.56 81.25 M2.88 79.53 C1.65 57.98, 1.7 39.29, -0.29 0.27 M-1.19 80.27 C0.38 51.56, 2.81 20.29, 1.67 0.6" stroke="#1971c2" stroke-width="2" fill="none"></path></g><g transform="translate(295 1118.75) rotate(0 95 11.25)"><text x="95" y="23" font-family="Virgil, Segoe UI Emoji" font-size="18px" fill="#1971c2" text-anchor="middle" style="white-space: pre;" direction="ltr">Save As</text></g><g stroke-linecap="round" transform="translate(570 10) rotate(0 100 40)"><path d="M3.78 3 L198.73 3.99 L200.75 80.31 L-3.13 83.4" stroke="none" stroke-width="0" fill="#fcc2d7"></path><path d="M-0.9 -2.27 C77.45 1.62, 162.16 2.14, 200.3 2.2 M-0.8 0.81 C46.12 2.5, 92.54 2.59, 198.28 -0.35 M201.33 1.1 C198.14 20.11, 195.96 43.5, 199.21 77.86 M198.18 1.9 C201.58 30.53, 200.33 60.66, 198.28 78.17 M199.98 76.58 C140 79.23, 71.92 82.69, -0.53 81.04 M200.14 81.27 C121.76 81.99, 43.05 81.01, 0.07 81.78 M-1.42 83.69 C-2.15 52.04, 1.42 24.26, -1.45 2.8 M-1.38 80.74 C-0.72 51.35, -0.14 21.31, -0.68 0.3" stroke="#c2255c" stroke-width="2" fill="none"></path></g><g transform="translate(575 40) rotate(0 95 10)"><text x="95" y="20" font-family="Virgil, Segoe UI Emoji" font-size="16px" fill="#c2255c" text-anchor="middle" style="white-space: pre;" direction="ltr">Bulk Prompter</text></g><g stroke-linecap="round"><g transform="translate(178.95165002523467 94.326060730508) rotate(0 71.04834997476534 45.673939269491996)"><path d="M-0.72 0.3 C22.9 15.32, 119.08 75.44, 142.8 90.67 M1.1 -0.6 C24.53 14.53, 118.98 76.23, 142.22 91.85" stroke="#495057" stroke-width="2" fill="none"></path></g><g transform="translate(178.95165002523467 94.326060730508) rotate(0 71.04834997476534 45.673939269491996)"><path d="M113.53 86.03 C123.28 86.87, 136.26 90.56, 141.89 93.73 M113.81 85.51 C124.07 86.35, 135.22 90.1, 141.89 91.63" stroke="#495057" stroke-width="2" fill="none"></path></g><g transform="translate(178.95165002523467 94.326060730508) rotate(0 71.04834997476534 45.673939269491996)"><path d="M124.85 68.91 C130.27 76.34, 138.85 86.69, 141.89 93.73 M125.13 68.39 C131.44 75.52, 138.48 85.47, 141.89 91.63" stroke="#495057" stroke-width="2" fill="none"></path></g></g><g transform="translate(186.5 131.875) rotate(0 63.5 8.125)"><text x="63.5" y="16" font-family="Virgil, Segoe UI Emoji" font-size="13px" fill="#495057" text-anchor="middle" style="white-space: pre;" direction="ltr">topic / resolution</text></g><g stroke-linecap="round"><g transform="translate(110 98) rotate(0 0 42)"><path d="M0.53 -0.39 C0.73 13.36, 1.28 69.76, 1.16 83.68 M-0.66 -1.64 C-0.5 12.79, 0.89 70.77, 0.81 85.05" stroke="#495057" stroke-width="2" fill="none"></path></g><g transform="translate(110 98) rotate(0 0 42)"><path d="M-10.42 58.91 C-6.92 64.8, -4.68 74.17, 1.03 86.13 M-10.76 56.07 C-6.09 66.25, -2.06 77.45, 1 84.95" stroke="#495057" stroke-width="2" fill="none"></path></g><g transform="translate(110 98) rotate(0 0 42)"><path d="M10.1 58.67 C7.58 64.72, 3.81 74.16, 1.03 86.13 M9.76 55.83 C7.11 66.07, 3.82 77.35, 1 84.95" stroke="#495057" stroke-width="2" fill="none"></path></g></g><g transform="translate(59.5 131.875) rotate(0 50.5 8.125)"><text x="50.5" y="16" font-family="Virgil, Segoe UI Emoji" font-size="13px" fill="#495057" text-anchor="middle" style="white-space: pre;" direction="ltr">width / height</text></g><g stroke-linecap="round"><g transform="translate(390 98) rotate(0 0 42)"><path d="M0.03 -0.77 C0.23 13.41, 0.4 70.18, 0.47 84.4" stroke="#495057" stroke-width="2.5" fill="none" stroke-dasharray="8 10"></path></g><g transform="translate(390 98) rotate(0 0 42)"><path d="M-11.18 57.03 C-6.95 63.56, -4.24 71.4, 2.23 82.54" stroke="#495057" stroke-width="2.5" fill="none"></path></g><g transform="translate(390 98) rotate(0 0 42)"><path d="M9.34 56.95 C8.74 63.51, 6.63 71.36, 2.23 82.54" stroke="#495057" stroke-width="2.5" fill="none"></path></g></g><g transform="translate(352.5 131.875) rotate(0 37.5 8.125)"><text x="37.5" y="16" font-family="Virgil, Segoe UI Emoji" font-size="13px" fill="#495057" text-anchor="middle" style="white-space: pre;" direction="ltr">LLM_CONFIG</text></g><g stroke-linecap="round"><g transform="translate(458.95165002523464 94.326060730508) rotate(0 71.04834997476539 45.673939269491996)"><path d="M0.37 -0.22 C24.16 14.94, 118.46 75.42, 142.16 90.88" stroke="#495057" stroke-width="2.5" fill="none" stroke-dasharray="8 10"></path></g><g transform="translate(458.95165002523464 94.326060730508) rotate(0 71.04834997476539 45.673939269491996)"><path d="M112.54 84.31 C119.44 86.55, 129.49 89.4, 140.48 91.47" stroke="#495057" stroke-width="2.5" fill="none"></path></g><g transform="translate(458.95165002523464 94.326060730508) rotate(0 71.04834997476539 45.673939269491996)"><path d="M123.67 67.07 C127.77 73.66, 135.03 80.83, 140.48 91.47" stroke="#495057" stroke-width="2.5" fill="none"></path></g></g><g transform="translate(492.5 131.875) rotate(0 37.5 8.125)"><text x="37.5" y="16" font-family="Virgil, Segoe UI Emoji" font-size="13px" fill="#495057" text-anchor="middle" style="white-space: pre;" direction="ltr">LLM_CONFIG</text></g><g stroke-linecap="round"><g transform="translate(353.9773639807695 276.3148177390106) rotate(0 -33.977363980769525 43.68518226098939)"><path d="M0.23 0.66 C-10.78 15.33, -55.9 73.01, -67.17 87.41 M-1.1 -0.04 C-12.11 14.9, -56.58 74.26, -67.71 88.97" stroke="#495057" stroke-width="2" fill="none"></path></g><g transform="translate(353.9773639807695 276.3148177390106) rotate(0 -33.977363980769525 43.68518226098939)"><path d="M-57.87 61.58 C-60.87 67.19, -63.25 73.39, -68.18 88.42 M-59.39 60.49 C-61.84 72.22, -66.18 83.81, -67.14 89.78" stroke="#495057" stroke-width="2" fill="none"></path></g><g transform="translate(353.9773639807695 276.3148177390106) rotate(0 -33.977363980769525 43.68518226098939)"><path d="M-41.47 73.91 C-47.84 76.98, -53.65 80.6, -68.18 88.42 M-42.98 72.82 C-52.04 79.78, -62.93 86.44, -67.14 89.78" stroke="#495057" stroke-width="2" fill="none"></path></g></g><g transform="translate(295.5 311.875) rotate(0 24.5 8.125)"><text x="24.5" y="16" font-family="Virgil, Segoe UI Emoji" font-size="13px" fill="#495057" text-anchor="middle" style="white-space: pre;" direction="ltr">prompt</text></g><g stroke-linecap="round"><g transform="translate(426.02263601923045 276.3148177390106) rotate(0 33.977363980769525 43.68518226098939)"><path d="M-1.1 1.04 C10.15 15.78, 57.03 73.21, 68.67 87.59 M0.52 0.54 C11.58 14.97, 56.79 70.9, 68.1 85.58" stroke="#495057" stroke-width="2" fill="none"></path></g><g transform="translate(426.02263601923045 276.3148177390106) rotate(0 33.977363980769525 43.68518226098939)"><path d="M44.3 71.04 C52.94 77.62, 62.61 82.43, 69.34 86.5 M43.49 69.87 C51.22 74.31, 58.41 78.65, 68.27 85.15" stroke="#495057" stroke-width="2" fill="none"></path></g><g transform="translate(426.02263601923045 276.3148177390106) rotate(0 33.977363980769525 43.68518226098939)"><path d="M60.39 58.31 C62.56 69.78, 65.85 79.64, 69.34 86.5 M59.59 57.14 C62.4 65.56, 64.64 73.82, 68.27 85.15" stroke="#495057" stroke-width="2" fill="none"></path></g></g><g transform="translate(429 311.875) rotate(0 31 8.125)"><text x="31" y="16" font-family="Virgil, Segoe UI Emoji" font-size="13px" fill="#495057" text-anchor="middle" style="white-space: pre;" direction="ltr">negative</text></g><g stroke-linecap="round"><g transform="translate(286.02263601923045 456.3148177390106) rotate(0 33.977363980769525 43.685182260989365)"><path d="M-1.03 1.08 C10.31 15.79, 55.32 72.88, 66.88 87.13 M0.63 0.6 C12.43 15.59, 57.84 74.06, 69.02 88.54" stroke="#495057" stroke-width="2" fill="none"></path></g><g transform="translate(286.02263601923045 456.3148177390106) rotate(0 33.977363980769525 43.685182260989365)"><path d="M45.44 70.75 C48.31 76.61, 52.62 77.92, 70.54 88.59 M43.42 71.55 C48.79 75.62, 55.76 79.02, 68.06 88.47" stroke="#495057" stroke-width="2" fill="none"></path></g><g transform="translate(286.02263601923045 456.3148177390106) rotate(0 33.977363980769525 43.685182260989365)"><path d="M61.67 58.18 C61.08 66.48, 62.07 70.37, 70.54 88.59 M59.64 58.98 C61.4 65.88, 64.66 72.14, 68.06 88.47" stroke="#495057" stroke-width="2" fill="none"></path></g></g><g stroke-linecap="round"><g transform="translate(493.9773639807695 456.3148177390106) rotate(0 -33.977363980769525 43.685182260989365)"><path d="M0.5 0.83 C-10.93 15.23, -56.12 72.39, -67.52 86.95 M-0.7 0.23 C-12.34 14.74, -56.91 73.93, -68.25 88.27" stroke="#495057" stroke-width="2" fill="none"></path></g><g transform="translate(493.9773639807695 456.3148177390106) rotate(0 -33.977363980769525 43.685182260989365)"><path d="M-57.8 60.39 C-63.28 70.86, -64.75 81.1, -69.65 86.63 M-58.21 59.6 C-62.42 67.76, -64.72 74.94, -67.54 87.59" stroke="#495057" stroke-width="2" fill="none"></path></g><g transform="translate(493.9773639807695 456.3148177390106) rotate(0 -33.977363980769525 43.685182260989365)"><path d="M-41.53 72.9 C-53.41 78.57, -61.22 83.93, -69.65 86.63 M-41.95 72.11 C-50.27 76.97, -56.78 80.91, -67.54 87.59" stroke="#495057" stroke-width="2" fill="none"></path></g></g><g stroke-linecap="round"><g transform="translate(146.02263601923048 276.3148177390106) rotate(0 103.97736398076951 133.68518226098936)"><path d="M1.11 0.29 C35.71 45.02, 174.27 222.98, 208.56 267.46 M0.23 -0.6 C34.65 44.41, 173.11 224.21, 207.92 269.04" stroke="#495057" stroke-width="2" fill="none"></path></g><g transform="translate(146.02263601923048 276.3148177390106) rotate(0 103.97736398076951 133.68518226098936)"><path d="M183.05 254.01 C192.16 256.95, 201.25 265.15, 206.41 268.62 M182.33 253.13 C191.22 258.44, 201.65 265.16, 207.26 269.89" stroke="#495057" stroke-width="2" fill="none"></path></g><g transform="translate(146.02263601923048 276.3148177390106) rotate(0 103.97736398076951 133.68518226098936)"><path d="M199.29 241.47 C202.18 249.28, 205.15 262.22, 206.41 268.62 M198.57 240.58 C201.65 250.35, 206.24 261.58, 207.26 269.89" stroke="#495057" stroke-width="2" fill="none"></path></g></g><g stroke-linecap="round"><g transform="translate(390 638) rotate(0 0 42)"><path d="M-0.21 0.1 C-0.04 14.17, 1.01 69.95, 0.97 83.97 M-1.78 -0.89 C-1.68 13.42, 0.47 71.07, 0.53 85.49" stroke="#495057" stroke-width="2" fill="none"></path></g><g transform="translate(390 638) rotate(0 0 42)"><path d="M-10.19 59.16 C-7.28 65.16, -3.64 74.88, 0.83 86.89 M-10.23 56.55 C-8.42 62.95, -5.7 68.42, 0.92 85.8" stroke="#495057" stroke-width="2" fill="none"></path></g><g transform="translate(390 638) rotate(0 0 42)"><path d="M10.32 58.69 C7.13 64.8, 4.67 74.66, 0.83 86.89 M10.29 56.09 C7.99 62.47, 6.6 68.03, 0.92 85.8" stroke="#495057" stroke-width="2" fill="none"></path></g></g><g stroke-linecap="round"><g transform="translate(390 818) rotate(0 0 42)"><path d="M-0.72 1.05 C-0.48 15.03, 0.3 69.57, 0.28 83.32 M1.11 0.55 C1.31 14.73, -0.61 70.49, -0.52 84.5" stroke="#495057" stroke-width="2" fill="none"></path></g><g transform="translate(390 818) rotate(0 0 42)"><path d="M-8.58 56.61 C-9.59 60.62, -7.2 68.24, 0.01 86.06 M-9.93 55.47 C-6.96 65.83, -4.12 76.42, -0.26 85" stroke="#495057" stroke-width="2" fill="none"></path></g><g transform="translate(390 818) rotate(0 0 42)"><path d="M11.94 56.95 C6.74 60.76, 4.95 68.32, 0.01 86.06 M10.59 55.81 C6.17 65.93, 1.63 76.4, -0.26 85" stroke="#495057" stroke-width="2" fill="none"></path></g></g><g transform="translate(368.75 851.875) rotate(0 21.25 8.125)"><text x="21.25" y="16" font-family="Virgil, Segoe UI Emoji" font-size="13px" fill="#495057" text-anchor="middle" style="white-space: pre;" direction="ltr">image</text></g><g stroke-linecap="round"><g transform="translate(390 998) rotate(0 0 42)"><path d="M0.37 0.04 C0.44 14.19, 0.92 70.45, 1 84.34 M-0.9 -0.98 C-0.94 12.84, 0.34 68.18, 0.57 82.4" stroke="#495057" stroke-width="2" fill="none"></path></g><g transform="translate(390 998) rotate(0 0 42)"><path d="M-10.17 56.08 C-6.05 65.42, -3.91 73.01, 0.49 83.03 M-9.25 54.01 C-5.73 65.84, -2.32 76.8, 0.73 83.34" stroke="#495057" stroke-width="2" fill="none"></path></g><g transform="translate(390 998) rotate(0 0 42)"><path d="M10.35 55.67 C7.36 65.22, 2.4 72.95, 0.49 83.03 M11.27 53.61 C6.71 65.46, 2.06 76.58, 0.73 83.34" stroke="#495057" stroke-width="2" fill="none"></path></g></g><g transform="translate(349.25 1031.875) rotate(0 40.75 8.125)"><text x="40.75" y="16" font-family="Virgil, Segoe UI Emoji" font-size="13px" fill="#495057" text-anchor="middle" style="white-space: pre;" direction="ltr">passthrough</text></g></svg>