<svg version="1.1" xmlns="http://www.w3.org/2000/svg" viewBox="0 0 780 1180" width="780" height="1180">
  <!-- svg-source:excalidraw -->
  
  <defs>
    <style>
      @font-face {
        font-family: "Virgil";
        src: url("https://excalidraw.com/Virgil.woff2");
      }
      @font-face {
        font-family: "Cascadia";
        src: url("https://excalidraw.com/Cascadia.woff2");
      }
    </style>
  </defs>
  <rect x="0" y="0" width="780" height="1180" fill="#ffffff"></rect><g stroke-linecap="round" transform="translate(10 10) rotate(0 100 40)"><path d="M0.38 -1.02 L200.06 1.39 L200.79 79.52 L-2.83 81.03" stroke="none" stroke-width="0" fill="#a5d8ff"></path><path d="M-1.35 1.82 C47.27 3.98, 88.6 1.69, 201.32 -2.19 M1.72 -1.39 C45.65 2.78, 92.15 3.68, 198.88 0.29 M203.18 -3.88 C195.26 28.63, 202.67 54.11, 199.29 79.37 M201.58 0.54 C199.85 28.97, 199.14 55.55, 201.59 79 M200.88 78.24 C140.28 75.86, 78.92 75.93, -1.58 77.73 M200.72 80.6 C138.83 79.32, 75.72 78.54, -0.49 78.22 M3.24 80.69 C1.88 51.87, -2.6 20.37, -2.59 -0.09 M-1.57 80.61 C-1.48 54.3, -0.96 29.98, 0.15 1.8" stroke="#1971c2" stroke-width="2" fill="none"></path></g><g transform="translate(15 38.75) rotate(0 95 11.25)"><text x="95" y="23" font-family="Virgil, Segoe UI Emoji" font-size="18px" fill="#1971c2" text-anchor="middle" style="white-space: pre;" direction="ltr">Gap Scanner</text></g><g stroke-linecap="round" transform="translate(290 10) rotate(0 100 40)"><path d="M-1.93 1 L202.67 -2.92 L200.47 83.25 L2.15 76.29" stroke="none" stroke-width="0" fill="#d0bfff"></path><path d="M1.93 -2.25 C47.47 -5.66, 89.79 -1.67, 198.69 1.86 M0.97 -1.28 C70.35 -3.16, 141.94 -2.2, 198.92 -0.96 M203.49 2.82 C201.83 26.82, 201.18 63.36, 197.22 78.85 M198.62 1.03 C197.32 20.26, 196.84 43.21, 201.05 78.63 M199.03 80.62 C146.86 78.05, 84.35 78.36, 0.94 79.87 M199.75 78.38 C144.31 80.27, 85.59 79, -1.2 79.2 M-1.72 77.36 C0.29 58.51, -4.05 38.86, 1.19 -0.44 M-0.84 79.14 C3.35 64.88, 2.15 45.83, 0.85 -0.28" stroke="#7048e8" stroke-width="2" fill="none"></path></g><g transform="translate(295 38.75) rotate(0 95 11.25)"><text x="95" y="23" font-family="Virgil, Segoe UI Emoji" font-size="18px" fill="#7048e8" text-anchor="middle" style="white-space: pre;" direction="ltr">LLM Config</text></g><g stroke-linecap="round" transform="translate(290 190) rotate(0 100 40)"><path d="M-0.51 -3.08 L203.67 -0.59 L199.31 81 L-0.21 76.46" stroke="none" stroke-width="0" fill="#a5d8ff"></path><path d="M0.69 -3.25 C44.21 5.73, 89.58 3.26, 201.59 0.93 M-0.45 -0.76 C46.07 3.6, 93.14 2.02, 199.31 -1.49 M196.13 1.4 C200.87 21, 196.6 35.17, 197.35 78.78 M198.47 0.42 C197.7 21.29, 198.64 46.91, 199.54 78.42 M200.6 78.83 C126.33 73.7, 53.68 73.2, -0.81 82.61 M201.09 79.12 C133.87 77.39, 66.06 77.43, 1.66 80.65 M1.12 80.01 C3.61 61.48, 2.09 47.42, 2.35 -3.07 M1.06 80.8 C1.22 52.24, 0.7 23.06, -1.77 -0.86" stroke="#1971c2" stroke-width="2" fill="none"></path></g><g transform="translate(295 218.75) rotate(0 95 11.25)"><text x="95" y="23" font-family="Virgil, Segoe UI Emoji" font-size="18px" fill="#1971c2" text-anchor="middle" style="white-space: pre;" direction="ltr">Prompt Generator</text></g><g stroke-linecap="round" transform="translate(570 190) rotate(0 100 40)"><path d="M3.27 -1.49 L201.69 -1.6 L203.38 76.44 L2.66 77.82" stroke="none" stroke-width="0" fill="#d0bfff"></path><path d="M-3.34 2.93 C53.08 -2.61, 109.09 -1.66, 197.14 0.5 M1.5 -0.04 C51.94 2.57, 102.64 4.21, 201.02 1.18 M197.6 2.08 C202.8 23.45, 197.97 44.14, 203.3 83.06 M198.52 1.44 C200.5 24.37, 200.73 52.42, 198.03 81.97 M201.88 79.66 C140.93 78.16, 88.42 76.78, 2.57 79.08 M201.34 80.94 C140.78 78.02, 81.32 78, 1.71 79.52 M-1.98 77.07 C-2.7 53.76, -2.59 24.52, 1.73 -0.01 M-1.93 81.4 C0.69 58.81, 1.42 40.34, -0.01 -1.56" stroke="#7048e8" stroke-width="2" fill="none"></path></g><g transform="translate(575 218.75) rotate(0 95 11.25)"><text x="95" y="23" font-family="Virgil, Segoe UI Emoji" font-size="18px" fill="#7048e8" text-anchor="middle" style="white-space: pre;" direction="ltr">API Call</text></g><g stroke-linecap="round" transform="translate(150 370) rotate(0 100 40)"><path d="M-1.76 3.99 L201.04 3.04 L197.69 77.53 L1.24 79.55" stroke="none" stroke-width="0" fill="#e9ecef"></path><path d="M-0.67 0.2 C49.18 -5.37, 89.68 -2.79, 199.22 -1.25 M-1.31 0.4 C62.59 0.23, 122.87 -1.51, 198.29 0.52 M196.41 -0.04 C199.17 30.1, 196.45 57.79, 201.14 78.68 M201.83 -0.34 C203.47 15.79, 200.44 35.11, 198.82 78.12 M202.13 77.03 C132.55 84.29, 64.32 77.86, 2.56 76.69 M200.59 78.4 C151.88 81.28, 104.62 79.12, 1.37 81.52 M0.1 77.03 C0.08 54.58, 0.18 22.03, 1.25 -2.27 M-0.33 79.77 C-1.13 52.65, -1.67 27.78, -0.23 -1.83" stroke="#1e1e1e" stroke-width="2" fill="none"></path></g><g transform="translate(155 400) rotate(0 95 10)"><text x="95" y="20" font-family="Virgil, Segoe UI Emoji" font-size="16px" fill="#1e1e1e" text-anchor="middle" style="white-space: pre;" direction="ltr">CLIP Encode (+)</text></g><g stroke-linecap="round" transform="translate(430 370) rotate(0 100 40)"><path d="M2.87 -1.29 L199.03 -0.04 L196.47 80.17 L1.52 80.14" stroke="none" stroke-width="0" fill="#e9ecef"></path><path d="M2.7 2.09 C75.24 -5.43, 151.09 -4.65, 200.78 -0.02 M1.01 1.16 C60.4 -1.78, 121.92 -0.16, 199.08 -1.51 M202.97 -1.48 C200.73 24.33, 200.17 42.58, 202.94 77.41 M198.1 -0.76 C199.2 20.89, 198.01 37.71, 201.77 79.89 M198.6 78.38 C145.66 75.13, 92.68 77.5, 1.54 76.53 M201.61 81.48 C126.62 76.2, 55.46 76.09, -0.17 81.68 M-3.18 79.08 C0.89 60.63, 3.08 42.04, -0.79 -2.19 M0.1 78.66 C-0.11 54.13, 0.37 26.29, 0.27 1.33" stroke="#1e1e1e" stroke-width="2" fill="none"></path></g><g transform="translate(435 400) rotate(0 95 10)"><text x="95" y="20" font-family="Virgil, Segoe UI Emoji" font-size="16px" fill="#1e1e1e" text-anchor="middle" style="white-space: pre;" direction="ltr">CLIP Encode (-)</text></g><g stroke-linecap="round" transform="translate(10 190) rotate(0 100 40)"><path d="M-2.93 0.81 L202.78 -1.29 L202.07 76.26 L0.71 83.23" stroke="none" stroke-width="0" fill="#e9ecef"></path><path d="M1.28 -1.34 C68.92 -0.55, 134.04 1.33, 202.15 3.01 M-1.6 -0.65 C49.18 0.57, 97.44 0, 200.26 0.22 M200.93 -1.41 C194.56 19.88, 197.58 50.21, 198.01 79.67 M201.61 1.78 C201.96 19.1, 202.22 36.94, 201.24 81.17 M203.13 78.36 C142.42 81.94, 88.53 86.09, -3.31 79.01 M199.95 78.85 C137.36 80.13, 76.21 78.85, 1.26 80.26 M3.9 78.78 C1.16 56.77, -5.13 26.92, 2.52 -2.95 M1.19 80.25 C2.29 51.38, 0.68 28.32, 1.35 1.68" stroke="#1e1e1e" stroke-width="2" fill="none"></path></g><g transform="translate(15 220) rotate(0 95 10)"><text x="95" y="20" font-family="Virgil, Segoe UI Emoji" font-size="16px" fill="#1e1e1e" text-anchor="middle" style="white-space: pre;" direction="ltr">Empty Latent</text></g><g stroke-linecap="round" transform="translate(290 550) rotate(0 100 40)"><path d="M1.15 -3.93 L200.7 0.19 L203.55 78.86 L1.75 76.54" stroke="none" stroke-width="0" fill="#e9ecef"></path><path d="M2.45 1.6 C40.32 1.25, 82.15 0.96, 197.62 2.56 M-0.69 0.43 C78.07 2.12, 158.25 0.58, 199.52 -0.82 M196.57 -0.66 C199.69 16.66, 197.32 36.33, 201.94 78.55 M201 -0.66 C202.03 16.71, 199.99 36.75, 199.89 78.22 M201.8 82.33 C139.24 80.75, 80.01 81.26, 0.24 80.27 M198.26 78.78 C145.62 83.53, 94.25 82.48, 0.25 81.7 M2.9 78.13 C-1.43 56.67, -0.15 33.23, 1.21 1.69 M0.24 79.35 C0.33 63.42, 0.23 44.82, 1.95 -0.48" stroke="#1e1e1e" stroke-width="2" fill="none"></path></g><g transform="translate(295 578.75) rotate(0 95 11.25)"><text x="95" y="23" font-family="Virgil, Segoe UI Emoji" font-size="18px" fill="#1e1e1e" text-anchor="middle" style="white-space: pre;" direction="ltr">KSampler</text></g><g stroke-linecap="round" transform="translate(290 730) rotate(0 100 40)"><path d="M-3.28 1.16 L199.16 1.28 L196.97 76.82 L-1.32 82.23" stroke="none" stroke-width="0" fill="#e9ecef"></path><path d="M2.78 -0.79 C75.91 -4.94, 147.47 -5.91, 196.45 -2.07 M-0.98 -1.79 C39.86 -2.39, 82.2 -1.84, 200.46 1.68 M196.15 2.51 C198.1 34.04, 197.42 58.38, 198.09 81.27 M200.12 1.63 C200.24 21.17, 202.21 42.06, 198.3 80.56 M202.33 76.67 C124.36 75.48, 45.65 76.38, 3.39 79.44 M198.76 80.45 C158.43 81.08, 114.66 79.97, 0.38 78.61 M-0.01 79.99 C-4.47 54.75, -4.48 20.03, 0.14 3.28 M0.07 79.11 C-2.49 52.44, 0.57 25.93, 0.67 1.28" stroke="#1e1e1e" stroke-width="2" fill="none"></path></g><g transform="translate(295 760) rotate(0 95 10)"><text x="95" y="20" font-family="Virgil, Segoe UI Emoji" font-size="16px" fill="#1e1e1e" text-anchor="middle" style="white-space: pre;" direction="ltr">VAE Decode</text></g><g stroke-linecap="round" transform="translate(290 910) rotate(0 100 40)"><path d="M1.88 2.63 L203.85 2.1 L199.47 78.91 L2.25 80.69" stroke="none" stroke-width="0" fill="#a5d8ff"></path><path d="M3.05 -2.53 C61.41 -4.09, 129.85 -3.75, 202.06 0.2 M-0.44 1.03 C47.27 0.68, 91.07 -2.12, 201.15 1.01 M201.1 -1.14 C202.71 17.91, 198.77 44.21, 203.69 77.75 M199.65 1.57 C201.57 25.83, 200.99 49.85, 201.55 79.01 M202.2 77.2 C142.36 78.01, 88.71 78.58, 2.16 79.63 M199.82 79.84 C149.15 84.07, 94.98 81.47, 0 80.34 M3.43 76.74 C3.35 56.32, -2.54 26.89, -1.45 -2.3 M-1.14 81.15 C-0.13 50.7, -2.49 25.16, -1.13 -1.26" stroke="#1971c2" stroke-width="2" fill="none"></path></g><g transform="translate(295 938.75) rotate(0 95 11.25)"><text x="95" y="23" font-family="Virgil, Segoe UI Emoji" font-size="18px" fill="#1971c2" text-anchor="middle" style="white-space: pre;" direction="ltr">CRON Scheduler</text></g><g stroke-linecap="round" transform="translate(290 1090) rotate(0 100 40)"><path d="M-2.98 2.02 L203.95 -2.07 L197.73 83.13 L1.73 82.05" stroke="none" stroke-width="0" fill="#a5d8ff"></path><path d="M2.17 -0.87 C47.43 6.07, 85.84 0.9, 202.63 1.85 M0.44 1.13 C60.57 -2.11, 120.37 -4.91, 200.66 -0.48 M203.17 -0.65 C203.53 31.26, 204.89 66.23, 198.42 77.94 M200.54 1.05 C200.91 24.34, 197.72 47.69, 201.78 78.46 M196.54 76.78 C122.21 80.39, 52.69 81.23, -3.05 82.59 M198.79 81.23 C136.37 84.33, 70.2 82.72, -0.15 79.31 M-2.17 79.39 C2.13 61.5, 3.6 40.9, -0.72 3.29 M1.17 78.91 C-0.07 57.92, 0.04 30.52, 0.02 1.44" stroke="#1971c2" stroke-width="2" fill="none"></path></g><g transform="translate(295 1118.75) rotate(0 95 11.25)"><text x="95" y="23" font-family="Virgil, Segoe UI Emoji" font-size="18px" fill="#1971c2" text-anchor="middle" style="white-space: pre;" direction="ltr">Save As</text></g><g stroke-linecap="round" transform="translate(570 10) rotate(0 100 40)"><path d="M1.44 0.76 L200.29 -0.08 L201.26 79.11 L0.9 83.06" stroke="none" stroke-width="0" fill="#fcc2d7"></path><path d="M-2.78 0.19 C79.49 -3.96, 151.02 -3.01, 202.8 2.88 M0.11 0.78 C72.99 -0.67, 148.91 0.3, 199.96 -0.56 M203.75 3.68 C198.57 30.31, 203.08 61.8, 198.63 78.41 M198.9 1.75 C202.62 24.42, 200.42 46.26, 198.87 78.12 M197.92 79.91 C134.3 79.18, 70.23 78.27, -0.52 78.88 M198.24 80.06 C127.84 82.45, 55.31 82.48, 1.03 80.67 M0.81 82.42 C4.86 64.3, 3.45 45.12, 1.27 -3.23 M-0.87 81 C-0.19 54.43, 3.15 28.36, -1.22 -1.85" stroke="#c2255c" stroke-width="2" fill="none"></path></g><g transform="translate(575 40) rotate(0 95 10)"><text x="95" y="20" font-family="Virgil, Segoe UI Emoji" font-size="16px" fill="#c2255c" text-anchor="middle" style="white-space: pre;" direction="ltr">Bulk Prompter</text></g><g stroke-linecap="round"><g transform="translate(110 90) rotate(0 140 50)"><path d="M0 0 C0 8.33, -46.67 41.67, 0 50 C46.67 58.33, 233.33 41.67, 280 50 C326.67 58.33, 280 91.67, 280 100 M0 0 C0 8.33, -46.67 41.67, 0 50 C46.67 58.33, 233.33 41.67, 280 50 C326.67 58.33, 280 91.67, 280 100" stroke="#495057" stroke-width="2" fill="none"></path></g><g transform="translate(110 90) rotate(0 140 50)"><path d="M286.2 75.78 C284.31 83.16, 282.42 90.53, 280 100 M286.2 75.78 C283.76 85.31, 281.32 94.85, 280 100" stroke="#495057" stroke-width="2" fill="none"></path></g><g transform="translate(110 90) rotate(0 140 50)"><path d="M300.32 85.43 C294.13 89.87, 287.94 94.3, 280 100 M300.32 85.43 C292.32 91.17, 284.32 96.9, 280 100" stroke="#495057" stroke-width="2" fill="none"></path></g></g><g transform="translate(186.5 131.875) rotate(0 63.5 8.125)"><text x="63.5" y="16" font-family="Virgil, Segoe UI Emoji" font-size="13px" fill="#495057" text-anchor="middle" style="white-space: pre;" direction="ltr">topic / resolution</text></g><g stroke-linecap="round"><g transform="translate(110 90) rotate(0 0 50)"><path d="M0 0 C0 16.67, 0 83.33, 0 100 M0 0 C0 16.67, 0 83.33, 0 100" stroke="#495057" stroke-width="2" fill="none"></path></g><g transform="translate(110 90) rotate(0 0 50)"><path d="M-10.26 71.81 C-6.51 82.12, -2.76 92.43, 0 100 M-10.26 71.81 C-6.27 82.78, -2.27 93.75, 0 100" stroke="#495057" stroke-width="2" fill="none"></path></g><g transform="translate(110 90) rotate(0 0 50)"><path d="M10.26 71.81 C6.51 82.12, 2.76 92.43, 0 100 M10.26 71.81 C6.27 82.78, 2.27 93.75, 0 100" stroke="#495057" stroke-width="2" fill="none"></path></g></g><g transform="translate(59.5 131.875) rotate(0 50.5 8.125)"><text x="50.5" y="16" font-family="Virgil, Segoe UI Emoji" font-size="13px" fill="#495057" text-anchor="middle" style="white-space: pre;" direction="ltr">width / height</text></g><g stroke-linecap="round"><g transform="translate(390 90) rotate(0 0 50)"><path d="M0 0 C0 16.67, 0 83.33, 0 100 M0 0 C0 16.67, 0 83.33, 0 100" stroke="#495057" stroke-width="2" fill="none"></path></g><g transform="translate(390 90) rotate(0 0 50)"><path d="M-10.26 71.81 C-7.79 78.59, -5.32 85.37, 0 100 M-10.26 71.81 C-7 80.78, -3.73 89.74, 0 100" stroke="#495057" stroke-width="2" fill="none"></path></g><g transform="translate(390 90) rotate(0 0 50)"><path d="M10.26 71.81 C7.79 78.59, 5.32 85.37, 0 100 M10.26 71.81 C7 80.78, 3.73 89.74, 0 100" stroke="#495057" stroke-width="2" fill="none"></path></g></g><g transform="translate(352.5 131.875) rotate(0 37.5 8.125)"><text x="37.5" y="16" font-family="Virgil, Segoe UI Emoji" font-size="13px" fill="#495057" text-anchor="middle" style="white-space: pre;" direction="ltr">LLM_CONFIG</text></g><g stroke-linecap="round"><g transform="translate(390 90) rotate(0 140 50)"><path d="M0 0 C0 8.33, -46.67 41.67, 0 50 C46.67 58.33, 233.33 41.67, 280 50 C326.67 58.33, 280 91.67, 280 100 M0 0 C0 8.33, -46.67 41.67, 0 50 C46.67 58.33, 233.33 41.67, 280 50 C326.67 58.33, 280 91.67, 280 100" stroke="#495057" stroke-width="2" fill="none"></path></g><g transform="translate(390 90) rotate(0 140 50)"><path d="M286.2 75.78 C284.23 83.49, 282.25 91.2, 280 100 M286.2 75.78 C283.91 84.72, 281.62 93.67, 280 100" stroke="#495057" stroke-width="2" fill="none"></path></g><g transform="translate(390 90) rotate(0 140 50)"><path d="M300.32 85.43 C293.85 90.07, 287.39 94.71, 280 100 M300.32 85.43 C292.82 90.81, 285.31 96.19, 280 100" stroke="#495057" stroke-width="2" fill="none"></path></g></g><g transform="translate(492.5 131.875) rotate(0 37.5 8.125)"><text x="37.5" y="16" font-family="Virgil, Segoe UI Emoji" font-size="13px" fill="#495057" text-anchor="middle" style="white-space: pre;" direction="ltr">LLM_CONFIG</text></g><g stroke-linecap="round"><g transform="translate(390 270) rotate(0 -70 50)"><path d="M0 0 C0 8.33, 23.33 41.67, 0 50 C-23.33 58.33, -116.67 41.67, -140 50 C-163.33 58.33, -140 91.67, -140 100 M0 0 C0 8.33, 23.33 41.67, 0 50 C-23.33 58.33, -116.67 41.67, -140 50 C-163.33 58.33, -140 91.67, -140 100" stroke="#495057" stroke-width="2" fill="none"></path></g><g transform="translate(390 270) rotate(0 -70 50)"><path d="M-155.69 80.54 C-150.11 87.45, -144.54 94.37, -140 100 M-155.69 80.54 C-150.49 86.98, -145.3 93.43, -140 100" stroke="#495057" stroke-width="2" fill="none"></path></g><g transform="translate(390 270) rotate(0 -70 50)"><path d="M-139.51 75 C-139.68 83.89, -139.86 92.77, -140 100 M-139.51 75 C-139.67 83.28, -139.83 91.56, -140 100" stroke="#495057" stroke-width="2" fill="none"></path></g></g><g transform="translate(295.5 311.875) rotate(0 24.5 8.125)"><text x="24.5" y="16" font-family="Virgil, Segoe UI Emoji" font-size="13px" fill="#495057" text-anchor="middle" style="white-space: pre;" direction="ltr">prompt</text></g><g stroke-linecap="round"><g transform="translate(390 270) rotate(0 70 50)"><path d="M0 0 C0 8.33, -23.33 41.67, 0 50 C23.33 58.33, 116.67 41.67, 140 50 C163.33 58.33, 140 91.67, 140 100 M0 0 C0 8.33, -23.33 41.67, 0 50 C23.33 58.33, 116.67 41.67, 140 50 C163.33 58.33, 140 91.67, 140 100" stroke="#495057" stroke-width="2" fill="none"></path></g><g transform="translate(390 270) rotate(0 70 50)"><path d="M139.51 75 C139.69 84.25, 139.87 93.49, 140 100 M139.51 75 C139.66 82.58, 139.81 90.15, 140 100" stroke="#495057" stroke-width="2" fill="none"></path></g><g transform="translate(390 270) rotate(0 70 50)"><path d="M155.69 80.54 C149.89 87.74, 144.08 94.93, 140 100 M155.69 80.54 C150.94 86.43, 146.18 92.33, 140 100" stroke="#495057" stroke-width="2" fill="none"></path></g></g><g transform="translate(429 311.875) rotate(0 31 8.125)"><text x="31" y="16" font-family="Virgil, Segoe UI Emoji" font-size="13px" fill="#495057" text-anchor="middle" style="white-space: pre;" direction="ltr">negative</text></g><g stroke-linecap="round"><g transform="translate(250 450) rotate(0 70 50)"><path d="M0 0 C0 8.33, -23.33 41.67, 0 50 C23.33 58.33, 116.67 41.67, 140 50 C163.33 58.33, 140 91.67, 140 100 M0 0 C0 8.33, -23.33 41.67, 0 50 C23.33 58.33, 116.67 41.67, 140 50 C163.33 58.33, 140 91.67, 140 100" stroke="#495057" stroke-width="2" fill="none"></path></g><g transform="translate(250 450) rotate(0 70 50)"><path d="M139.51 75 C139.66 82.78, 139.81 90.56, 140 100 M139.51 75 C139.68 83.51, 139.84 92.02, 140 100" stroke="#495057" stroke-width="2" fill="none"></path></g><g transform="translate(250 450) rotate(0 70 50)"><path d="M155.69 80.54 C150.81 86.59, 145.92 92.65, 140 100 M155.69 80.54 C150.35 87.16, 145.01 93.79, 140 100" stroke="#495057" stroke-width="2" fill="none"></path></g></g><g stroke-linecap="round"><g transform="translate(530 450) rotate(0 -70 50)"><path d="M0 0 C0 8.33, 23.33 41.67, 0 50 C-23.33 58.33, -116.67 41.67, -140 50 C-163.33 58.33, -140 91.67, -140 100 M0 0 C0 8.33, 23.33 41.67, 0 50 C-23.33 58.33, -116.67 41.67, -140 50 C-163.33 58.33, -140 91.67, -140 100" stroke="#495057" stroke-width="2" fill="none"></path></g><g transform="translate(530 450) rotate(0 -70 50)"><path d="M-155.69 80.54 C-151.97 85.15, -148.25 89.76, -140 100 M-155.69 80.54 C-150.16 87.39, -144.63 94.25, -140 100" stroke="#495057" stroke-width="2" fill="none"></path></g><g transform="translate(530 450) rotate(0 -70 50)"><path d="M-139.51 75 C-139.63 80.93, -139.74 86.85, -140 100 M-139.51 75 C-139.68 83.81, -139.85 92.62, -140 100" stroke="#495057" stroke-width="2" fill="none"></path></g></g><g stroke-linecap="round"><g transform="translate(110 270) rotate(0 140 140)"><path d="M0 0 C0 23.33, -46.67 116.67, 0 140 C46.67 163.33, 233.33 116.67, 280 140 C326.67 163.33, 280 256.67, 280 280 M0 0 C0 23.33, -46.67 116.67, 0 140 C46.67 163.33, 233.33 116.67, 280 140 C326.67 163.33, 280 256.67, 280 280" stroke="#495057" stroke-width="2" fill="none"></path></g><g transform="translate(110 270) rotate(0 140 140)"><path d="M276.72 250.18 C277.6 258.18, 278.48 266.17, 280 280 M276.72 250.18 C277.75 259.54, 278.78 268.9, 280 280" stroke="#495057" stroke-width="2" fill="none"></path></g><g transform="translate(110 270) rotate(0 140 140)"><path d="M296.66 255.05 C292.19 261.74, 287.72 268.43, 280 280 M296.66 255.05 C291.43 262.88, 286.2 270.72, 280 280" stroke="#495057" stroke-width="2" fill="none"></path></g></g><g stroke-linecap="round"><g transform="translate(390 630) rotate(0 0 50)"><path d="M0 0 C0 16.67, 0 83.33, 0 100 M0 0 C0 16.67, 0 83.33, 0 100" stroke="#495057" stroke-width="2" fill="none"></path></g><g transform="translate(390 630) rotate(0 0 50)"><path d="M-10.26 71.81 C-7 80.78, -3.73 89.74, 0 100 M-10.26 71.81 C-7.07 80.57, -3.89 89.33, 0 100" stroke="#495057" stroke-width="2" fill="none"></path></g><g transform="translate(390 630) rotate(0 0 50)"><path d="M10.26 71.81 C7 80.78, 3.73 89.74, 0 100 M10.26 71.81 C7.07 80.57, 3.89 89.33, 0 100" stroke="#495057" stroke-width="2" fill="none"></path></g></g><g stroke-linecap="round"><g transform="translate(390 810) rotate(0 0 50)"><path d="M0 0 C0 16.67, 0 83.33, 0 100 M0 0 C0 16.67, 0 83.33, 0 100" stroke="#495057" stroke-width="2" fill="none"></path></g><g transform="translate(390 810) rotate(0 0 50)"><path d="M-10.26 71.81 C-8.08 77.8, -5.9 83.79, 0 100 M-10.26 71.81 C-7.16 80.32, -4.07 88.83, 0 100" stroke="#495057" stroke-width="2" fill="none"></path></g><g transform="translate(390 810) rotate(0 0 50)"><path d="M10.26 71.81 C8.08 77.8, 5.9 83.79, 0 100 M10.26 71.81 C7.16 80.32, 4.07 88.83, 0 100" stroke="#495057" stroke-width="2" fill="none"></path></g></g><g transform="translate(368.75 851.875) rotate(0 21.25 8.125)"><text x="21.25" y="16" font-family="Virgil, Segoe UI Emoji" font-size="13px" fill="#495057" text-anchor="middle" style="white-space: pre;" direction="ltr">image</text></g><g stroke-linecap="round"><g transform="translate(390 990) rotate(0 0 50)"><path d="M0 0 C0 16.67, 0 83.33, 0 100 M0 0 C0 16.67, 0 83.33, 0 100" stroke="#495057" stroke-width="2" fill="none"></path></g><g transform="translate(390 990) rotate(0 0 50)"><path d="M-10.26 71.81 C-7.64 79.02, -5.01 86.24, 0 100 M-10.26 71.81 C-6.4 82.41, -2.55 93, 0 100" stroke="#495057" stroke-width="2" fill="none"></path></g><g transform="translate(390 990) rotate(0 0 50)"><path d="M10.26 71.81 C7.64 79.02, 5.01 86.24, 0 100 M10.26 71.81 C6.4 82.41, 2.55 93, 0 100" stroke="#495057" stroke-width="2" fill="none"></path></g></g><g transform="translate(349.25 1031.875) rotate(0 40.75 8.125)"><text x="40.75" y="16" font-family="Virgil, Segoe UI Emoji" font-size="13px" fill="#495057" text-anchor="middle" style="white-space: pre;" direction="ltr">passthrough</text></g></svg>