<svg version="1.1" xmlns="http://www.w3.org/2000/svg" viewBox="0 0 2070 1785" width="2070" height="1785">
  <!-- svg-source:excalidraw -->
  
  <defs>
    <style>
      @font-face {
        font-family: "Virgil";
        src: url("https://excalidraw.com/Virgil.woff2");
      }
      @font-face {
        font-family: "Cascadia";
        src: url("https://excalidraw.com/Cascadia.woff2");
      }
    </style>
  </defs>
  <rect x="0" y="0" width="2070" height="1785" fill="#ffffff"></rect><g transform="translate(418 10) rotate(0 167 15)"><text x="167" y="30" font-family="Virgil, Segoe UI Emoji" font-size="24px" fill="#1e1e1e" text-anchor="middle" style="white-space: pre;" direction="ltr">ComfyUI Pipeline Automation</text></g><g stroke-opacity="0.3" fill-opacity="0.3" stroke-linecap="round" transform="translate(960 60) rotate(0 550 107.5)"><path d="M0 1.23 L1100.55 -2.29 L1102.21 218.94 L-3.31 215.94" stroke="none" stroke-width="0" fill="#e9ecef"></path><path d="M-1.4 -1.28 C391.62 -0.94, 784.38 -0.98, 1099.77 0.77 M1102.62 -0.47 C1101.36 45.75, 1098.88 92.84, 1099.73 214.49 M1101.07 215.98 C713.9 220.85, 325.57 222.97, -1.25 216.13 M1.81 213.26 C4.59 141.48, -0.8 64.47, 0.4 -1.53" stroke="#868e96" stroke-width="2.5" fill="none" stroke-dasharray="8 10"></path></g><g transform="translate(960 70) rotate(0 5 10)"><text x="0" y="20" font-family="Virgil, Segoe UI Emoji" font-size="16px" fill="#868e96" text-anchor="start" style="white-space: pre;" direction="ltr">Config &amp; Input</text></g><g stroke-opacity="0.3" fill-opacity="0.3" stroke-linecap="round" transform="translate(390 310) rotate(0 360 107.5)"><path d="M1.01 3.85 L722.9 -3.56 L718.97 217.88 L-2.62 214.68" stroke="none" stroke-width="0" fill="#f3f0ff"></path><path d="M1.19 0.17 C241.35 6.42, 481.29 4.74, 719.08 0.19 M718.47 -0.13 C723.4 75.99, 725.26 153.25, 716.51 216.57 M719.89 214.59 C516.39 214.47, 310.29 214.54, -1 216.49 M-2.22 211.82 C-4.98 145.74, -5.71 80.22, -0.68 1.02" stroke="#7048e8" stroke-width="2.5" fill="none" stroke-dasharray="8 10"></path></g><g transform="translate(390 320) rotate(0 5 10)"><text x="0" y="20" font-family="Virgil, Segoe UI Emoji" font-size="16px" fill="#7048e8" text-anchor="start" style="white-space: pre;" direction="ltr">Prompt Generation</text></g><g stroke-opacity="0.3" fill-opacity="0.3" stroke-linecap="round" transform="translate(10 310) rotate(0 455 482.5)"><path d="M2.82 0.01 L907.39 2.98 L907.21 967.68 L1.75 962.7" stroke="none" stroke-width="0" fill="#e7f5ff"></path><path d="M-0.85 -1.05 C244.57 -7.21, 488.53 -5.03, 911.44 0.21 M908.41 0.09 C910.49 290.79, 911.61 582.44, 909.95 964.09 M910.1 965.97 C666.84 964.94, 422.16 964.47, 1.46 965.34 M-1.16 963.9 C-6.41 603.87, -5.78 242.8, -0.83 0.06" stroke="#1971c2" stroke-width="2.5" fill="none" stroke-dasharray="8 10"></path></g><g transform="translate(10 320) rotate(0 5 10)"><text x="0" y="20" font-family="Virgil, Segoe UI Emoji" font-size="16px" fill="#1971c2" text-anchor="start" style="white-space: pre;" direction="ltr">ComfyUI Diffusion</text></g><g stroke-opacity="0.3" fill-opacity="0.3" stroke-linecap="round" transform="translate(390 1310) rotate(0 170 232.5)"><path d="M1.97 3.97 L336.55 -0.49 L340.31 467.15 L2.31 467.91" stroke="none" stroke-width="0" fill="#ebfbee"></path><path d="M2.3 1.54 C84.97 1.41, 173.68 1.08, 338.79 0.97 M339.31 0.57 C337.08 127.06, 335.06 249.74, 341.54 464.09 M342.05 463.07 C215.73 464.66, 89.03 462.22, -2.27 463.94 M-1.79 465.34 C-5.5 309.04, -5.55 149.4, 1.07 1" stroke="#2f9e44" stroke-width="2.5" fill="none" stroke-dasharray="8 10"></path></g><g transform="translate(390 1320) rotate(0 5 10)"><text x="0" y="20" font-family="Virgil, Segoe UI Emoji" font-size="16px" fill="#2f9e44" text-anchor="start" style="white-space: pre;" direction="ltr">Scheduling &amp; Output</text></g><g stroke-linecap="round" transform="translate(1010 115) rotate(0 115 50)"><path d="M1.06 0.6 L226.82 -1.49 L229.23 101.38 L-0.11 96.44" stroke="none" stroke-width="0" fill="#a5d8ff"></path><path d="M3.29 -2.29 C91.59 0.13, 184.86 1.63, 230.33 1.14 M0.91 -1.39 C69.73 3.75, 135.68 3.81, 229.76 -0.82 M232.16 1.72 C230.2 34.66, 229.09 71.58, 231.59 98.94 M230.2 1.81 C233.46 30.72, 229.98 63.09, 229.01 99.38 M228.17 101.95 C178.55 98.27, 121.06 93.57, -0.05 100.48 M231.04 98.78 C140.11 100.01, 50.48 100.92, 0.81 101.64 M2.83 96.67 C-4.44 73.45, -5.59 47.97, 2.47 -3.03 M1 98.99 C-2.54 75.97, -2.59 52.28, -1.82 1.08" stroke="#1971c2" stroke-width="2" fill="none"></path></g><g transform="translate(1015 155) rotate(0 110 10)"><text x="110" y="20" font-family="Virgil, Segoe UI Emoji" font-size="16px" fill="#1971c2" text-anchor="middle" style="white-space: pre;" direction="ltr">Gap Scanner</text></g><g stroke-linecap="round" transform="translate(1390 115) rotate(0 115 50)"><path d="M-3.85 -1.02 L226.62 0.5 L227.01 100.12 L-1.15 100.47" stroke="none" stroke-width="0" fill="#d0bfff"></path><path d="M-1.86 -0.57 C82.97 -0.17, 158.73 1.83, 232.69 -2.05 M0.66 -1.54 C88.21 -4.25, 177.48 -3.83, 230.34 1.07 M230.55 2.62 C231.59 34.25, 230.76 72.33, 226.93 98.32 M229.99 1.32 C230.67 25.55, 230.71 51.07, 231.78 99.6 M226.84 98.68 C171.8 97.14, 107.33 96.95, 0.96 101.83 M228.42 99.18 C156.48 100.6, 80.69 100.24, -1.24 99.04 M-3.89 98.27 C3.02 63.93, 1.32 30.49, 0.45 -1.17 M1.03 99.8 C-0.1 69.1, 0.8 41.15, -0.02 1.08" stroke="#7048e8" stroke-width="2" fill="none"></path></g><g transform="translate(1395 155) rotate(0 110 10)"><text x="110" y="20" font-family="Virgil, Segoe UI Emoji" font-size="16px" fill="#7048e8" text-anchor="middle" style="white-space: pre;" direction="ltr">LLM Config</text></g><g stroke-linecap="round" transform="translate(1770 115) rotate(0 115 50)"><path d="M0.92 1.78 L229.19 -1.34 L229.24 96.02 L-2.52 99.4" stroke="none" stroke-width="0" fill="#fcc2d7"></path><path d="M1.65 -1.37 C50.36 -1.57, 104.9 0.06, 228.34 -1.56 M-1.24 0.82 C74.71 1.61, 147.35 0.15, 228.8 -1.58 M231.41 -0.04 C234.04 30.26, 230.09 54.43, 232.73 102.77 M231.2 -0.1 C233.44 33.41, 233.53 67.21, 230.89 98.02 M229.89 97.76 C142.24 100.04, 58.83 104.9, -0.44 99.04 M229.49 101.62 C152.48 99.71, 76.11 98.59, 1.69 99.05 M1.1 100.51 C0.28 65.1, -2.45 30.32, 2.07 3.6 M-0.1 101.77 C-2.03 60.66, -2.29 23.35, -0.29 0.41" stroke="#c2255c" stroke-width="2" fill="none"></path></g><g transform="translate(1775 155) rotate(0 110 10)"><text x="110" y="20" font-family="Virgil, Segoe UI Emoji" font-size="16px" fill="#c2255c" text-anchor="middle" style="white-space: pre;" direction="ltr">Bulk Prompter</text></g><g stroke-linecap="round" transform="translate(440 365) rotate(0 115 50)"><path d="M2.2 0.83 L226.12 -3.6 L228.87 100.87 L1.32 98.27" stroke="none" stroke-width="0" fill="#a5d8ff"></path><path d="M-3.12 -2.39 C70.82 4.63, 138.41 3.45, 229.2 1.98 M-1.25 -0.5 C87.84 -1.86, 176.55 -3.39, 229.69 -1.09 M232.88 -1.31 C229.28 26.49, 230.64 56.39, 232.36 103.08 M230.78 -1.51 C230.01 23.2, 226.11 49.51, 230.07 101.52 M229.31 96.62 C137.53 98.17, 46.49 94.73, -2.9 97.35 M230.85 101.36 C163.73 100.59, 96.36 100.83, 0.42 100.81 M-0.07 102.32 C1.69 70.45, -0.7 45.94, 3.08 3.48 M-0.36 100.29 C-0.11 66.11, -0.36 31.23, 1.73 1.04" stroke="#1971c2" stroke-width="2" fill="none"></path></g><g transform="translate(445 405) rotate(0 110 10)"><text x="110" y="20" font-family="Virgil, Segoe UI Emoji" font-size="16px" fill="#1971c2" text-anchor="middle" style="white-space: pre;" direction="ltr">Prompt Generator</text></g><g stroke-linecap="round" transform="translate(820 365) rotate(0 115 50)"><path d="M0.23 2.49 L227.23 -3.17 L229.26 96.89 L-2.53 102.45" stroke="none" stroke-width="0" fill="#d0bfff"></path><path d="M2.07 3.4 C60.28 1.15, 114.62 -2.29, 230.33 -2.94 M-1.06 -1.36 C78.59 -4.06, 158.93 -2.92, 228.39 -1.49 M231.5 3.5 C233.29 19.32, 229.02 39.18, 226.22 98.62 M231.58 0.13 C229.4 23.68, 230.73 49.04, 230.86 101.04 M229.16 102.33 C184.95 100.68, 135.91 101.71, -2.47 100.99 M228.87 98.81 C156.9 103.63, 83.7 102.54, -1.57 99.49 M2.9 102.09 C2.04 65.72, 1.68 24.85, -0.5 2.08 M-1.29 98.99 C-1.54 76.21, -1.53 51.39, 1.06 1.99" stroke="#7048e8" stroke-width="2" fill="none"></path></g><g transform="translate(825 405) rotate(0 110 10)"><text x="110" y="20" font-family="Virgil, Segoe UI Emoji" font-size="16px" fill="#7048e8" text-anchor="middle" style="white-space: pre;" direction="ltr">API Call</text></g><g stroke-linecap="round" transform="translate(250 615) rotate(0 115 50)"><path d="M-3.91 3.51 L230.51 -2.37 L233.41 102 L2.48 102.72" stroke="none" stroke-width="0" fill="#e9ecef"></path><path d="M1.97 0.21 C64.4 -1.24, 134.76 -1.39, 227.42 2.72 M-0.3 -0.43 C67.5 -1.02, 135.23 0.4, 229.66 0.24 M227.37 1.58 C228.11 27.3, 229.55 54.37, 228.08 99.72 M228.96 0.48 C232.3 28.77, 230.02 59.94, 231.41 98.49 M228.7 99.14 C178.23 95.7, 129.56 97.62, -0.57 102.15 M229.92 98.4 C181.69 104.6, 132.51 102.45, 0.67 99 M-3.22 96.9 C1.72 64.29, 2.09 35.23, 2.73 2.05 M-1.82 101.21 C1.55 61.34, 2.1 22.34, 1.77 0.27" stroke="#1e1e1e" stroke-width="2" fill="none"></path></g><g transform="translate(255 655) rotate(0 110 10)"><text x="110" y="20" font-family="Virgil, Segoe UI Emoji" font-size="16px" fill="#1e1e1e" text-anchor="middle" style="white-space: pre;" direction="ltr">CLIP Encode (+)</text></g><g stroke-linecap="round" transform="translate(630 615) rotate(0 115 50)"><path d="M-3.41 1.98 L231.42 -0.23 L233.47 98.47 L-3.43 100.47" stroke="none" stroke-width="0" fill="#e9ecef"></path><path d="M0.35 -0.33 C90.53 2.83, 180.65 -2.92, 229.05 -0.39 M1.03 -0.69 C80.37 -1.98, 159.16 -2.78, 230.68 1.22 M232.92 1.3 C230.75 25.34, 233.95 42.49, 226.16 103.99 M228.85 0.37 C233.03 37.6, 230.3 74.37, 229.09 100.89 M231.21 100.44 C172.53 97.86, 111.36 99.71, 1.57 102.65 M230.68 98.79 C166.31 100.51, 104.96 101.74, -0.39 98.85 M-3.19 98.62 C-0.9 71.08, 1.84 38.69, 3.6 2.87 M-0.48 99.87 C0.92 72.52, -0.11 48.61, 0.77 -0.06" stroke="#1e1e1e" stroke-width="2" fill="none"></path></g><g transform="translate(635 655) rotate(0 110 10)"><text x="110" y="20" font-family="Virgil, Segoe UI Emoji" font-size="16px" fill="#1e1e1e" text-anchor="middle" style="white-space: pre;" direction="ltr">CLIP Encode (-)</text></g><g stroke-linecap="round" transform="translate(60 365) rotate(0 115 50)"><path d="M-1.18 3 L231.81 -1.51 L231.82 96.18 L2.38 102.07" stroke="none" stroke-width="0" fill="#e9ecef"></path><path d="M2.14 -3.07 C58.19 -3.75, 111.31 -2.53, 227.09 0.08 M1.36 -0.87 C49.91 2.63, 95.26 2.7, 229.27 0.13 M228.08 1.06 C227.81 23.52, 231.71 46.06, 228.67 96.19 M229.89 -0.89 C229.33 31.48, 230.29 61.26, 231.67 101.96 M227.96 103.18 C184.83 99.94, 134.04 99.39, -2.75 99.4 M230.23 98.68 C171.91 101.6, 117.34 101.85, -1 98.87 M-2.63 98.04 C1.63 74.42, 0.75 45.58, 0.61 1.11 M-1.27 101.41 C-0.55 75.42, -0.13 51.88, -0.04 1.03" stroke="#1e1e1e" stroke-width="2" fill="none"></path></g><g transform="translate(65 405) rotate(0 110 10)"><text x="110" y="20" font-family="Virgil, Segoe UI Emoji" font-size="16px" fill="#1e1e1e" text-anchor="middle" style="white-space: pre;" direction="ltr">Empty Latent</text></g><g stroke-linecap="round" transform="translate(440 865) rotate(0 115 50)"><path d="M1.92 3.37 L230.67 -1.35 L229.59 103.07 L0.84 96.66" stroke="none" stroke-width="0" fill="#e9ecef"></path><path d="M3 2.28 C68.53 4.92, 136.43 0.84, 228.93 2.41 M-0.11 -1.23 C86 -1.47, 169.9 -3.32, 231.15 0.97 M226.44 -2.61 C228.85 41.42, 232.17 79.66, 231.06 102.75 M231.55 -1.18 C229.42 40.28, 231.68 76.38, 229.78 99.26 M228.36 102.25 C155.59 98.17, 78.96 98.4, -2.4 101.05 M230.44 100.32 C144.34 96.91, 58.13 98.79, -0.69 101.59 M2.21 97.62 C-1.06 76.58, 4.71 55.05, 2.36 1.64 M1.79 99.07 C0.99 79.24, -0.41 57.41, -1.37 0.45" stroke="#1e1e1e" stroke-width="2" fill="none"></path></g><g transform="translate(445 905) rotate(0 110 10)"><text x="110" y="20" font-family="Virgil, Segoe UI Emoji" font-size="16px" fill="#1e1e1e" text-anchor="middle" style="white-space: pre;" direction="ltr">KSampler</text></g><g stroke-linecap="round" transform="translate(440 1115) rotate(0 115 50)"><path d="M-1.27 -0.82 L232.35 2.19 L233.93 101.36 L-0.55 96.83" stroke="none" stroke-width="0" fill="#e9ecef"></path><path d="M-0.42 2.11 C71.09 -5.76, 143.84 -6.24, 227.74 -1.76 M0.33 0.44 C73.05 1.49, 145.48 1.69, 230.26 0.5 M231.05 -2.82 C230.94 26.73, 231.03 49.44, 226.19 98.11 M231.71 -1.38 C227.15 25.16, 228.6 50.3, 230.31 101.2 M227.26 102.12 C159 97.59, 92.38 97.79, 2.12 103.37 M230.37 99.88 C170.6 97.7, 111.91 96.7, 0.3 99.36 M-1.68 103.5 C2.41 65.52, 3.43 27.29, 1.85 -0.8 M-1.34 101.13 C-2.2 76.66, -2.45 55.95, 1.97 0.87" stroke="#1e1e1e" stroke-width="2" fill="none"></path></g><g transform="translate(445 1155) rotate(0 110 10)"><text x="110" y="20" font-family="Virgil, Segoe UI Emoji" font-size="16px" fill="#1e1e1e" text-anchor="middle" style="white-space: pre;" direction="ltr">VAE Decode</text></g><g stroke-linecap="round" transform="translate(440 1365) rotate(0 115 50)"><path d="M-2 -2.26 L233.08 -2.75 L227.62 98.98 L1.96 101.27" stroke="none" stroke-width="0" fill="#a5d8ff"></path><path d="M3.24 2.49 C85.96 -1.33, 180.42 1.61, 227.75 2.24 M-0.5 -0.13 C71.52 -3.34, 144.47 -1.96, 230.04 0.07 M233.34 0.16 C235 26.46, 229.06 43.28, 231.45 97.21 M231.99 1.31 C229.52 32.72, 227.27 66.64, 230.79 101.67 M228.7 102.96 C164.09 99.77, 98.49 104.39, 2.16 99 M230.46 100.79 C143.98 101.07, 59.91 103.1, 0.12 99.51 M-1.29 98.95 C1.6 56.87, -1.65 22.49, -0.45 -3.67 M1.9 98.78 C-0.25 63.36, -0.11 25.72, 0.74 -1.98" stroke="#1971c2" stroke-width="2" fill="none"></path></g><g transform="translate(445 1405) rotate(0 110 10)"><text x="110" y="20" font-family="Virgil, Segoe UI Emoji" font-size="16px" fill="#1971c2" text-anchor="middle" style="white-space: pre;" direction="ltr">CRON Scheduler</text></g><g stroke-linecap="round" transform="translate(440 1615) rotate(0 115 50)"><path d="M1.95 2.15 L230.15 2.35 L231.8 96.7 L0.96 97.2" stroke="none" stroke-width="0" fill="#a5d8ff"></path><path d="M-2.28 1.72 C92.94 -4.43, 178.54 -4.13, 230.68 2.96 M-0.01 1.47 C74.42 -2.56, 145.77 -3.83, 229.97 0.91 M231.77 3.59 C230.86 27.04, 229.81 58.5, 233.13 103.15 M228.15 1.23 C229.71 20.78, 230.82 46.2, 231.78 100.46 M229.05 98.68 C181.74 100.76, 126.1 99.02, 0.82 98.32 M231.34 100.76 C151.42 101.35, 73.52 104.16, 1.59 100.16 M1.91 101.15 C-4.65 63.55, 2.55 31.02, -1.82 3.81 M1.41 100.72 C2.29 70.2, -0.27 40.14, 0.72 1.03" stroke="#1971c2" stroke-width="2" fill="none"></path></g><g transform="translate(445 1655) rotate(0 110 10)"><text x="110" y="20" font-family="Virgil, Segoe UI Emoji" font-size="16px" fill="#1971c2" text-anchor="middle" style="white-space: pre;" direction="ltr">Save As</text></g><g stroke-linecap="round"><g transform="translate(1003.6736943296485 218.21329196068052) rotate(0 -163.67369432964847 71.78670803931948)"><path d="M0.11 0.07 C-54.44 24.13, -273.68 120.59, -328.38 144.66 M-1.29 -0.95 C-55.38 22.79, -272.17 119.19, -326.2 143.11" stroke="#495057" stroke-width="2" fill="none"></path></g><g transform="translate(1003.6736943296485 218.21329196068052) rotate(0 -163.67369432964847 71.78670803931948)"><path d="M-304.49 120.58 C-307.24 125.48, -312.06 129.75, -328.2 141.75 M-304.43 122.31 C-312.19 128.81, -318.88 135.04, -325.39 142.26" stroke="#495057" stroke-width="2" fill="none"></path></g><g transform="translate(1003.6736943296485 218.21329196068052) rotate(0 -163.67369432964847 71.78670803931948)"><path d="M-296.16 139.34 C-300.69 140.34, -307.24 140.7, -328.2 141.75 M-296.11 141.07 C-306.39 141.86, -315.64 142.32, -325.39 142.26" stroke="#495057" stroke-width="2" fill="none"></path></g></g><g transform="translate(776.5 281.875) rotate(0 63.5 8.125)"><text x="63.5" y="16" font-family="Virgil, Segoe UI Emoji" font-size="13px" fill="#495057" text-anchor="middle" style="white-space: pre;" direction="ltr">topic / resolution</text></g><g stroke-linecap="round"><g transform="translate(1002.2634037018988 197.299104288974) rotate(0 -352.2634037018988 92.700895711026)"><path d="M0.35 0.21 C-117.11 31.1, -586.23 155.69, -703.82 186.39 M-0.92 -0.72 C-118.57 30.36, -586.83 153.8, -704.39 184.79" stroke="#495057" stroke-width="2" fill="none"></path></g><g transform="translate(1002.2634037018988 197.299104288974) rotate(0 -352.2634037018988 92.700895711026)"><path d="M-679.4 168.87 C-687.3 173.17, -699.94 180.83, -705.14 186.34 M-680.5 167.21 C-685.67 172.1, -691.06 175.67, -704.68 183.93" stroke="#495057" stroke-width="2" fill="none"></path></g><g transform="translate(1002.2634037018988 197.299104288974) rotate(0 -352.2634037018988 92.700895711026)"><path d="M-674.17 188.71 C-684.23 185.5, -698.85 185.63, -705.14 186.34 M-675.27 187.05 C-681.64 187.55, -688.18 186.78, -704.68 183.93" stroke="#495057" stroke-width="2" fill="none"></path></g></g><g transform="translate(599.5 281.875) rotate(0 50.5 8.125)"><text x="50.5" y="16" font-family="Virgil, Segoe UI Emoji" font-size="13px" fill="#495057" text-anchor="middle" style="white-space: pre;" direction="ltr">width / height</text></g><g stroke-linecap="round"><g transform="translate(1382.2634037018988 197.299104288974) rotate(0 -352.2634037018988 92.700895711026)"><path d="M0.6 1.1 C-116.63 31.95, -586.85 155.17, -704.42 185.76" stroke="#495057" stroke-width="2.5" fill="none" stroke-dasharray="8 10"></path></g><g transform="translate(1382.2634037018988 197.299104288974) rotate(0 -352.2634037018988 92.700895711026)"><path d="M-677.91 168.88 C-684.4 172.02, -691.56 177.25, -702.46 186.42" stroke="#495057" stroke-width="2.5" fill="none"></path></g><g transform="translate(1382.2634037018988 197.299104288974) rotate(0 -352.2634037018988 92.700895711026)"><path d="M-672.73 188.74 C-680.44 187.6, -688.72 188.53, -702.46 186.42" stroke="#495057" stroke-width="2.5" fill="none"></path></g></g><g transform="translate(992.5 281.875) rotate(0 37.5 8.125)"><text x="37.5" y="16" font-family="Virgil, Segoe UI Emoji" font-size="13px" fill="#495057" text-anchor="middle" style="white-space: pre;" direction="ltr">LLM_CONFIG</text></g><g stroke-linecap="round"><g transform="translate(1383.6736943296482 218.21329196068052) rotate(0 -163.67369432964836 71.78670803931948)"><path d="M0.52 0.93 C-54.04 24.65, -273.82 119.56, -328.32 143.3" stroke="#495057" stroke-width="2.5" fill="none" stroke-dasharray="8 10"></path></g><g transform="translate(1383.6736943296482 218.21329196068052) rotate(0 -163.67369432964836 71.78670803931948)"><path d="M-305 121.04 C-311.64 128.7, -316.33 133.66, -327.03 143.14" stroke="#495057" stroke-width="2.5" fill="none"></path></g><g transform="translate(1383.6736943296482 218.21329196068052) rotate(0 -163.67369432964836 71.78670803931948)"><path d="M-296.84 139.87 C-305.42 143.41, -311.92 144.22, -327.03 143.14" stroke="#495057" stroke-width="2.5" fill="none"></path></g></g><g transform="translate(1182.5 281.875) rotate(0 37.5 8.125)"><text x="37.5" y="16" font-family="Virgil, Segoe UI Emoji" font-size="13px" fill="#495057" text-anchor="middle" style="white-space: pre;" direction="ltr">LLM_CONFIG</text></g><g stroke-linecap="round"><g transform="translate(512.1593338597315 471.36929755298485) rotate(0 -52.15933385973153 68.63070244701518)"><path d="M0.42 -0.19 C-17.11 22.5, -86.7 113.79, -104.34 136.72 M-0.81 -1.33 C-18.58 21.46, -88.25 114.63, -105.3 137.97" stroke="#495057" stroke-width="2" fill="none"></path></g><g transform="translate(512.1593338597315 471.36929755298485) rotate(0 -52.15933385973153 68.63070244701518)"><path d="M-97.07 109.18 C-100.7 118.14, -102.82 129.71, -104.98 137.95 M-96.15 108.24 C-100.6 119.39, -103.48 131.37, -105.62 137.32" stroke="#495057" stroke-width="2" fill="none"></path></g><g transform="translate(512.1593338597315 471.36929755298485) rotate(0 -52.15933385973153 68.63070244701518)"><path d="M-80.59 121.39 C-90.42 125.86, -98.68 132.88, -104.98 137.95 M-79.66 120.45 C-90.23 127.03, -99.26 134.45, -105.62 137.32" stroke="#495057" stroke-width="2" fill="none"></path></g></g><g transform="translate(435.5 531.875) rotate(0 24.5 8.125)"><text x="24.5" y="16" font-family="Virgil, Segoe UI Emoji" font-size="13px" fill="#495057" text-anchor="middle" style="white-space: pre;" direction="ltr">prompt</text></g><g stroke-linecap="round"><g transform="translate(597.8406661402685 471.36929755298485) rotate(0 52.15933385973153 68.63070244701518)"><path d="M-1.16 -0.49 C16.17 22.28, 86.12 113.59, 103.62 136.43 M0.43 -1.79 C18.19 21.12, 88.91 114.32, 105.97 137.53" stroke="#495057" stroke-width="2" fill="none"></path></g><g transform="translate(597.8406661402685 471.36929755298485) rotate(0 52.15933385973153 68.63070244701518)"><path d="M80.05 119.96 C86.19 124.96, 93.15 131.16, 104.26 135.98 M80.48 121.6 C90.03 125.99, 97.91 132.41, 106.73 138.01" stroke="#495057" stroke-width="2" fill="none"></path></g><g transform="translate(597.8406661402685 471.36929755298485) rotate(0 52.15933385973153 68.63070244701518)"><path d="M96.47 107.66 C98.19 115.81, 100.74 125.31, 104.26 135.98 M96.9 109.3 C100.55 118.09, 102.64 128.85, 106.73 138.01" stroke="#495057" stroke-width="2" fill="none"></path></g></g><g transform="translate(619 531.875) rotate(0 31 8.125)"><text x="31" y="16" font-family="Virgil, Segoe UI Emoji" font-size="13px" fill="#495057" text-anchor="middle" style="white-space: pre;" direction="ltr">negative</text></g><g stroke-linecap="round"><g transform="translate(407.84066614026847 721.3692975529848) rotate(0 52.15933385973153 68.63070244701521)"><path d="M0.99 -1.13 C18.33 21.86, 87.02 114.87, 104.14 138.03 M0.06 0.89 C17.22 23.54, 86 113.82, 103.1 136.3" stroke="#495057" stroke-width="2" fill="none"></path></g><g transform="translate(407.84066614026847 721.3692975529848) rotate(0 52.15933385973153 68.63070244701521)"><path d="M75.98 119.79 C86.92 123.92, 94.37 128.46, 104.43 138.14 M78.48 119.94 C86.35 125.17, 93.44 130.43, 102.53 136.74" stroke="#495057" stroke-width="2" fill="none"></path></g><g transform="translate(407.84066614026847 721.3692975529848) rotate(0 52.15933385973153 68.63070244701521)"><path d="M92.31 107.36 C98.22 115.46, 100.64 123.83, 104.43 138.14 M94.81 107.51 C97.8 116.42, 99.93 125.46, 102.53 136.74" stroke="#495057" stroke-width="2" fill="none"></path></g></g><g stroke-linecap="round"><g transform="translate(702.1593338597315 721.3692975529848) rotate(0 -52.15933385973153 68.63070244701521)"><path d="M-0.98 0.74 C-18.5 23.36, -87.87 113.73, -105.14 136.39 M0.71 0.09 C-16.43 22.78, -85.16 114.53, -102.85 137.48" stroke="#495057" stroke-width="2" fill="none"></path></g><g transform="translate(702.1593338597315 721.3692975529848) rotate(0 -52.15933385973153 68.63070244701521)"><path d="M-92.75 107.45 C-97.91 116.85, -99.97 124.33, -104.42 135.99 M-93.72 109.27 C-96.37 117.01, -98.89 125.69, -102.82 137.42" stroke="#495057" stroke-width="2" fill="none"></path></g><g transform="translate(702.1593338597315 721.3692975529848) rotate(0 -52.15933385973153 68.63070244701521)"><path d="M-76.4 119.85 C-86.5 125.43, -93.42 129.22, -104.42 135.99 M-77.37 121.67 C-85.05 125.5, -92.66 130.34, -102.82 137.42" stroke="#495057" stroke-width="2" fill="none"></path></g></g><g stroke-linecap="round"><g transform="translate(217.84066614026847 471.36929755298485) rotate(0 147.15933385973153 193.63070244701518)"><path d="M-0.62 1.14 C48.35 65.68, 244.23 322.6, 293.41 386.85 M1.26 0.69 C50.64 65.43, 246.89 323.68, 295.65 388.18" stroke="#495057" stroke-width="2" fill="none"></path></g><g transform="translate(217.84066614026847 471.36929755298485) rotate(0 147.15933385973153 193.63070244701518)"><path d="M272.34 370.41 C276.42 376.67, 282.79 380.11, 296.1 387.88 M271.07 370.99 C277.43 375.9, 283.14 380.09, 295.3 388.79" stroke="#495057" stroke-width="2" fill="none"></path></g><g transform="translate(217.84066614026847 471.36929755298485) rotate(0 147.15933385973153 193.63070244701518)"><path d="M288.69 358.01 C288.38 367.49, 290.4 374.23, 296.1 387.88 M287.42 358.59 C289.32 366.71, 290.69 374.2, 295.3 388.79" stroke="#495057" stroke-width="2" fill="none"></path></g></g><g stroke-linecap="round"><g transform="translate(555 973) rotate(0 0 67)"><path d="M0.14 -0.32 C0.32 21.79, 0.14 110.97, 0.24 133.26 M-1.24 -1.53 C-1.13 20.66, -0.85 111.74, -0.59 134.41" stroke="#495057" stroke-width="2" fill="none"></path></g><g transform="translate(555 973) rotate(0 0 67)"><path d="M-11.57 106.68 C-9.69 113.99, -6.94 119.31, -0.57 133.9 M-10.52 106.73 C-7.2 114.47, -5.52 121.32, -0.29 134.28" stroke="#495057" stroke-width="2" fill="none"></path></g><g transform="translate(555 973) rotate(0 0 67)"><path d="M8.95 106.55 C6.06 113.91, 4.04 119.26, -0.57 133.9 M10.01 106.59 C7.73 114.22, 3.81 121.12, -0.29 134.28" stroke="#495057" stroke-width="2" fill="none"></path></g></g><g stroke-linecap="round"><g transform="translate(555 1223) rotate(0 0 67)"><path d="M0.96 0.96 C1.04 23.05, 0.86 110.99, 0.56 133.3 M0.01 0.42 C-0.04 22.59, -0.37 112.39, -0.1 134.46" stroke="#495057" stroke-width="2" fill="none"></path></g><g transform="translate(555 1223) rotate(0 0 67)"><path d="M-8.85 107.23 C-8.26 113.5, -2.62 125.04, -2.06 132.55 M-9.83 106.76 C-7.43 116.02, -4.37 124.84, -0.11 134.95" stroke="#495057" stroke-width="2" fill="none"></path></g><g transform="translate(555 1223) rotate(0 0 67)"><path d="M11.68 107.17 C5.94 113.62, 5.26 125.18, -2.06 132.55 M10.69 106.7 C6.35 115.82, 2.66 124.65, -0.11 134.95" stroke="#495057" stroke-width="2" fill="none"></path></g></g><g transform="translate(533.75 1281.875) rotate(0 21.25 8.125)"><text x="21.25" y="16" font-family="Virgil, Segoe UI Emoji" font-size="13px" fill="#495057" text-anchor="middle" style="white-space: pre;" direction="ltr">image</text></g><g stroke-linecap="round"><g transform="translate(555 1473) rotate(0 0 67)"><path d="M-0.32 0.18 C-0.39 22.64, 0.49 112.73, 0.72 135.15 M1.71 -0.77 C1.45 21.35, 0.29 111.39, 0.15 133.63" stroke="#495057" stroke-width="2" fill="none"></path></g><g transform="translate(555 1473) rotate(0 0 67)"><path d="M-9.53 106.54 C-3.92 118.25, -0.82 127.86, -1.52 133.06 M-9.07 105.61 C-6.01 114.56, -3.19 124.42, -0.32 133.05" stroke="#495057" stroke-width="2" fill="none"></path></g><g transform="translate(555 1473) rotate(0 0 67)"><path d="M10.99 106.74 C8.57 118.32, 3.64 127.85, -1.52 133.06 M11.45 105.82 C7.78 114.8, 3.88 124.58, -0.32 133.05" stroke="#495057" stroke-width="2" fill="none"></path></g></g><g transform="translate(514.25 1531.875) rotate(0 40.75 8.125)"><text x="40.75" y="16" font-family="Virgil, Segoe UI Emoji" font-size="13px" fill="#495057" text-anchor="middle" style="white-space: pre;" direction="ltr">passthrough</text></g></svg>