<svg version="1.1" xmlns="http://www.w3.org/2000/svg" viewBox="0 0 780 1180" width="780" height="1180">
  <!-- svg-source:excalidraw -->
  
  <defs>
    <style>
      @font-face {
        font-family: "Virgil";
        src: url("https://excalidraw.com/Virgil.woff2");
      }
      @font-face {
        font-family: "Cascadia";
        src: url("https://excalidraw.com/Cascadia.woff2");
      }
    </style>
  </defs>
  <rect x="0" y="0" width="780" height="1180" fill="#ffffff"></rect><g stroke-linecap="round" transform="translate(10 10) rotate(0 100 40)"><path d="M-2.6 -0.59 L201.43 -1.45 L203.54 76.12 L-0.13 81.04" stroke="none" stroke-width="0" fill="#a5d8ff"></path><path d="M0.8 -0.23 C43.61 -2.61, 89.03 1.32, 200.37 -3.04 M1.36 -0.59 C47.8 1.34, 97.66 -1.12, 199.88 -1.03 M198.27 0.5 C202.96 24.91, 197.62 44.78, 197.07 79.04 M199.29 1.42 C199.93 19.01, 201.49 35.41, 200.83 80.81 M201.4 76.72 C138.97 82.32, 81.66 80.2, -2.89 77.29 M199.17 79.49 C137.22 79.84, 73.17 81.23, -0.38 80.67 M0.52 76.85 C-0.9 62.89, -1.79 43.34, -3.13 0.62 M-0.25 79.08 C-1.2 56.28, -0.7 31.61, 0.08 0.7" stroke="#1971c2" stroke-width="2" fill="none"></path></g><g transform="translate(15 37.5) rotate(0 95 12.5)"><text x="95" y="25" font-family="Virgil, Segoe UI Emoji" font-size="20px" fill="#1971c2" text-anchor="middle" style="white-space: pre;" direction="ltr">Gap Scanner</text></g><g stroke-linecap="round" transform="translate(290 10) rotate(0 100 40)"><path d="M-1.67 -3.36 L199.44 0.69 L198.87 78.29 L-0.72 78.48" stroke="none" stroke-width="0" fill="#d0bfff"></path><path d="M-1.48 -3.02 C72.54 -0.74, 151.23 -1.45, 201.92 1.9 M-0.38 -0.21 C73.31 2.91, 141.53 0.96, 199.32 -0.38 M199 -3.84 C198.9 20.06, 197.58 46.91, 197.22 78.02 M199.66 0.52 C197.51 20.08, 199.15 41.24, 201.24 80.03 M202.33 78.2 C147.33 79.07, 90.78 76.3, 1.1 79.54 M201.58 78.91 C143.01 77.1, 88.7 76.37, 0.1 79.84 M-1.78 79.4 C1.93 63.56, -2.77 43.95, 0.27 3.17 M0.56 81.35 C1.59 49.99, 1.33 16.44, -0.11 0.62" stroke="#7048e8" stroke-width="2" fill="none"></path></g><g transform="translate(295 37.5) rotate(0 95 12.5)"><text x="95" y="25" font-family="Virgil, Segoe UI Emoji" font-size="20px" fill="#7048e8" text-anchor="middle" style="white-space: pre;" direction="ltr">LLM Config</text></g><g stroke-linecap="round" transform="translate(300 190) rotate(0 105 40)"><path d="M-3 -0.16 L206.24 -3.64 L211.72 77.89 L1.01 81.71" stroke="none" stroke-width="0" fill="#a5d8ff"></path><path d="M0.35 1.18 C75.64 3.36, 152.95 5.43, 207.15 -1.22 M1.07 -1.41 C79.42 1.41, 160.75 3.43, 210.95 0.9 M210.89 0.52 C210.59 31.99, 208.56 64.82, 207.84 76.95 M211.1 0.53 C211.38 29.66, 210.85 57.72, 211.06 81.29 M207.14 81.66 C168.4 78.71, 123.05 81.48, -1.93 80.66 M209.34 81.74 C163.05 78.63, 116.14 79.94, -1.08 81.31 M3.17 80.8 C-1.01 53.89, 0.66 34.88, 2.25 -1.86 M-0.47 78.34 C-0.26 49.62, -2.14 17.1, -0.93 -0.37" stroke="#1971c2" stroke-width="2" fill="none"></path></g><g transform="translate(305 217.5) rotate(0 100 12.5)"><text x="100" y="25" font-family="Virgil, Segoe UI Emoji" font-size="20px" fill="#1971c2" text-anchor="middle" style="white-space: pre;" direction="ltr">Prompt Generator</text></g><g stroke-linecap="round" transform="translate(570 190) rotate(0 100 40)"><path d="M-3.66 -3.49 L198.21 1.74 L196.33 78.27 L-0.84 80.43" stroke="none" stroke-width="0" fill="#d0bfff"></path><path d="M0.59 1.69 C51.49 1.27, 107.21 1.57, 201.61 -2.23 M-1.17 0.02 C49.99 3.11, 98.4 2.11, 199.35 0.61 M196.13 -2.49 C198.49 33.1, 200.66 64.96, 197.12 76.08 M201.42 0.51 C201.06 25.21, 201.6 50.78, 201.92 81.2 M196.43 76.63 C155.51 81.57, 108.79 80.57, -3 77.79 M198.85 79.8 C127.01 80.45, 53.38 82.35, -0.59 81.03 M-3.64 79.22 C3.2 54.27, -3.51 23.72, -1.36 3.77 M-0.85 81.72 C2.22 51.09, 2.77 18.58, -1.35 -1.12" stroke="#7048e8" stroke-width="2" fill="none"></path></g><g transform="translate(575 217.5) rotate(0 95 12.5)"><text x="95" y="25" font-family="Virgil, Segoe UI Emoji" font-size="20px" fill="#7048e8" text-anchor="middle" style="white-space: pre;" direction="ltr">API Call</text></g><g stroke-linecap="round" transform="translate(150 370) rotate(0 100 40)"><path d="M-3.07 -1.7 L201.45 -0.23 L198.76 76.28 L-3.26 83" stroke="none" stroke-width="0" fill="#e9ecef"></path><path d="M-1.96 3.53 C51.55 2.1, 102.39 4.8, 196.72 1.62 M0.25 0.85 C66.79 -3.06, 132.48 -2.36, 198.86 0.49 M202.21 3.94 C201.2 29.33, 195.62 49.38, 203.86 80.69 M199.48 0.07 C201.85 18.83, 201.51 37.46, 198.7 81.69 M203 79.65 C125.28 74.23, 43.9 77.16, -3.55 77.06 M201.15 79.23 C135.39 79.45, 69.94 79.49, 0.06 79.03 M2.46 79.53 C2.6 56.07, -0.93 27.23, -3.46 0.57 M1.3 81.02 C0.01 57.89, -0.15 34.08, 0.34 1.99" stroke="#1e1e1e" stroke-width="2" fill="none"></path></g><g transform="translate(155 400) rotate(0 95 10)"><text x="95" y="20" font-family="Virgil, Segoe UI Emoji" font-size="16px" fill="#1e1e1e" text-anchor="middle" style="white-space: pre;" direction="ltr">CLIP Encode (+)</text></g><g stroke-linecap="round" transform="translate(430 370) rotate(0 100 40)"><path d="M0.66 0.6 L199.97 1.81 L200.77 80.01 L-2.94 79.02" stroke="none" stroke-width="0" fill="#e9ecef"></path><path d="M-2.82 0.49 C63.84 -0.66, 121.82 1.43, 196.58 1.36 M1.29 -1.62 C49.21 0.17, 100.89 -1.23, 200.64 0.05 M198.04 2.43 C197.54 26.26, 200.31 63.87, 197.27 76.86 M200.63 1.16 C199.79 26.42, 198.1 54.28, 199.85 79 M202.52 78.67 C124.34 85.72, 51.19 86.32, -2.09 76.69 M201.24 80.53 C135.11 78.57, 70.84 76.79, 0.73 79.83 M-2.27 78.29 C-0.87 47.88, 2.3 19.95, 3.26 -2.4 M-1.19 79.2 C0.31 56.38, -1.18 34.02, 1.53 1.21" stroke="#1e1e1e" stroke-width="2" fill="none"></path></g><g transform="translate(435 400) rotate(0 95 10)"><text x="95" y="20" font-family="Virgil, Segoe UI Emoji" font-size="16px" fill="#1e1e1e" text-anchor="middle" style="white-space: pre;" direction="ltr">CLIP Encode (-)</text></g><g stroke-linecap="round" transform="translate(10 190) rotate(0 100 40)"><path d="M3.29 -0.83 L201.69 -1.53 L197.89 77.42 L2.5 81.24" stroke="none" stroke-width="0" fill="#e9ecef"></path><path d="M-0.1 -1.32 C68.45 0.5, 141.23 5.97, 201.58 3.5 M-0.52 -1.42 C69.67 3.37, 141.67 4.4, 200.07 1.27 M202.71 -2.79 C198.07 30.83, 194.88 51.13, 203.1 79.09 M198.67 -1.01 C199.47 20.25, 198.2 44.13, 200.61 78.55 M197.39 78.98 C144.6 79.43, 89.08 78.88, -0.87 79.25 M199.8 78.74 C156.65 80.22, 109.24 78.07, 0.7 81.65 M-3.68 79.75 C0.96 51.94, -0.48 16.93, 2.21 -3.41 M1.41 79.42 C1.4 61.16, -0.66 42.91, 0.5 1.38" stroke="#1e1e1e" stroke-width="2" fill="none"></path></g><g transform="translate(15 220) rotate(0 95 10)"><text x="95" y="20" font-family="Virgil, Segoe UI Emoji" font-size="16px" fill="#1e1e1e" text-anchor="middle" style="white-space: pre;" direction="ltr">Empty Latent Image</text></g><g stroke-linecap="round" transform="translate(290 550) rotate(0 100 40)"><path d="M-3.67 3.26 L196.84 0.32 L201.11 78.17 L1.22 79.94" stroke="none" stroke-width="0" fill="#e9ecef"></path><path d="M-0.83 1.81 C45.63 0.33, 84.75 -0.15, 196.45 2.46 M-0.84 -0.96 C70.95 -2.58, 143.52 -4.1, 200.83 0.32 M201.53 1.01 C203.65 17.24, 198.94 43.92, 196.16 81.97 M200.3 0.23 C201.02 31.42, 200.6 60.83, 198.09 80.42 M202.79 79.66 C138.82 78.46, 77.82 75.5, -1.54 79.16 M200.18 80 C131.87 81.14, 62.05 81.76, -0.21 81.68 M-0.99 76.48 C-1.46 51.69, -0.44 29.47, 0.22 0.34 M1.96 78.33 C-0.65 59.82, -2.36 35.37, 1.4 -0.06" stroke="#1e1e1e" stroke-width="2" fill="none"></path></g><g transform="translate(295 577.5) rotate(0 95 12.5)"><text x="95" y="25" font-family="Virgil, Segoe UI Emoji" font-size="20px" fill="#1e1e1e" text-anchor="middle" style="white-space: pre;" direction="ltr">KSampler</text></g><g stroke-linecap="round" transform="translate(290 730) rotate(0 100 40)"><path d="M-1.28 1.13 L201.17 3.71 L202.45 83.67 L-0.98 76.84" stroke="none" stroke-width="0" fill="#e9ecef"></path><path d="M-2.96 -3.16 C76.5 0.93, 160.06 3.75, 200.63 1.93 M-1.08 0.46 C60.37 1.41, 121.05 1.26, 199.28 -1.66 M197.95 0.79 C200.46 19.95, 197.71 46.6, 203.81 83.09 M200.28 -0.51 C200.78 24.95, 197.59 48.02, 200.37 78.93 M196.82 80.54 C156.22 81.48, 115.76 77.93, -1.63 76.7 M201.3 79.22 C154.71 76.14, 108.3 77.94, -0.96 78.91 M3.05 83.17 C-2.75 60.11, 2.22 46.92, -1.49 -1.86 M-0.12 79.08 C-1.36 58.8, -0.98 38.52, 0.36 0.06" stroke="#1e1e1e" stroke-width="2" fill="none"></path></g><g transform="translate(295 760) rotate(0 95 10)"><text x="95" y="20" font-family="Virgil, Segoe UI Emoji" font-size="16px" fill="#1e1e1e" text-anchor="middle" style="white-space: pre;" direction="ltr">VAE Decode</text></g><g stroke-linecap="round" transform="translate(290 910) rotate(0 100 40)"><path d="M2.65 2.89 L198.72 -0.73 L199.02 80.6 L-1.95 83.82" stroke="none" stroke-width="0" fill="#a5d8ff"></path><path d="M3.44 -2.79 C54.58 1.04, 107.14 1.9, 198.64 -3.48 M1.78 0.33 C60.21 0.14, 123.73 -1.97, 201.61 -1.49 M196.86 0.65 C201.25 29.09, 198.24 59.85, 201.14 80.63 M198.25 -1.41 C199.66 23, 201.37 45.26, 201.18 78.61 M202.04 82.34 C148.98 76.49, 97.44 75.11, 1.87 83.18 M200.93 78.93 C138.08 80.75, 80.2 80.66, -0.79 81.06 M1.58 83.4 C0.18 59.13, -1.09 44.42, -0.41 -0.46 M-0.81 81.62 C-1.56 55.2, -0.72 34.5, -1.91 -0.84" stroke="#1971c2" stroke-width="2" fill="none"></path></g><g transform="translate(295 937.5) rotate(0 95 12.5)"><text x="95" y="25" font-family="Virgil, Segoe UI Emoji" font-size="20px" fill="#1971c2" text-anchor="middle" style="white-space: pre;" direction="ltr">CRON Scheduler</text></g><g stroke-linecap="round" transform="translate(290 1090) rotate(0 100 40)"><path d="M3.08 -3.98 L202.96 -0.48 L197 76.07 L0.02 83.14" stroke="none" stroke-width="0" fill="#a5d8ff"></path><path d="M2.98 0.44 C57.48 0.77, 110.69 -4.85, 200.55 -3.36 M-1.21 -0.24 C46.65 0.55, 93.41 2.08, 198.56 0.48 M197.51 -2.4 C198.81 26.15, 201.75 56.26, 202.28 77.6 M200.06 -0.68 C199.17 32.43, 200.01 62.18, 198.49 78.78 M198.92 76.96 C153.26 73.74, 107.99 78.37, 0.37 77.61 M200.53 78.9 C122.19 84.29, 45.33 83.97, -1.59 81.14 M3.6 78.31 C4.14 64.97, -0.48 48.2, -3.54 -2.06 M1.96 79.13 C0.17 51.81, 0.42 19.22, -0.05 -0.98" stroke="#1971c2" stroke-width="2" fill="none"></path></g><g transform="translate(295 1117.5) rotate(0 95 12.5)"><text x="95" y="25" font-family="Virgil, Segoe UI Emoji" font-size="20px" fill="#1971c2" text-anchor="middle" style="white-space: pre;" direction="ltr">Save As</text></g><g stroke-linecap="round" transform="translate(570 10) rotate(0 100 40)"><path d="M1.72 3.96 L201.03 2.58 L200.2 82.92 L-2.42 82.15" stroke="none" stroke-width="0" fill="#fcc2d7"></path><path d="M-1.38 -1 C75.12 2.4, 157.43 -3.66, 198.28 3.56 M1.29 0.96 C41.06 -1.49, 81.17 -2.54, 199.4 0.63 M201.12 -3.11 C199.06 29.07, 199.57 58.64, 203.18 78.6 M200.61 -0.77 C200.13 23.49, 201.09 49.19, 200.47 78.76 M201.1 83.44 C129.16 77.46, 53.92 79.96, 3.39 81.47 M199.75 79.79 C127.18 76.82, 54.74 77.12, 1.18 81.33 M1 79.4 C-0.89 54.08, -0.22 33.61, 1.99 2.15 M-1.86 81.28 C2.11 60.54, 0.69 41.46, -1.05 0.55" stroke="#c2255c" stroke-width="2" fill="none"></path></g><g transform="translate(575 38.75) rotate(0 95 11.25)"><text x="95" y="23" font-family="Virgil, Segoe UI Emoji" font-size="18px" fill="#c2255c" text-anchor="middle" style="white-space: pre;" direction="ltr">Bulk Prompter</text></g><g stroke-linecap="round"><g transform="translate(110 90) rotate(0 147.5 50)"><path d="M0 0 C0 8.33, -49.17 41.67, 0 50 C49.17 58.33, 245.83 41.67, 295 50 C344.17 58.33, 295 91.67, 295 100 M0 0 C0 8.33, -49.17 41.67, 0 50 C49.17 58.33, 245.83 41.67, 295 50 C344.17 58.33, 295 91.67, 295 100" stroke="#495057" stroke-width="2" fill="none"></path></g><g transform="translate(110 90) rotate(0 147.5 50)"><path d="M301.79 75.94 C299.13 85.38, 296.46 94.82, 295 100 M301.79 75.94 C299.23 85.01, 296.67 94.08, 295 100" stroke="#495057" stroke-width="2" fill="none"></path></g><g transform="translate(110 90) rotate(0 147.5 50)"><path d="M315.67 85.94 C307.56 91.46, 299.45 96.97, 295 100 M315.67 85.94 C307.88 91.24, 300.08 96.54, 295 100" stroke="#495057" stroke-width="2" fill="none"></path></g></g><g transform="translate(161.5 131.875) rotate(0 96 8.125)"><text x="96" y="16" font-family="Virgil, Segoe UI Emoji" font-size="13px" fill="#495057" text-anchor="middle" style="white-space: pre;" direction="ltr">topic / resolution / variant</text></g><g stroke-linecap="round"><g transform="translate(110 90) rotate(0 0 50)"><path d="M0 0 C0 16.67, 0 83.33, 0 100 M0 0 C0 16.67, 0 83.33, 0 100" stroke="#495057" stroke-width="2" fill="none"></path></g><g transform="translate(110 90) rotate(0 0 50)"><path d="M-10.26 71.81 C-6.44 82.29, -2.63 92.78, 0 100 M-10.26 71.81 C-7.71 78.82, -5.16 85.83, 0 100" stroke="#495057" stroke-width="2" fill="none"></path></g><g transform="translate(110 90) rotate(0 0 50)"><path d="M10.26 71.81 C6.44 82.29, 2.63 92.78, 0 100 M10.26 71.81 C7.71 78.82, 5.16 85.83, 0 100" stroke="#495057" stroke-width="2" fill="none"></path></g></g><g transform="translate(59.5 131.875) rotate(0 50.5 8.125)"><text x="50.5" y="16" font-family="Virgil, Segoe UI Emoji" font-size="13px" fill="#495057" text-anchor="middle" style="white-space: pre;" direction="ltr">width / height</text></g><g stroke-linecap="round"><g transform="translate(110 90) rotate(0 140 410)"><path d="M0 0 C0 68.33, -46.67 341.67, 0 410 C46.67 478.33, 233.33 341.67, 280 410 C326.67 478.33, 280 751.67, 280 820" stroke="#495057" stroke-width="2.5" fill="none" stroke-dasharray="8 10"></path></g><g transform="translate(110 90) rotate(0 140 410)"><path d="M272.12 791.05 C274.35 799.25, 276.58 807.44, 280 820" stroke="#495057" stroke-width="2.5" fill="none"></path></g><g transform="translate(110 90) rotate(0 140 410)"><path d="M292.57 792.76 C289.01 800.47, 285.45 808.18, 280 820" stroke="#495057" stroke-width="2.5" fill="none"></path></g></g><g transform="translate(209.25 491.875) rotate(0 40.75 8.125)"><text x="40.75" y="16" font-family="Virgil, Segoe UI Emoji" font-size="13px" fill="#495057" text-anchor="middle" style="white-space: pre;" direction="ltr">is_complete</text></g><g stroke-linecap="round"><g transform="translate(110 90) rotate(0 140 500)"><path d="M0 0 C0 83.33, -46.67 416.67, 0 500 C46.67 583.33, 233.33 416.67, 280 500 C326.67 583.33, 280 916.67, 280 1000" stroke="#495057" stroke-width="2.5" fill="none" stroke-dasharray="8 10"></path></g><g transform="translate(110 90) rotate(0 140 500)"><path d="M271.69 971.17 C274.14 979.68, 276.59 988.18, 280 1000" stroke="#495057" stroke-width="2.5" fill="none"></path></g><g transform="translate(110 90) rotate(0 140 500)"><path d="M292.16 972.57 C288.57 980.67, 284.98 988.76, 280 1000" stroke="#495057" stroke-width="2.5" fill="none"></path></g></g><g transform="translate(196.25 581.875) rotate(0 53.75 8.125)"><text x="53.75" y="16" font-family="Virgil, Segoe UI Emoji" font-size="13px" fill="#495057" text-anchor="middle" style="white-space: pre;" direction="ltr">pipeline_config</text></g><g stroke-linecap="round"><g transform="translate(390 90) rotate(0 7.5 50)"><path d="M0 0 C0 8.33, -2.5 41.67, 0 50 C2.5 58.33, 12.5 41.67, 15 50 C17.5 58.33, 15 91.67, 15 100" stroke="#495057" stroke-width="2.5" fill="none" stroke-dasharray="8 10"></path></g><g transform="translate(390 90) rotate(0 7.5 50)"><path d="M7.32 76.21 C9.91 84.24, 12.5 92.27, 15 100" stroke="#495057" stroke-width="2.5" fill="none"></path></g><g transform="translate(390 90) rotate(0 7.5 50)"><path d="M24.4 76.84 C21.23 84.65, 18.06 92.47, 15 100" stroke="#495057" stroke-width="2.5" fill="none"></path></g></g><g transform="translate(360 131.875) rotate(0 37.5 8.125)"><text x="37.5" y="16" font-family="Virgil, Segoe UI Emoji" font-size="13px" fill="#495057" text-anchor="middle" style="white-space: pre;" direction="ltr">LLM_CONFIG</text></g><g stroke-linecap="round"><g transform="translate(390 90) rotate(0 140 50)"><path d="M0 0 C0 8.33, -46.67 41.67, 0 50 C46.67 58.33, 233.33 41.67, 280 50 C326.67 58.33, 280 91.67, 280 100" stroke="#495057" stroke-width="2.5" fill="none" stroke-dasharray="8 10"></path></g><g transform="translate(390 90) rotate(0 140 50)"><path d="M286.2 75.78 C284.95 80.65, 283.71 85.53, 280 100" stroke="#495057" stroke-width="2.5" fill="none"></path></g><g transform="translate(390 90) rotate(0 140 50)"><path d="M300.32 85.43 C296.23 88.36, 292.14 91.3, 280 100" stroke="#495057" stroke-width="2.5" fill="none"></path></g></g><g transform="translate(492.5 131.875) rotate(0 37.5 8.125)"><text x="37.5" y="16" font-family="Virgil, Segoe UI Emoji" font-size="13px" fill="#495057" text-anchor="middle" style="white-space: pre;" direction="ltr">LLM_CONFIG</text></g><g stroke-linecap="round"><g transform="translate(405 270) rotate(0 -77.5 50)"><path d="M0 0 C0 8.33, 25.83 41.67, 0 50 C-25.83 58.33, -129.17 41.67, -155 50 C-180.83 58.33, -155 91.67, -155 100 M0 0 C0 8.33, 25.83 41.67, 0 50 C-25.83 58.33, -129.17 41.67, -155 50 C-180.83 58.33, -155 91.67, -155 100" stroke="#495057" stroke-width="2" fill="none"></path></g><g transform="translate(405 270) rotate(0 -77.5 50)"><path d="M-171.31 81.06 C-166.25 86.93, -161.19 92.81, -155 100 M-171.31 81.06 C-166.09 87.12, -160.86 93.19, -155 100" stroke="#495057" stroke-width="2" fill="none"></path></g><g transform="translate(405 270) rotate(0 -77.5 50)"><path d="M-155.32 75 C-155.22 82.76, -155.12 90.52, -155 100 M-155.32 75 C-155.22 83.01, -155.11 91.02, -155 100" stroke="#495057" stroke-width="2" fill="none"></path></g></g><g transform="translate(303 311.875) rotate(0 24.5 8.125)"><text x="24.5" y="16" font-family="Virgil, Segoe UI Emoji" font-size="13px" fill="#495057" text-anchor="middle" style="white-space: pre;" direction="ltr">prompt</text></g><g stroke-linecap="round"><g transform="translate(405 270) rotate(0 62.5 50)"><path d="M0 0 C0 8.33, -20.83 41.67, 0 50 C20.83 58.33, 104.17 41.67, 125 50 C145.83 58.33, 125 91.67, 125 100 M0 0 C0 8.33, -20.83 41.67, 0 50 C20.83 58.33, 104.17 41.67, 125 50 C145.83 58.33, 125 91.67, 125 100" stroke="#495057" stroke-width="2" fill="none"></path></g><g transform="translate(405 270) rotate(0 62.5 50)"><path d="M123.68 75.03 C124.02 81.4, 124.35 87.77, 125 100 M123.68 75.03 C124.02 81.42, 124.36 87.8, 125 100" stroke="#495057" stroke-width="2" fill="none"></path></g><g transform="translate(405 270) rotate(0 62.5 50)"><path d="M140.04 80.03 C136.2 85.12, 132.37 90.22, 125 100 M140.04 80.03 C136.19 85.13, 132.35 90.24, 125 100" stroke="#495057" stroke-width="2" fill="none"></path></g></g><g transform="translate(413.75 311.875) rotate(0 53.75 8.125)"><text x="53.75" y="16" font-family="Virgil, Segoe UI Emoji" font-size="13px" fill="#495057" text-anchor="middle" style="white-space: pre;" direction="ltr">negative_prompt</text></g><g stroke-linecap="round"><g transform="translate(405 270) rotate(0 -7.5 410)"><path d="M0 0 C0 68.33, 2.5 341.67, 0 410 C-2.5 478.33, -12.5 341.67, -15 410 C-17.5 478.33, -15 751.67, -15 820" stroke="#495057" stroke-width="2.5" fill="none" stroke-dasharray="8 10"></path></g><g transform="translate(405 270) rotate(0 -7.5 410)"><path d="M-25.39 791.86 C-22.74 799.04, -20.09 806.22, -15 820" stroke="#495057" stroke-width="2.5" fill="none"></path></g><g transform="translate(405 270) rotate(0 -7.5 410)"><path d="M-4.87 791.76 C-7.45 798.97, -10.04 806.17, -15 820" stroke="#495057" stroke-width="2.5" fill="none"></path></g></g><g transform="translate(366.5 671.875) rotate(0 31 8.125)"><text x="31" y="16" font-family="Virgil, Segoe UI Emoji" font-size="13px" fill="#495057" text-anchor="middle" style="white-space: pre;" direction="ltr">metadata</text></g><g stroke-linecap="round"><g transform="translate(250 450) rotate(0 70 50)"><path d="M0 0 C0 8.33, -23.33 41.67, 0 50 C23.33 58.33, 116.67 41.67, 140 50 C163.33 58.33, 140 91.67, 140 100 M0 0 C0 8.33, -23.33 41.67, 0 50 C23.33 58.33, 116.67 41.67, 140 50 C163.33 58.33, 140 91.67, 140 100" stroke="#495057" stroke-width="2" fill="none"></path></g><g transform="translate(250 450) rotate(0 70 50)"><path d="M139.51 75 C139.61 80.21, 139.71 85.42, 140 100 M139.51 75 C139.67 83.15, 139.83 91.3, 140 100" stroke="#495057" stroke-width="2" fill="none"></path></g><g transform="translate(250 450) rotate(0 70 50)"><path d="M155.69 80.54 C152.42 84.59, 149.15 88.65, 140 100 M155.69 80.54 C150.58 86.88, 145.46 93.23, 140 100" stroke="#495057" stroke-width="2" fill="none"></path></g></g><g stroke-linecap="round"><g transform="translate(530 450) rotate(0 -70 50)"><path d="M0 0 C0 8.33, 23.33 41.67, 0 50 C-23.33 58.33, -116.67 41.67, -140 50 C-163.33 58.33, -140 91.67, -140 100 M0 0 C0 8.33, 23.33 41.67, 0 50 C-23.33 58.33, -116.67 41.67, -140 50 C-163.33 58.33, -140 91.67, -140 100" stroke="#495057" stroke-width="2" fill="none"></path></g><g transform="translate(530 450) rotate(0 -70 50)"><path d="M-155.69 80.54 C-151.61 85.6, -147.53 90.66, -140 100 M-155.69 80.54 C-150.8 86.6, -145.91 92.67, -140 100" stroke="#495057" stroke-width="2" fill="none"></path></g><g transform="translate(530 450) rotate(0 -70 50)"><path d="M-139.51 75 C-139.64 81.51, -139.76 88.01, -140 100 M-139.51 75 C-139.66 82.8, -139.81 90.59, -140 100" stroke="#495057" stroke-width="2" fill="none"></path></g></g><g stroke-linecap="round"><g transform="translate(110 270) rotate(0 140 140)"><path d="M0 0 C0 23.33, -46.67 116.67, 0 140 C46.67 163.33, 233.33 116.67, 280 140 C326.67 163.33, 280 256.67, 280 280 M0 0 C0 23.33, -46.67 116.67, 0 140 C46.67 163.33, 233.33 116.67, 280 140 C326.67 163.33, 280 256.67, 280 280" stroke="#495057" stroke-width="2" fill="none"></path></g><g transform="translate(110 270) rotate(0 140 140)"><path d="M276.72 250.18 C277.91 261.03, 279.11 271.88, 280 280 M276.72 250.18 C277.59 258.12, 278.47 266.05, 280 280" stroke="#495057" stroke-width="2" fill="none"></path></g><g transform="translate(110 270) rotate(0 140 140)"><path d="M296.66 255.05 C290.59 264.13, 284.53 273.21, 280 280 M296.66 255.05 C292.22 261.69, 287.79 268.33, 280 280" stroke="#495057" stroke-width="2" fill="none"></path></g></g><g stroke-linecap="round"><g transform="translate(390 630) rotate(0 0 50)"><path d="M0 0 C0 16.67, 0 83.33, 0 100 M0 0 C0 16.67, 0 83.33, 0 100" stroke="#495057" stroke-width="2" fill="none"></path></g><g transform="translate(390 630) rotate(0 0 50)"><path d="M-10.26 71.81 C-7.85 78.44, -5.44 85.06, 0 100 M-10.26 71.81 C-7.51 79.37, -4.76 86.93, 0 100" stroke="#495057" stroke-width="2" fill="none"></path></g><g transform="translate(390 630) rotate(0 0 50)"><path d="M10.26 71.81 C7.85 78.44, 5.44 85.06, 0 100 M10.26 71.81 C7.51 79.37, 4.76 86.93, 0 100" stroke="#495057" stroke-width="2" fill="none"></path></g></g><g stroke-linecap="round"><g transform="translate(390 810) rotate(0 0 50)"><path d="M0 0 C0 16.67, 0 83.33, 0 100 M0 0 C0 16.67, 0 83.33, 0 100" stroke="#495057" stroke-width="2" fill="none"></path></g><g transform="translate(390 810) rotate(0 0 50)"><path d="M-10.26 71.81 C-7.02 80.71, -3.78 89.6, 0 100 M-10.26 71.81 C-7.21 80.19, -4.16 88.57, 0 100" stroke="#495057" stroke-width="2" fill="none"></path></g><g transform="translate(390 810) rotate(0 0 50)"><path d="M10.26 71.81 C7.02 80.71, 3.78 89.6, 0 100 M10.26 71.81 C7.21 80.19, 4.16 88.57, 0 100" stroke="#495057" stroke-width="2" fill="none"></path></g></g><g transform="translate(368.75 851.875) rotate(0 21.25 8.125)"><text x="21.25" y="16" font-family="Virgil, Segoe UI Emoji" font-size="13px" fill="#495057" text-anchor="middle" style="white-space: pre;" direction="ltr">image</text></g><g stroke-linecap="round"><g transform="translate(390 990) rotate(0 0 50)"><path d="M0 0 C0 16.67, 0 83.33, 0 100 M0 0 C0 16.67, 0 83.33, 0 100" stroke="#495057" stroke-width="2" fill="none"></path></g><g transform="translate(390 990) rotate(0 0 50)"><path d="M-10.26 71.81 C-7.07 80.57, -3.88 89.33, 0 100 M-10.26 71.81 C-6.31 82.67, -2.35 93.53, 0 100" stroke="#495057" stroke-width="2" fill="none"></path></g><g transform="translate(390 990) rotate(0 0 50)"><path d="M10.26 71.81 C7.07 80.57, 3.88 89.33, 0 100 M10.26 71.81 C6.31 82.67, 2.35 93.53, 0 100" stroke="#495057" stroke-width="2" fill="none"></path></g></g><g transform="translate(349.25 1031.875) rotate(0 40.75 8.125)"><text x="40.75" y="16" font-family="Virgil, Segoe UI Emoji" font-size="13px" fill="#495057" text-anchor="middle" style="white-space: pre;" direction="ltr">passthrough</text></g></svg>