<svg version="1.1" xmlns="http://www.w3.org/2000/svg" viewBox="0 0 780 1180" width="780" height="1180">
  <!-- svg-source:excalidraw -->
  
  <defs>
    <style>
      @font-face {
        font-family: "Virgil";
        src: url("https://excalidraw.com/Virgil.woff2");
      }
      @font-face {
        font-family: "Cascadia";
        src: url("https://excalidraw.com/Cascadia.woff2");
      }
    </style>
  </defs>
  <rect x="0" y="0" width="780" height="1180" fill="#ffffff"></rect><g stroke-linecap="round" transform="translate(10 10) rotate(0 100 40)"><path d="M0.09 -3.09 L199.06 3.24 L199.33 81.51 L1.01 78.33" stroke="none" stroke-width="0" fill="#a5d8ff"></path><path d="M-1.56 1.99 C72.58 0.66, 144.05 3.06, 200.46 0.29 M0.68 0.69 C62.08 0.85, 125.31 3.11, 198.72 -0.75 M200.99 -3 C196.66 29.64, 201.54 62.21, 203 80.92 M200.59 0.48 C198.24 21.63, 200.36 45.7, 200.19 80.85 M199.5 82.73 C125.66 81.47, 46.84 78.29, 1.97 82.78 M199.15 81.03 C122.05 82.41, 43.9 80.37, -0.63 81.18 M-3.6 78.44 C-0.28 55.61, -1.77 30.89, -1.98 3.39 M1.62 81.44 C-0.03 54.4, 0.17 27.5, 1.74 -1.94" stroke="#1971c2" stroke-width="2" fill="none"></path></g><g transform="translate(15 38.75) rotate(0 95 11.25)"><text x="95" y="23" font-family="Virgil, Segoe UI Emoji" font-size="18px" fill="#1971c2" text-anchor="middle" style="white-space: pre;" direction="ltr">Gap Scanner</text></g><g stroke-linecap="round" transform="translate(290 10) rotate(0 100 40)"><path d="M1.62 -1.88 L196.65 0.42 L197.27 82.66 L-2.41 78.57" stroke="none" stroke-width="0" fill="#d0bfff"></path><path d="M3.6 2.35 C62.48 0.29, 121.49 -2.52, 200.6 0.65 M1.8 1.31 C50.07 -2.81, 97.78 -4.58, 201.49 -1.72 M202.2 -2.15 C199.91 22.65, 201.47 43.97, 200.99 82.4 M200.79 -0.67 C199.35 17.84, 197.97 34.07, 202 81.75 M200.19 77.38 C127.58 79.91, 61.6 78.27, -2.28 83.36 M199.99 78.85 C143.17 76.45, 86.63 75.87, 0.8 79.28 M2.79 76.61 C2.75 52.6, 2.24 31.51, -3.64 -1.7 M-0.35 80.59 C-2.46 61.89, 0.31 46.59, 1.62 0.3" stroke="#7048e8" stroke-width="2" fill="none"></path></g><g transform="translate(295 38.75) rotate(0 95 11.25)"><text x="95" y="23" font-family="Virgil, Segoe UI Emoji" font-size="18px" fill="#7048e8" text-anchor="middle" style="white-space: pre;" direction="ltr">LLM Config</text></g><g stroke-linecap="round" transform="translate(290 190) rotate(0 100 40)"><path d="M-3.39 3.35 L197.32 2.37 L199.98 78.82 L-1.91 83.91" stroke="none" stroke-width="0" fill="#a5d8ff"></path><path d="M-1.13 1.7 C57.61 0.3, 111.26 4.96, 201.64 -0.73 M-1.01 0.89 C59.9 2.25, 123.05 2.14, 199.23 -1.54 M203.87 0.07 C201.16 18.9, 196.9 46.59, 199.84 81.71 M199.51 1.46 C199.47 19.7, 203.25 38.61, 201.14 81.33 M202.36 80.26 C130.12 80.32, 59.33 77.27, -0.29 77.48 M199.57 80.87 C160.33 83.61, 119.35 82.14, 0.64 79.85 M-2.37 83.73 C2 49.74, -0.23 26.47, 0.91 -0.85 M-0.83 80.03 C0.36 51.5, 1.17 20.1, 0.51 1.3" stroke="#1971c2" stroke-width="2" fill="none"></path></g><g transform="translate(295 218.75) rotate(0 95 11.25)"><text x="95" y="23" font-family="Virgil, Segoe UI Emoji" font-size="18px" fill="#1971c2" text-anchor="middle" style="white-space: pre;" direction="ltr">Prompt Generator</text></g><g stroke-linecap="round" transform="translate(570 190) rotate(0 100 40)"><path d="M2.02 2.53 L196.65 3.47 L201.6 77.53 L-0.42 79.39" stroke="none" stroke-width="0" fill="#d0bfff"></path><path d="M-1.51 1.49 C79.74 -0.42, 157.37 2.14, 198.12 -3.19 M1.71 -1.34 C73.32 -4.78, 147.11 -2.53, 199.8 -1.69 M197.82 2.31 C195.85 19.13, 198.72 38.05, 196.98 82.06 M198.38 -0.85 C200.9 17.14, 200.07 35.52, 200.5 80.06 M198.25 76.4 C132.12 73.88, 66.95 76.78, 2.77 83.36 M200.71 79.43 C128.19 78.53, 53 75.48, 0.5 81.22 M-3.48 79.55 C2.41 53.37, 0.57 16.99, -0.12 3.21 M-1.78 78.39 C0.02 58.94, -1.78 32.42, 1.31 0.93" stroke="#7048e8" stroke-width="2" fill="none"></path></g><g transform="translate(575 218.75) rotate(0 95 11.25)"><text x="95" y="23" font-family="Virgil, Segoe UI Emoji" font-size="18px" fill="#7048e8" text-anchor="middle" style="white-space: pre;" direction="ltr">API Call</text></g><g stroke-linecap="round" transform="translate(150 370) rotate(0 100 40)"><path d="M-2.31 -2.45 L203.1 -3.2 L200.52 79.44 L3.15 76.23" stroke="none" stroke-width="0" fill="#e9ecef"></path><path d="M-2.09 -1.54 C55.35 5.86, 102.88 4.73, 202.75 -2.79 M-0.58 0.72 C52.39 0.72, 109.12 3.68, 198.75 -1.3 M198.02 -2.95 C198.69 20.15, 201.89 39.75, 196.14 79.18 M199.82 -0.62 C198.76 22.39, 200.05 43.99, 201.31 81.24 M199.64 80.25 C121.15 77.31, 43.85 79.35, -0.32 82.84 M198.53 78.2 C135.2 77.26, 72.71 75.98, 1.5 79.66 M-1.34 76.86 C-1.04 52.88, -4.11 32.62, -1.51 -3.75 M1.74 81.06 C-0.62 51.66, 0.06 23.91, -1.72 -0.31" stroke="#1e1e1e" stroke-width="2" fill="none"></path></g><g transform="translate(155 400) rotate(0 95 10)"><text x="95" y="20" font-family="Virgil, Segoe UI Emoji" font-size="16px" fill="#1e1e1e" text-anchor="middle" style="white-space: pre;" direction="ltr">CLIP Encode (+)</text></g><g stroke-linecap="round" transform="translate(430 370) rotate(0 100 40)"><path d="M2.97 -2.64 L197.01 1.54 L201.15 77.47 L-0.15 77.5" stroke="none" stroke-width="0" fill="#e9ecef"></path><path d="M2.05 0.95 C82.27 0.19, 158.53 0.17, 196.59 3.38 M1.38 -1.06 C66.74 -1.11, 135.65 0.35, 199.54 1.74 M200.89 -0.59 C198.47 31.87, 200.58 58.08, 199.46 78.73 M200.49 -1.42 C201.09 29.14, 201.63 54.49, 199.95 78.91 M200.02 77.05 C147.33 85.96, 85 79.03, 3.18 82.62 M198.33 78.85 C143.27 79.07, 91.2 77.05, -0.39 80.84 M2.94 77.74 C2.3 53.39, -1.05 28.54, 0.72 1.07 M-0.49 78.25 C0.43 59.57, 1.28 35.11, -0.84 0.12" stroke="#1e1e1e" stroke-width="2" fill="none"></path></g><g transform="translate(435 400) rotate(0 95 10)"><text x="95" y="20" font-family="Virgil, Segoe UI Emoji" font-size="16px" fill="#1e1e1e" text-anchor="middle" style="white-space: pre;" direction="ltr">CLIP Encode (-)</text></g><g stroke-linecap="round" transform="translate(10 190) rotate(0 100 40)"><path d="M0.9 -3.9 L202.67 2.19 L197.46 78.95 L-2.37 76.48" stroke="none" stroke-width="0" fill="#e9ecef"></path><path d="M-2.77 -0.33 C51.71 -0.59, 103.11 2.84, 200.58 0.05 M-0.52 -1.11 C77.49 -2.49, 153.82 -1.93, 200.13 -0.5 M196.64 -1.64 C200.94 17.98, 199.2 37.64, 196.4 79.63 M200.56 0.07 C200.33 33.44, 197.88 64.75, 199.91 78.29 M202.06 78.32 C138.12 82.8, 80.97 80.55, -2.17 78.64 M201.79 81.32 C121.4 83.89, 40.66 80.66, 0.03 79.56 M2.66 81.27 C0.16 59.81, 1.63 48.18, -3.68 -2.84 M-0.52 79.46 C0.14 59.99, -3.15 41.39, -0.25 0.9" stroke="#1e1e1e" stroke-width="2" fill="none"></path></g><g transform="translate(15 220) rotate(0 95 10)"><text x="95" y="20" font-family="Virgil, Segoe UI Emoji" font-size="16px" fill="#1e1e1e" text-anchor="middle" style="white-space: pre;" direction="ltr">Empty Latent</text></g><g stroke-linecap="round" transform="translate(290 550) rotate(0 100 40)"><path d="M-0.53 -2.96 L198.7 -2.85 L199.13 77.91 L0.91 81.23" stroke="none" stroke-width="0" fill="#e9ecef"></path><path d="M0.65 -2.77 C50.8 -1.44, 104.81 1.73, 201.26 -3.01 M-1.02 -0.46 C47.44 2.35, 96.5 3.76, 201.13 -1.35 M203.92 2.86 C196.25 21.97, 194.93 40.22, 196.99 78.56 M200.88 -0.63 C199.07 31.33, 200.01 62.04, 201.56 81.69 M199.52 82.63 C131.29 78.59, 63.44 76.55, -1.45 80.06 M199.5 78.25 C131.03 76.48, 64.23 77.06, 0.66 78.6 M-0.47 80.28 C-2.23 54.91, 3.39 21.94, -2.5 0.03 M0.8 79.54 C-1.88 57.15, 1.94 31.32, -0.49 1.01" stroke="#1e1e1e" stroke-width="2" fill="none"></path></g><g transform="translate(295 578.75) rotate(0 95 11.25)"><text x="95" y="23" font-family="Virgil, Segoe UI Emoji" font-size="18px" fill="#1e1e1e" text-anchor="middle" style="white-space: pre;" direction="ltr">KSampler</text></g><g stroke-linecap="round" transform="translate(290 730) rotate(0 100 40)"><path d="M-1.67 -3.62 L202.66 -0.98 L200.94 82.14 L3.69 79.61" stroke="none" stroke-width="0" fill="#e9ecef"></path><path d="M-2.3 2.51 C54.43 0.49, 106.41 0.18, 200.9 0.71 M-0.1 -0.64 C57.14 -1.04, 115.29 -0.99, 201.23 0.2 M200.25 -1.63 C203.55 26.99, 203.18 53.33, 196.25 79.38 M201.91 1.41 C197.93 21.93, 200.35 45.21, 200.49 79.33 M203.56 82.42 C158.56 80.02, 118.39 81.72, 1.87 77.63 M200.44 79.71 C132.26 80.31, 64.13 80.09, -1 78.51 M-0.12 82.16 C-1.96 56.63, 1.75 29.29, 2.93 0.44 M-1.49 78.73 C-1.39 57.67, 0.33 36.95, -2 -1.83" stroke="#1e1e1e" stroke-width="2" fill="none"></path></g><g transform="translate(295 760) rotate(0 95 10)"><text x="95" y="20" font-family="Virgil, Segoe UI Emoji" font-size="16px" fill="#1e1e1e" text-anchor="middle" style="white-space: pre;" direction="ltr">VAE Decode</text></g><g stroke-linecap="round" transform="translate(290 910) rotate(0 100 40)"><path d="M-0.94 0.64 L199.9 -0.17 L202.6 83.12 L-3.64 83.35" stroke="none" stroke-width="0" fill="#a5d8ff"></path><path d="M-0.78 3.53 C46.01 1.51, 85.99 -1.66, 199.41 -2.03 M1.58 -0.6 C75.83 0.88, 151.7 1.51, 198.51 1.55 M199.2 -2.28 C197.35 29.38, 196.77 55.35, 202.51 79.77 M200.15 1.38 C197.9 25.38, 197.31 48.28, 200.62 81.24 M202.5 80.51 C140.25 77.59, 75.37 83.07, 3.19 78.09 M200.09 80.93 C154.2 80.78, 108.18 80.42, -0.9 79.02 M-0.08 79.33 C-2.11 57.06, 1.81 33.76, 1.82 -2.51 M1.97 80.02 C-0.33 56.71, 1.65 35.52, 1.49 -0.13" stroke="#1971c2" stroke-width="2" fill="none"></path></g><g transform="translate(295 938.75) rotate(0 95 11.25)"><text x="95" y="23" font-family="Virgil, Segoe UI Emoji" font-size="18px" fill="#1971c2" text-anchor="middle" style="white-space: pre;" direction="ltr">CRON Scheduler</text></g><g stroke-linecap="round" transform="translate(290 1090) rotate(0 100 40)"><path d="M1.95 -3.62 L203.6 -3.45 L203.64 82.5 L-3.95 81.43" stroke="none" stroke-width="0" fill="#a5d8ff"></path><path d="M2.82 -2.34 C50.87 0.67, 96.45 0.38, 203.32 -2.67 M1.04 0.99 C45.86 3.83, 91.11 0.61, 198.27 1.15 M203.93 -0.95 C200.83 16.73, 201.39 35.95, 200.45 77.93 M200.6 1.23 C200.74 23.75, 199.63 46.22, 199.97 80.48 M203.31 82.22 C160.08 79.91, 121.05 82.07, 0.13 81.46 M201.29 80.47 C151.11 81.66, 100.23 82.6, 0.39 80.66 M1.45 76.55 C2.78 61.61, -1.55 49.18, 2.32 -2.27 M1.17 81.96 C2.72 56.44, 2.47 34.52, 0.8 1.12" stroke="#1971c2" stroke-width="2" fill="none"></path></g><g transform="translate(295 1118.75) rotate(0 95 11.25)"><text x="95" y="23" font-family="Virgil, Segoe UI Emoji" font-size="18px" fill="#1971c2" text-anchor="middle" style="white-space: pre;" direction="ltr">Save As</text></g><g stroke-linecap="round" transform="translate(570 10) rotate(0 100 40)"><path d="M-0.92 -2.77 L196.8 -3.73 L200.31 80.91 L-2.7 77.77" stroke="none" stroke-width="0" fill="#fcc2d7"></path><path d="M-0.76 -1.94 C59.01 1.39, 126.22 4.4, 196.56 1.86 M0.07 1.74 C45.28 -1.41, 91.59 -3.64, 199.17 1.46 M201.35 -1.83 C203.5 20.66, 201.62 48.1, 203.24 76.48 M199.82 -1.8 C202.41 23.49, 201.79 46.77, 201.77 79.95 M199.16 81.65 C136.57 78.44, 71.94 82.71, 0.04 79.06 M198.52 80.59 C154.84 81.43, 111.03 80.98, -1.42 80.27 M-1.35 82.07 C-0.17 52.69, 3.63 23.61, -2.05 2.29 M1.04 79.29 C-1.06 58.05, 0.37 36.05, 1.49 0.79" stroke="#c2255c" stroke-width="2" fill="none"></path></g><g transform="translate(575 40) rotate(0 95 10)"><text x="95" y="20" font-family="Virgil, Segoe UI Emoji" font-size="16px" fill="#c2255c" text-anchor="middle" style="white-space: pre;" direction="ltr">Bulk Prompter</text></g><g stroke-linecap="round"><g transform="translate(110 90) rotate(0 140 50)"><path d="M-0.06 0.23 C0.03 8.55, -45.61 42.44, 0.95 50.9 C47.5 59.36, 232.6 42.81, 279.27 50.98 C325.95 59.15, 280.68 91.92, 280.98 99.9 M-1.55 -0.7 C-1.57 7.21, -46.73 40.95, 0.5 49.26 C47.72 57.56, 234.91 40.53, 281.79 49.15 C328.66 57.77, 282.02 92.7, 281.73 100.96" stroke="#495057" stroke-width="2" fill="none"></path></g><g transform="translate(110 90) rotate(0 140 50)"><path d="M288.27 78.31 C287.55 83.58, 285.63 94.48, 281.57 102.68 M288.55 75.88 C286.91 81.11, 285.65 86.4, 281.35 101.52" stroke="#495057" stroke-width="2" fill="none"></path></g><g transform="translate(110 90) rotate(0 140 50)"><path d="M302.41 87.93 C296.9 90, 290.27 97.69, 281.57 102.68 M302.68 85.51 C298.17 88.74, 293.99 92.03, 281.35 101.52" stroke="#495057" stroke-width="2" fill="none"></path></g></g><g transform="translate(186.5 131.875) rotate(0 63.5 8.125)"><text x="63.5" y="16" font-family="Virgil, Segoe UI Emoji" font-size="13px" fill="#495057" text-anchor="middle" style="white-space: pre;" direction="ltr">topic / resolution</text></g><g stroke-linecap="round"><g transform="translate(110 90) rotate(0 0 50)"><path d="M1.02 -1.04 C1.3 15.66, 1.05 83.19, 0.78 100.23 M0.1 1.02 C0.37 17.34, 0.54 81.82, 0.24 98.23" stroke="#495057" stroke-width="2" fill="none"></path></g><g transform="translate(110 90) rotate(0 0 50)"><path d="M-11.59 71.28 C-7.22 75.16, -3.38 81.25, 1.75 96.99 M-10 70.16 C-6.5 78.26, -3.14 89.33, 0.44 98.45" stroke="#495057" stroke-width="2" fill="none"></path></g><g transform="translate(110 90) rotate(0 0 50)"><path d="M8.93 71.4 C8.75 75.43, 8.03 81.49, 1.75 96.99 M10.52 70.28 C7.34 78.34, 4.01 89.37, 0.44 98.45" stroke="#495057" stroke-width="2" fill="none"></path></g></g><g transform="translate(59.5 131.875) rotate(0 50.5 8.125)"><text x="50.5" y="16" font-family="Virgil, Segoe UI Emoji" font-size="13px" fill="#495057" text-anchor="middle" style="white-space: pre;" direction="ltr">width / height</text></g><g stroke-linecap="round"><g transform="translate(390 90) rotate(0 0 50)"><path d="M0.1 1.19 C0.18 17.97, 0.75 83.25, 0.76 99.66" stroke="#495057" stroke-width="2.5" fill="none" stroke-dasharray="8 10"></path></g><g transform="translate(390 90) rotate(0 0 50)"><path d="M-7.67 72.79 C-7.07 80.95, -3.74 87.96, -0.42 101.48" stroke="#495057" stroke-width="2.5" fill="none"></path></g><g transform="translate(390 90) rotate(0 0 50)"><path d="M12.85 72.68 C6.77 80.9, 3.42 87.94, -0.42 101.48" stroke="#495057" stroke-width="2.5" fill="none"></path></g></g><g transform="translate(352.5 131.875) rotate(0 37.5 8.125)"><text x="37.5" y="16" font-family="Virgil, Segoe UI Emoji" font-size="13px" fill="#495057" text-anchor="middle" style="white-space: pre;" direction="ltr">LLM_CONFIG</text></g><g stroke-linecap="round"><g transform="translate(390 90) rotate(0 140 50)"><path d="M-0.18 0.93 C-0.09 9.19, -46.98 41.94, -0.23 50.05 C46.53 58.16, 233.69 41.08, 280.35 49.57 C327 58.05, 279.79 92.49, 279.69 100.97" stroke="#495057" stroke-width="2.5" fill="none" stroke-dasharray="8 10"></path></g><g transform="translate(390 90) rotate(0 140 50)"><path d="M287.38 76.36 C284.54 83.11, 282.26 87.83, 281.3 100.54" stroke="#495057" stroke-width="2.5" fill="none"></path></g><g transform="translate(390 90) rotate(0 140 50)"><path d="M301.52 85.97 C295.25 90.4, 289.58 92.81, 281.3 100.54" stroke="#495057" stroke-width="2.5" fill="none"></path></g></g><g transform="translate(492.5 131.875) rotate(0 37.5 8.125)"><text x="37.5" y="16" font-family="Virgil, Segoe UI Emoji" font-size="13px" fill="#495057" text-anchor="middle" style="white-space: pre;" direction="ltr">LLM_CONFIG</text></g><g stroke-linecap="round"><g transform="translate(390 270) rotate(0 -70 50)"><path d="M0.8 -1.19 C0.86 6.89, 22.72 40.38, -0.73 48.92 C-24.17 57.47, -116.62 41.6, -139.87 50.1 C-163.12 58.6, -140.2 91.73, -140.23 99.94 M-0.24 0.8 C0.3 8.96, 24.99 41.45, 1.6 49.9 C-21.79 58.34, -116.95 42.95, -140.57 51.47 C-164.18 59.99, -139.94 93.02, -140.1 101.02" stroke="#495057" stroke-width="2" fill="none"></path></g><g transform="translate(390 270) rotate(0 -70 50)"><path d="M-158.01 80.54 C-154.38 85.95, -149.03 89.44, -140.2 100.91 M-155.72 82.59 C-151.85 86.68, -148.45 90.56, -140.52 100.07" stroke="#495057" stroke-width="2" fill="none"></path></g><g transform="translate(390 270) rotate(0 -70 50)"><path d="M-141.9 74.8 C-141.66 81.54, -139.74 86.25, -140.2 100.91 M-139.61 76.86 C-139.76 82.28, -140.37 87.59, -140.52 100.07" stroke="#495057" stroke-width="2" fill="none"></path></g></g><g transform="translate(295.5 311.875) rotate(0 24.5 8.125)"><text x="24.5" y="16" font-family="Virgil, Segoe UI Emoji" font-size="13px" fill="#495057" text-anchor="middle" style="white-space: pre;" direction="ltr">prompt</text></g><g stroke-linecap="round"><g transform="translate(390 270) rotate(0 70 50)"><path d="M-0.84 0.36 C-0.58 8.41, -23.26 40.6, 0.39 48.95 C24.04 57.29, 117.65 41.71, 141.07 50.4 C164.48 59.1, 141.24 92.95, 140.89 101.12 M0.92 -0.5 C1.16 7.61, -23.67 41.8, -0.35 49.93 C22.97 58.06, 117.2 40.07, 140.86 48.27 C164.52 56.48, 141.64 90.62, 141.61 99.15" stroke="#495057" stroke-width="2" fill="none"></path></g><g transform="translate(390 270) rotate(0 70 50)"><path d="M141.39 74.81 C139.33 81.05, 141.92 85.86, 143.47 97.47 M141.32 73.81 C141.47 80.5, 141.93 85.82, 140.71 99.15" stroke="#495057" stroke-width="2" fill="none"></path></g><g transform="translate(390 270) rotate(0 70 50)"><path d="M157.64 80.14 C152.23 85.17, 151.51 88.9, 143.47 97.47 M157.57 79.13 C153.65 84.37, 150.05 88.36, 140.71 99.15" stroke="#495057" stroke-width="2" fill="none"></path></g></g><g transform="translate(429 311.875) rotate(0 31 8.125)"><text x="31" y="16" font-family="Virgil, Segoe UI Emoji" font-size="13px" fill="#495057" text-anchor="middle" style="white-space: pre;" direction="ltr">negative</text></g><g stroke-linecap="round"><g transform="translate(250 450) rotate(0 70 50)"><path d="M0.58 1.07 C0.38 9.38, -24.07 40.71, -0.98 49.01 C22.12 57.31, 115.74 42.52, 139.13 50.9 C162.51 59.27, 139.02 91.01, 139.33 99.28 M-0.57 0.59 C-0.42 9.09, -22.46 41.96, 1.22 50.03 C24.91 58.1, 118.56 40.69, 141.56 49.02 C164.56 57.35, 139.48 91.32, 139.23 100.01" stroke="#495057" stroke-width="2" fill="none"></path></g><g transform="translate(250 450) rotate(0 70 50)"><path d="M141.24 73.38 C137.55 81.5, 140.63 89.81, 138.03 101.68 M139.42 75.02 C139.53 82.97, 139.36 91.58, 138.41 99.62" stroke="#495057" stroke-width="2" fill="none"></path></g><g transform="translate(250 450) rotate(0 70 50)"><path d="M157.25 79.37 C148.52 85.66, 146.49 92.06, 138.03 101.68 M155.44 81.01 C150.1 87.06, 144.44 93.61, 138.41 99.62" stroke="#495057" stroke-width="2" fill="none"></path></g></g><g stroke-linecap="round"><g transform="translate(530 450) rotate(0 -70 50)"><path d="M-0.97 -0.28 C-1.14 8.33, 22.24 42.75, -0.9 51.04 C-24.03 59.32, -116.67 41.23, -139.78 49.45 C-162.88 57.68, -139.55 91.97, -139.53 100.4 M0.73 -1.48 C0.91 6.88, 24.87 40.8, 1.34 49.46 C-22.18 58.12, -117.03 41.77, -140.43 50.48 C-163.82 59.19, -138.95 93.39, -139.03 101.71" stroke="#495057" stroke-width="2" fill="none"></path></g><g transform="translate(530 450) rotate(0 -70 50)"><path d="M-155.47 80.98 C-148.4 88.97, -146.06 95.39, -138.37 102.32 M-155.02 81.56 C-150.09 87.93, -145.59 94.54, -138.83 100.86" stroke="#495057" stroke-width="2" fill="none"></path></g><g transform="translate(530 450) rotate(0 -70 50)"><path d="M-139.38 75.21 C-137.35 84.87, -140.03 93.09, -138.37 102.32 M-138.92 75.79 C-138.8 83.88, -139.09 92.21, -138.83 100.86" stroke="#495057" stroke-width="2" fill="none"></path></g></g><g stroke-linecap="round"><g transform="translate(110 270) rotate(0 140 140)"><path d="M-0.88 0.81 C-0.66 24.33, -46.14 117.12, 0.76 140.32 C47.65 163.53, 233.99 116.95, 280.5 140.04 C327 163.14, 279.7 255.49, 279.76 278.89 M0.86 0.18 C1.03 23.4, -46.31 114.84, 0.21 138.37 C46.73 161.9, 233.38 117.87, 279.99 141.38 C326.6 164.89, 279.91 256.13, 279.89 279.41" stroke="#495057" stroke-width="2" fill="none"></path></g><g transform="translate(110 270) rotate(0 140 140)"><path d="M278.06 250.84 C277.86 258.05, 278.2 264.45, 278.03 280.87 M277.24 250.34 C277.59 258.85, 278.8 269.67, 279.2 279.3" stroke="#495057" stroke-width="2" fill="none"></path></g><g transform="translate(110 270) rotate(0 140 140)"><path d="M297.98 255.78 C292.72 261.58, 287.97 266.72, 278.03 280.87 M297.16 255.28 C290.85 262, 285.42 271.18, 279.2 279.3" stroke="#495057" stroke-width="2" fill="none"></path></g></g><g stroke-linecap="round"><g transform="translate(390 630) rotate(0 0 50)"><path d="M-0.95 -1.02 C-1.03 15.58, -0.66 82.26, -0.67 99.24 M0.75 1.07 C1.09 17.83, 1.59 84.07, 1.69 100.38" stroke="#495057" stroke-width="2" fill="none"></path></g><g transform="translate(390 630) rotate(0 0 50)"><path d="M-10.47 71.15 C-7.19 78.53, -1.56 88.83, 1.05 98.43 M-9.45 72.03 C-7.02 78.09, -4.85 85.05, 2.4 100.23" stroke="#495057" stroke-width="2" fill="none"></path></g><g transform="translate(390 630) rotate(0 0 50)"><path d="M10.05 71 C7.59 78.26, 7.48 88.6, 1.05 98.43 M11.08 71.89 C8.85 77.87, 6.37 84.86, 2.4 100.23" stroke="#495057" stroke-width="2" fill="none"></path></g></g><g stroke-linecap="round"><g transform="translate(390 810) rotate(0 0 50)"><path d="M-0.48 -0.22 C-0.47 16.31, -0.19 83, 0.01 99.55 M1.47 -1.38 C1.33 15.28, -0.75 83.97, -0.94 100.86" stroke="#495057" stroke-width="2" fill="none"></path></g><g transform="translate(390 810) rotate(0 0 50)"><path d="M-10.94 72.46 C-8.36 82.16, -6.26 89.61, -1.02 100.42 M-11 72.94 C-7.89 82.85, -3.63 92.67, -1.04 99.94" stroke="#495057" stroke-width="2" fill="none"></path></g><g transform="translate(390 810) rotate(0 0 50)"><path d="M9.57 72.91 C6.05 82.39, 2.04 89.71, -1.02 100.42 M9.52 73.39 C5.27 82.96, 2.18 92.62, -1.04 99.94" stroke="#495057" stroke-width="2" fill="none"></path></g></g><g transform="translate(368.75 851.875) rotate(0 21.25 8.125)"><text x="21.25" y="16" font-family="Virgil, Segoe UI Emoji" font-size="13px" fill="#495057" text-anchor="middle" style="white-space: pre;" direction="ltr">image</text></g><g stroke-linecap="round"><g transform="translate(390 990) rotate(0 0 50)"><path d="M0.78 1.15 C0.81 17.87, 0.29 84.31, -0.01 100.66 M-0.28 0.7 C-0.38 17.04, -1.24 82.3, -0.96 98.88" stroke="#495057" stroke-width="2" fill="none"></path></g><g transform="translate(390 990) rotate(0 0 50)"><path d="M-9.3 70.67 C-7.14 76.93, -6.62 86.86, -0.15 100.11 M-11.08 70.05 C-7.06 81.35, -2.44 92.94, -0.27 99.44" stroke="#495057" stroke-width="2" fill="none"></path></g><g transform="translate(390 990) rotate(0 0 50)"><path d="M11.22 70.68 C7.59 77.06, 2.32 87, -0.15 100.11 M9.44 70.05 C5.55 81.47, 2.26 93.05, -0.27 99.44" stroke="#495057" stroke-width="2" fill="none"></path></g></g><g transform="translate(349.25 1031.875) rotate(0 40.75 8.125)"><text x="40.75" y="16" font-family="Virgil, Segoe UI Emoji" font-size="13px" fill="#495057" text-anchor="middle" style="white-space: pre;" direction="ltr">passthrough</text></g></svg>